G04 #@! TF.FileFunction,Paste,Top*
%FSLAX46Y46*%
G04 Gerber Fmt 4.6, Leading zero omitted, Abs format (unit mm)*
G04 Created by KiCad (PCBNEW 4.0.7) date 10/26/17 01:15:18*
%MOMM*%
%LPD*%
G01*
G04 APERTURE LIST*
%ADD10C,0.100000*%
%ADD11R,1.879600X1.879600*%
%ADD12C,1.879600*%
%ADD13C,5.080000*%
%ADD14R,1.200000X0.900000*%
%ADD15R,1.500000X1.250000*%
%ADD16R,2.500000X3.200000*%
%ADD17R,3.200000X2.500000*%
%ADD18R,1.300000X1.500000*%
%ADD19R,1.500000X1.300000*%
%ADD20R,3.800000X2.000000*%
%ADD21R,1.500000X2.000000*%
%ADD22R,1.550000X0.600000*%
%ADD23R,1.430000X2.850000*%
%ADD24R,0.900000X1.200000*%
%ADD25R,1.200000X0.750000*%
%ADD26R,0.750000X1.200000*%
G04 APERTURE END LIST*
D10*
G36*
X39220621Y-29608311D02*
X39397398Y-29431534D01*
X40316637Y-30350773D01*
X40139860Y-30527550D01*
X39220621Y-29608311D01*
X39220621Y-29608311D01*
G37*
G36*
X38867068Y-29961864D02*
X39043845Y-29785087D01*
X39963084Y-30704326D01*
X39786307Y-30881103D01*
X38867068Y-29961864D01*
X38867068Y-29961864D01*
G37*
G36*
X38513514Y-30315418D02*
X38690291Y-30138641D01*
X39609530Y-31057880D01*
X39432753Y-31234657D01*
X38513514Y-30315418D01*
X38513514Y-30315418D01*
G37*
G36*
X38159961Y-30668971D02*
X38336738Y-30492194D01*
X39255977Y-31411433D01*
X39079200Y-31588210D01*
X38159961Y-30668971D01*
X38159961Y-30668971D01*
G37*
G36*
X37806408Y-31022524D02*
X37983185Y-30845747D01*
X38902424Y-31764986D01*
X38725647Y-31941763D01*
X37806408Y-31022524D01*
X37806408Y-31022524D01*
G37*
G36*
X37452854Y-31376078D02*
X37629631Y-31199301D01*
X38548870Y-32118540D01*
X38372093Y-32295317D01*
X37452854Y-31376078D01*
X37452854Y-31376078D01*
G37*
G36*
X37099301Y-31729631D02*
X37276078Y-31552854D01*
X38195317Y-32472093D01*
X38018540Y-32648870D01*
X37099301Y-31729631D01*
X37099301Y-31729631D01*
G37*
G36*
X36745747Y-32083185D02*
X36922524Y-31906408D01*
X37841763Y-32825647D01*
X37664986Y-33002424D01*
X36745747Y-32083185D01*
X36745747Y-32083185D01*
G37*
G36*
X36392194Y-32436738D02*
X36568971Y-32259961D01*
X37488210Y-33179200D01*
X37311433Y-33355977D01*
X36392194Y-32436738D01*
X36392194Y-32436738D01*
G37*
G36*
X36038641Y-32790291D02*
X36215418Y-32613514D01*
X37134657Y-33532753D01*
X36957880Y-33709530D01*
X36038641Y-32790291D01*
X36038641Y-32790291D01*
G37*
G36*
X35685087Y-33143845D02*
X35861864Y-32967068D01*
X36781103Y-33886307D01*
X36604326Y-34063084D01*
X35685087Y-33143845D01*
X35685087Y-33143845D01*
G37*
G36*
X35331534Y-33497398D02*
X35508311Y-33320621D01*
X36427550Y-34239860D01*
X36250773Y-34416637D01*
X35331534Y-33497398D01*
X35331534Y-33497398D01*
G37*
G36*
X35508311Y-36679379D02*
X35331534Y-36502602D01*
X36250773Y-35583363D01*
X36427550Y-35760140D01*
X35508311Y-36679379D01*
X35508311Y-36679379D01*
G37*
G36*
X35861864Y-37032932D02*
X35685087Y-36856155D01*
X36604326Y-35936916D01*
X36781103Y-36113693D01*
X35861864Y-37032932D01*
X35861864Y-37032932D01*
G37*
G36*
X36215418Y-37386486D02*
X36038641Y-37209709D01*
X36957880Y-36290470D01*
X37134657Y-36467247D01*
X36215418Y-37386486D01*
X36215418Y-37386486D01*
G37*
G36*
X36568971Y-37740039D02*
X36392194Y-37563262D01*
X37311433Y-36644023D01*
X37488210Y-36820800D01*
X36568971Y-37740039D01*
X36568971Y-37740039D01*
G37*
G36*
X36922524Y-38093592D02*
X36745747Y-37916815D01*
X37664986Y-36997576D01*
X37841763Y-37174353D01*
X36922524Y-38093592D01*
X36922524Y-38093592D01*
G37*
G36*
X37276078Y-38447146D02*
X37099301Y-38270369D01*
X38018540Y-37351130D01*
X38195317Y-37527907D01*
X37276078Y-38447146D01*
X37276078Y-38447146D01*
G37*
G36*
X37629631Y-38800699D02*
X37452854Y-38623922D01*
X38372093Y-37704683D01*
X38548870Y-37881460D01*
X37629631Y-38800699D01*
X37629631Y-38800699D01*
G37*
G36*
X37983185Y-39154253D02*
X37806408Y-38977476D01*
X38725647Y-38058237D01*
X38902424Y-38235014D01*
X37983185Y-39154253D01*
X37983185Y-39154253D01*
G37*
G36*
X38336738Y-39507806D02*
X38159961Y-39331029D01*
X39079200Y-38411790D01*
X39255977Y-38588567D01*
X38336738Y-39507806D01*
X38336738Y-39507806D01*
G37*
G36*
X38690291Y-39861359D02*
X38513514Y-39684582D01*
X39432753Y-38765343D01*
X39609530Y-38942120D01*
X38690291Y-39861359D01*
X38690291Y-39861359D01*
G37*
G36*
X39043845Y-40214913D02*
X38867068Y-40038136D01*
X39786307Y-39118897D01*
X39963084Y-39295674D01*
X39043845Y-40214913D01*
X39043845Y-40214913D01*
G37*
G36*
X39397398Y-40568466D02*
X39220621Y-40391689D01*
X40139860Y-39472450D01*
X40316637Y-39649227D01*
X39397398Y-40568466D01*
X39397398Y-40568466D01*
G37*
G36*
X41483363Y-39649227D02*
X41660140Y-39472450D01*
X42579379Y-40391689D01*
X42402602Y-40568466D01*
X41483363Y-39649227D01*
X41483363Y-39649227D01*
G37*
G36*
X41836916Y-39295674D02*
X42013693Y-39118897D01*
X42932932Y-40038136D01*
X42756155Y-40214913D01*
X41836916Y-39295674D01*
X41836916Y-39295674D01*
G37*
G36*
X42190470Y-38942120D02*
X42367247Y-38765343D01*
X43286486Y-39684582D01*
X43109709Y-39861359D01*
X42190470Y-38942120D01*
X42190470Y-38942120D01*
G37*
G36*
X42544023Y-38588567D02*
X42720800Y-38411790D01*
X43640039Y-39331029D01*
X43463262Y-39507806D01*
X42544023Y-38588567D01*
X42544023Y-38588567D01*
G37*
G36*
X42897576Y-38235014D02*
X43074353Y-38058237D01*
X43993592Y-38977476D01*
X43816815Y-39154253D01*
X42897576Y-38235014D01*
X42897576Y-38235014D01*
G37*
G36*
X43251130Y-37881460D02*
X43427907Y-37704683D01*
X44347146Y-38623922D01*
X44170369Y-38800699D01*
X43251130Y-37881460D01*
X43251130Y-37881460D01*
G37*
G36*
X43604683Y-37527907D02*
X43781460Y-37351130D01*
X44700699Y-38270369D01*
X44523922Y-38447146D01*
X43604683Y-37527907D01*
X43604683Y-37527907D01*
G37*
G36*
X43958237Y-37174353D02*
X44135014Y-36997576D01*
X45054253Y-37916815D01*
X44877476Y-38093592D01*
X43958237Y-37174353D01*
X43958237Y-37174353D01*
G37*
G36*
X44311790Y-36820800D02*
X44488567Y-36644023D01*
X45407806Y-37563262D01*
X45231029Y-37740039D01*
X44311790Y-36820800D01*
X44311790Y-36820800D01*
G37*
G36*
X44665343Y-36467247D02*
X44842120Y-36290470D01*
X45761359Y-37209709D01*
X45584582Y-37386486D01*
X44665343Y-36467247D01*
X44665343Y-36467247D01*
G37*
G36*
X45018897Y-36113693D02*
X45195674Y-35936916D01*
X46114913Y-36856155D01*
X45938136Y-37032932D01*
X45018897Y-36113693D01*
X45018897Y-36113693D01*
G37*
G36*
X45372450Y-35760140D02*
X45549227Y-35583363D01*
X46468466Y-36502602D01*
X46291689Y-36679379D01*
X45372450Y-35760140D01*
X45372450Y-35760140D01*
G37*
G36*
X45549227Y-34416637D02*
X45372450Y-34239860D01*
X46291689Y-33320621D01*
X46468466Y-33497398D01*
X45549227Y-34416637D01*
X45549227Y-34416637D01*
G37*
G36*
X45195674Y-34063084D02*
X45018897Y-33886307D01*
X45938136Y-32967068D01*
X46114913Y-33143845D01*
X45195674Y-34063084D01*
X45195674Y-34063084D01*
G37*
G36*
X44842120Y-33709530D02*
X44665343Y-33532753D01*
X45584582Y-32613514D01*
X45761359Y-32790291D01*
X44842120Y-33709530D01*
X44842120Y-33709530D01*
G37*
G36*
X44488567Y-33355977D02*
X44311790Y-33179200D01*
X45231029Y-32259961D01*
X45407806Y-32436738D01*
X44488567Y-33355977D01*
X44488567Y-33355977D01*
G37*
G36*
X44135014Y-33002424D02*
X43958237Y-32825647D01*
X44877476Y-31906408D01*
X45054253Y-32083185D01*
X44135014Y-33002424D01*
X44135014Y-33002424D01*
G37*
G36*
X43781460Y-32648870D02*
X43604683Y-32472093D01*
X44523922Y-31552854D01*
X44700699Y-31729631D01*
X43781460Y-32648870D01*
X43781460Y-32648870D01*
G37*
G36*
X43427907Y-32295317D02*
X43251130Y-32118540D01*
X44170369Y-31199301D01*
X44347146Y-31376078D01*
X43427907Y-32295317D01*
X43427907Y-32295317D01*
G37*
G36*
X43074353Y-31941763D02*
X42897576Y-31764986D01*
X43816815Y-30845747D01*
X43993592Y-31022524D01*
X43074353Y-31941763D01*
X43074353Y-31941763D01*
G37*
G36*
X42720800Y-31588210D02*
X42544023Y-31411433D01*
X43463262Y-30492194D01*
X43640039Y-30668971D01*
X42720800Y-31588210D01*
X42720800Y-31588210D01*
G37*
G36*
X42367247Y-31234657D02*
X42190470Y-31057880D01*
X43109709Y-30138641D01*
X43286486Y-30315418D01*
X42367247Y-31234657D01*
X42367247Y-31234657D01*
G37*
G36*
X42013693Y-30881103D02*
X41836916Y-30704326D01*
X42756155Y-29785087D01*
X42932932Y-29961864D01*
X42013693Y-30881103D01*
X42013693Y-30881103D01*
G37*
G36*
X41660140Y-30527550D02*
X41483363Y-30350773D01*
X42402602Y-29431534D01*
X42579379Y-29608311D01*
X41660140Y-30527550D01*
X41660140Y-30527550D01*
G37*
D11*
X12219860Y-22539740D03*
D12*
X12219860Y-19768600D03*
X12219860Y-17000000D03*
X12219860Y-14231400D03*
X12219860Y-11460260D03*
X9380140Y-21147820D03*
X9380140Y-18379220D03*
X9380140Y-15620780D03*
X9380140Y-12852180D03*
D13*
X10800000Y-29499340D03*
X10800000Y-4500660D03*
D14*
X40250000Y-18000000D03*
X38050000Y-18000000D03*
D15*
X14650000Y-31000000D03*
X17150000Y-31000000D03*
X21150000Y-55800000D03*
X23650000Y-55800000D03*
D16*
X8150000Y-40400000D03*
X8150000Y-36100000D03*
X20800000Y-43350000D03*
X20800000Y-39050000D03*
X25200000Y-43350000D03*
X25200000Y-39050000D03*
D17*
X25150000Y-34300000D03*
X20850000Y-34300000D03*
D18*
X42400000Y-3050000D03*
X42400000Y-5750000D03*
D19*
X23750000Y-58200000D03*
X21050000Y-58200000D03*
D20*
X13900000Y-34350000D03*
D21*
X13900000Y-40650000D03*
X16200000Y-40650000D03*
X11600000Y-40650000D03*
D20*
X23400000Y-53450000D03*
D21*
X23400000Y-47150000D03*
X21100000Y-47150000D03*
X25700000Y-47150000D03*
D22*
X25100000Y-28155000D03*
X25100000Y-26885000D03*
X25100000Y-25615000D03*
X25100000Y-24345000D03*
X19700000Y-24345000D03*
X19700000Y-25615000D03*
X19700000Y-26885000D03*
X19700000Y-28155000D03*
X25100000Y-13905000D03*
X25100000Y-12635000D03*
X25100000Y-11365000D03*
X25100000Y-10095000D03*
X19700000Y-10095000D03*
X19700000Y-11365000D03*
X19700000Y-12635000D03*
X19700000Y-13905000D03*
D23*
X41965000Y-10925000D03*
X36335000Y-10925000D03*
X36335000Y-15075000D03*
X41965000Y-15075000D03*
D24*
X43800000Y-56400000D03*
X43800000Y-54200000D03*
X44700000Y-5500000D03*
X44700000Y-3300000D03*
D14*
X28200000Y-58200000D03*
X26000000Y-58200000D03*
D24*
X42000000Y-52700000D03*
X42000000Y-50500000D03*
X33600000Y-50500000D03*
X33600000Y-52700000D03*
D14*
X29750000Y-28500000D03*
X27550000Y-28500000D03*
X29750000Y-14250000D03*
X27550000Y-14250000D03*
X29750000Y-27000000D03*
X27550000Y-27000000D03*
X29750000Y-12750000D03*
X27550000Y-12750000D03*
X29750000Y-25500000D03*
X27550000Y-25500000D03*
X29750000Y-11250000D03*
X27550000Y-11250000D03*
X29750000Y-24000000D03*
X27550000Y-24000000D03*
X29750000Y-9750000D03*
X27550000Y-9750000D03*
X17000000Y-24250000D03*
X14800000Y-24250000D03*
X14800000Y-28250000D03*
X17000000Y-28250000D03*
X17000000Y-10000000D03*
X14800000Y-10000000D03*
X14800000Y-14000000D03*
X17000000Y-14000000D03*
X14800000Y-26250000D03*
X17000000Y-26250000D03*
X17000000Y-12000000D03*
X14800000Y-12000000D03*
D10*
G36*
X33730850Y-29338820D02*
X34261180Y-29869150D01*
X33412652Y-30717678D01*
X32882322Y-30187348D01*
X33730850Y-29338820D01*
X33730850Y-29338820D01*
G37*
G36*
X32387348Y-30682322D02*
X32917678Y-31212652D01*
X32069150Y-32061180D01*
X31538820Y-31530850D01*
X32387348Y-30682322D01*
X32387348Y-30682322D01*
G37*
D25*
X47350000Y-47400000D03*
X49250000Y-47400000D03*
D10*
G36*
X49030850Y-37138820D02*
X49561180Y-37669150D01*
X48712652Y-38517678D01*
X48182322Y-37987348D01*
X49030850Y-37138820D01*
X49030850Y-37138820D01*
G37*
G36*
X47687348Y-38482322D02*
X48217678Y-39012652D01*
X47369150Y-39861180D01*
X46838820Y-39330850D01*
X47687348Y-38482322D01*
X47687348Y-38482322D01*
G37*
D25*
X39850000Y-42800000D03*
X41750000Y-42800000D03*
X41850000Y-26800000D03*
X39950000Y-26800000D03*
D26*
X32150000Y-23950000D03*
X32150000Y-22050000D03*
X46150000Y-23950000D03*
X46150000Y-22050000D03*
X44650000Y-12950000D03*
X44650000Y-11050000D03*
X33650000Y-12950000D03*
X33650000Y-11050000D03*
M02*
