G04 #@! TF.FileFunction,Soldermask,Top*
%FSLAX46Y46*%
G04 Gerber Fmt 4.6, Leading zero omitted, Abs format (unit mm)*
G04 Created by KiCad (PCBNEW 4.0.7) date 10/26/17 01:15:42*
%MOMM*%
%LPD*%
G01*
G04 APERTURE LIST*
%ADD10C,0.100000*%
%ADD11R,2.279600X2.279600*%
%ADD12C,2.279600*%
%ADD13C,5.480000*%
%ADD14R,1.600000X1.300000*%
%ADD15C,1.900000*%
%ADD16R,1.900000X1.650000*%
%ADD17R,2.900000X3.600000*%
%ADD18R,3.600000X2.900000*%
%ADD19R,1.700000X1.900000*%
%ADD20R,1.900000X1.700000*%
%ADD21R,2.100000X2.100000*%
%ADD22O,2.100000X2.100000*%
%ADD23C,2.400000*%
%ADD24R,4.200000X2.400000*%
%ADD25R,1.900000X2.400000*%
%ADD26R,1.950000X1.000000*%
%ADD27R,1.830000X3.250000*%
%ADD28R,1.300000X1.600000*%
%ADD29R,1.600000X1.150000*%
%ADD30R,1.150000X1.600000*%
%ADD31C,1.924000*%
%ADD32R,3.400000X3.400000*%
%ADD33C,3.400000*%
G04 APERTURE END LIST*
D10*
G36*
X38937779Y-29608311D02*
X39397398Y-29148692D01*
X40599479Y-30350773D01*
X40139860Y-30810392D01*
X38937779Y-29608311D01*
X38937779Y-29608311D01*
G37*
G36*
X38584226Y-29961864D02*
X39043845Y-29502245D01*
X40245926Y-30704326D01*
X39786307Y-31163945D01*
X38584226Y-29961864D01*
X38584226Y-29961864D01*
G37*
G36*
X38230672Y-30315418D02*
X38690291Y-29855799D01*
X39892372Y-31057880D01*
X39432753Y-31517499D01*
X38230672Y-30315418D01*
X38230672Y-30315418D01*
G37*
G36*
X37877119Y-30668971D02*
X38336738Y-30209352D01*
X39538819Y-31411433D01*
X39079200Y-31871052D01*
X37877119Y-30668971D01*
X37877119Y-30668971D01*
G37*
G36*
X37523566Y-31022524D02*
X37983185Y-30562905D01*
X39185266Y-31764986D01*
X38725647Y-32224605D01*
X37523566Y-31022524D01*
X37523566Y-31022524D01*
G37*
G36*
X37170012Y-31376078D02*
X37629631Y-30916459D01*
X38831712Y-32118540D01*
X38372093Y-32578159D01*
X37170012Y-31376078D01*
X37170012Y-31376078D01*
G37*
G36*
X36816459Y-31729631D02*
X37276078Y-31270012D01*
X38478159Y-32472093D01*
X38018540Y-32931712D01*
X36816459Y-31729631D01*
X36816459Y-31729631D01*
G37*
G36*
X36462905Y-32083185D02*
X36922524Y-31623566D01*
X38124605Y-32825647D01*
X37664986Y-33285266D01*
X36462905Y-32083185D01*
X36462905Y-32083185D01*
G37*
G36*
X36109352Y-32436738D02*
X36568971Y-31977119D01*
X37771052Y-33179200D01*
X37311433Y-33638819D01*
X36109352Y-32436738D01*
X36109352Y-32436738D01*
G37*
G36*
X35755799Y-32790291D02*
X36215418Y-32330672D01*
X37417499Y-33532753D01*
X36957880Y-33992372D01*
X35755799Y-32790291D01*
X35755799Y-32790291D01*
G37*
G36*
X35402245Y-33143845D02*
X35861864Y-32684226D01*
X37063945Y-33886307D01*
X36604326Y-34345926D01*
X35402245Y-33143845D01*
X35402245Y-33143845D01*
G37*
G36*
X35048692Y-33497398D02*
X35508311Y-33037779D01*
X36710392Y-34239860D01*
X36250773Y-34699479D01*
X35048692Y-33497398D01*
X35048692Y-33497398D01*
G37*
G36*
X35508311Y-36962221D02*
X35048692Y-36502602D01*
X36250773Y-35300521D01*
X36710392Y-35760140D01*
X35508311Y-36962221D01*
X35508311Y-36962221D01*
G37*
G36*
X35861864Y-37315774D02*
X35402245Y-36856155D01*
X36604326Y-35654074D01*
X37063945Y-36113693D01*
X35861864Y-37315774D01*
X35861864Y-37315774D01*
G37*
G36*
X36215418Y-37669328D02*
X35755799Y-37209709D01*
X36957880Y-36007628D01*
X37417499Y-36467247D01*
X36215418Y-37669328D01*
X36215418Y-37669328D01*
G37*
G36*
X36568971Y-38022881D02*
X36109352Y-37563262D01*
X37311433Y-36361181D01*
X37771052Y-36820800D01*
X36568971Y-38022881D01*
X36568971Y-38022881D01*
G37*
G36*
X36922524Y-38376434D02*
X36462905Y-37916815D01*
X37664986Y-36714734D01*
X38124605Y-37174353D01*
X36922524Y-38376434D01*
X36922524Y-38376434D01*
G37*
G36*
X37276078Y-38729988D02*
X36816459Y-38270369D01*
X38018540Y-37068288D01*
X38478159Y-37527907D01*
X37276078Y-38729988D01*
X37276078Y-38729988D01*
G37*
G36*
X37629631Y-39083541D02*
X37170012Y-38623922D01*
X38372093Y-37421841D01*
X38831712Y-37881460D01*
X37629631Y-39083541D01*
X37629631Y-39083541D01*
G37*
G36*
X37983185Y-39437095D02*
X37523566Y-38977476D01*
X38725647Y-37775395D01*
X39185266Y-38235014D01*
X37983185Y-39437095D01*
X37983185Y-39437095D01*
G37*
G36*
X38336738Y-39790648D02*
X37877119Y-39331029D01*
X39079200Y-38128948D01*
X39538819Y-38588567D01*
X38336738Y-39790648D01*
X38336738Y-39790648D01*
G37*
G36*
X38690291Y-40144201D02*
X38230672Y-39684582D01*
X39432753Y-38482501D01*
X39892372Y-38942120D01*
X38690291Y-40144201D01*
X38690291Y-40144201D01*
G37*
G36*
X39043845Y-40497755D02*
X38584226Y-40038136D01*
X39786307Y-38836055D01*
X40245926Y-39295674D01*
X39043845Y-40497755D01*
X39043845Y-40497755D01*
G37*
G36*
X39397398Y-40851308D02*
X38937779Y-40391689D01*
X40139860Y-39189608D01*
X40599479Y-39649227D01*
X39397398Y-40851308D01*
X39397398Y-40851308D01*
G37*
G36*
X41200521Y-39649227D02*
X41660140Y-39189608D01*
X42862221Y-40391689D01*
X42402602Y-40851308D01*
X41200521Y-39649227D01*
X41200521Y-39649227D01*
G37*
G36*
X41554074Y-39295674D02*
X42013693Y-38836055D01*
X43215774Y-40038136D01*
X42756155Y-40497755D01*
X41554074Y-39295674D01*
X41554074Y-39295674D01*
G37*
G36*
X41907628Y-38942120D02*
X42367247Y-38482501D01*
X43569328Y-39684582D01*
X43109709Y-40144201D01*
X41907628Y-38942120D01*
X41907628Y-38942120D01*
G37*
G36*
X42261181Y-38588567D02*
X42720800Y-38128948D01*
X43922881Y-39331029D01*
X43463262Y-39790648D01*
X42261181Y-38588567D01*
X42261181Y-38588567D01*
G37*
G36*
X42614734Y-38235014D02*
X43074353Y-37775395D01*
X44276434Y-38977476D01*
X43816815Y-39437095D01*
X42614734Y-38235014D01*
X42614734Y-38235014D01*
G37*
G36*
X42968288Y-37881460D02*
X43427907Y-37421841D01*
X44629988Y-38623922D01*
X44170369Y-39083541D01*
X42968288Y-37881460D01*
X42968288Y-37881460D01*
G37*
G36*
X43321841Y-37527907D02*
X43781460Y-37068288D01*
X44983541Y-38270369D01*
X44523922Y-38729988D01*
X43321841Y-37527907D01*
X43321841Y-37527907D01*
G37*
G36*
X43675395Y-37174353D02*
X44135014Y-36714734D01*
X45337095Y-37916815D01*
X44877476Y-38376434D01*
X43675395Y-37174353D01*
X43675395Y-37174353D01*
G37*
G36*
X44028948Y-36820800D02*
X44488567Y-36361181D01*
X45690648Y-37563262D01*
X45231029Y-38022881D01*
X44028948Y-36820800D01*
X44028948Y-36820800D01*
G37*
G36*
X44382501Y-36467247D02*
X44842120Y-36007628D01*
X46044201Y-37209709D01*
X45584582Y-37669328D01*
X44382501Y-36467247D01*
X44382501Y-36467247D01*
G37*
G36*
X44736055Y-36113693D02*
X45195674Y-35654074D01*
X46397755Y-36856155D01*
X45938136Y-37315774D01*
X44736055Y-36113693D01*
X44736055Y-36113693D01*
G37*
G36*
X45089608Y-35760140D02*
X45549227Y-35300521D01*
X46751308Y-36502602D01*
X46291689Y-36962221D01*
X45089608Y-35760140D01*
X45089608Y-35760140D01*
G37*
G36*
X45549227Y-34699479D02*
X45089608Y-34239860D01*
X46291689Y-33037779D01*
X46751308Y-33497398D01*
X45549227Y-34699479D01*
X45549227Y-34699479D01*
G37*
G36*
X45195674Y-34345926D02*
X44736055Y-33886307D01*
X45938136Y-32684226D01*
X46397755Y-33143845D01*
X45195674Y-34345926D01*
X45195674Y-34345926D01*
G37*
G36*
X44842120Y-33992372D02*
X44382501Y-33532753D01*
X45584582Y-32330672D01*
X46044201Y-32790291D01*
X44842120Y-33992372D01*
X44842120Y-33992372D01*
G37*
G36*
X44488567Y-33638819D02*
X44028948Y-33179200D01*
X45231029Y-31977119D01*
X45690648Y-32436738D01*
X44488567Y-33638819D01*
X44488567Y-33638819D01*
G37*
G36*
X44135014Y-33285266D02*
X43675395Y-32825647D01*
X44877476Y-31623566D01*
X45337095Y-32083185D01*
X44135014Y-33285266D01*
X44135014Y-33285266D01*
G37*
G36*
X43781460Y-32931712D02*
X43321841Y-32472093D01*
X44523922Y-31270012D01*
X44983541Y-31729631D01*
X43781460Y-32931712D01*
X43781460Y-32931712D01*
G37*
G36*
X43427907Y-32578159D02*
X42968288Y-32118540D01*
X44170369Y-30916459D01*
X44629988Y-31376078D01*
X43427907Y-32578159D01*
X43427907Y-32578159D01*
G37*
G36*
X43074353Y-32224605D02*
X42614734Y-31764986D01*
X43816815Y-30562905D01*
X44276434Y-31022524D01*
X43074353Y-32224605D01*
X43074353Y-32224605D01*
G37*
G36*
X42720800Y-31871052D02*
X42261181Y-31411433D01*
X43463262Y-30209352D01*
X43922881Y-30668971D01*
X42720800Y-31871052D01*
X42720800Y-31871052D01*
G37*
G36*
X42367247Y-31517499D02*
X41907628Y-31057880D01*
X43109709Y-29855799D01*
X43569328Y-30315418D01*
X42367247Y-31517499D01*
X42367247Y-31517499D01*
G37*
G36*
X42013693Y-31163945D02*
X41554074Y-30704326D01*
X42756155Y-29502245D01*
X43215774Y-29961864D01*
X42013693Y-31163945D01*
X42013693Y-31163945D01*
G37*
G36*
X41660140Y-30810392D02*
X41200521Y-30350773D01*
X42402602Y-29148692D01*
X42862221Y-29608311D01*
X41660140Y-30810392D01*
X41660140Y-30810392D01*
G37*
D11*
X12219860Y-22539740D03*
D12*
X12219860Y-19768600D03*
X12219860Y-17000000D03*
X12219860Y-14231400D03*
X12219860Y-11460260D03*
X9380140Y-21147820D03*
X9380140Y-18379220D03*
X9380140Y-15620780D03*
X9380140Y-12852180D03*
D13*
X10800000Y-29499340D03*
X10800000Y-4500660D03*
D14*
X40250000Y-18000000D03*
X38050000Y-18000000D03*
D15*
X36650000Y-22000000D03*
X41530000Y-22000000D03*
D16*
X14650000Y-31000000D03*
X17150000Y-31000000D03*
X21150000Y-55800000D03*
X23650000Y-55800000D03*
D17*
X8150000Y-40400000D03*
X8150000Y-36100000D03*
X20800000Y-43350000D03*
X20800000Y-39050000D03*
X25200000Y-43350000D03*
X25200000Y-39050000D03*
D18*
X25150000Y-34300000D03*
X20850000Y-34300000D03*
D19*
X42400000Y-3050000D03*
X42400000Y-5750000D03*
D20*
X23750000Y-58200000D03*
X21050000Y-58200000D03*
D21*
X29500000Y-38300000D03*
D22*
X29500000Y-40840000D03*
X29500000Y-43380000D03*
X29500000Y-45920000D03*
D21*
X33100000Y-43400000D03*
D22*
X33100000Y-45940000D03*
D21*
X39100000Y-55200000D03*
D22*
X36560000Y-55200000D03*
X39100000Y-52660000D03*
X36560000Y-52660000D03*
X39100000Y-50120000D03*
X36560000Y-50120000D03*
D21*
X15800000Y-6800000D03*
D22*
X15800000Y-4260000D03*
X18340000Y-6800000D03*
X18340000Y-4260000D03*
D21*
X22100000Y-6800000D03*
D22*
X22100000Y-4260000D03*
D23*
X46500000Y-49800000D03*
X51000000Y-49800000D03*
X46500000Y-56300000D03*
X51000000Y-56300000D03*
D24*
X13900000Y-34350000D03*
D25*
X13900000Y-40650000D03*
X16200000Y-40650000D03*
X11600000Y-40650000D03*
D24*
X23400000Y-53450000D03*
D25*
X23400000Y-47150000D03*
X21100000Y-47150000D03*
X25700000Y-47150000D03*
D26*
X25100000Y-28155000D03*
X25100000Y-26885000D03*
X25100000Y-25615000D03*
X25100000Y-24345000D03*
X19700000Y-24345000D03*
X19700000Y-25615000D03*
X19700000Y-26885000D03*
X19700000Y-28155000D03*
X25100000Y-13905000D03*
X25100000Y-12635000D03*
X25100000Y-11365000D03*
X25100000Y-10095000D03*
X19700000Y-10095000D03*
X19700000Y-11365000D03*
X19700000Y-12635000D03*
X19700000Y-13905000D03*
D27*
X41965000Y-10925000D03*
X36335000Y-10925000D03*
X36335000Y-15075000D03*
X41965000Y-15075000D03*
D28*
X43800000Y-56400000D03*
X43800000Y-54200000D03*
X44700000Y-5500000D03*
X44700000Y-3300000D03*
D14*
X28200000Y-58200000D03*
X26000000Y-58200000D03*
D28*
X42000000Y-52700000D03*
X42000000Y-50500000D03*
X33600000Y-50500000D03*
X33600000Y-52700000D03*
D14*
X29750000Y-28500000D03*
X27550000Y-28500000D03*
X29750000Y-14250000D03*
X27550000Y-14250000D03*
X29750000Y-27000000D03*
X27550000Y-27000000D03*
X29750000Y-12750000D03*
X27550000Y-12750000D03*
X29750000Y-25500000D03*
X27550000Y-25500000D03*
X29750000Y-11250000D03*
X27550000Y-11250000D03*
X29750000Y-24000000D03*
X27550000Y-24000000D03*
X29750000Y-9750000D03*
X27550000Y-9750000D03*
X17000000Y-24250000D03*
X14800000Y-24250000D03*
X14800000Y-28250000D03*
X17000000Y-28250000D03*
X17000000Y-10000000D03*
X14800000Y-10000000D03*
X14800000Y-14000000D03*
X17000000Y-14000000D03*
X14800000Y-26250000D03*
X17000000Y-26250000D03*
X17000000Y-12000000D03*
X14800000Y-12000000D03*
D10*
G36*
X33730850Y-29055977D02*
X34544023Y-29869150D01*
X33412652Y-31000521D01*
X32599479Y-30187348D01*
X33730850Y-29055977D01*
X33730850Y-29055977D01*
G37*
G36*
X32387348Y-30399479D02*
X33200521Y-31212652D01*
X32069150Y-32344023D01*
X31255977Y-31530850D01*
X32387348Y-30399479D01*
X32387348Y-30399479D01*
G37*
D29*
X47350000Y-47400000D03*
X49250000Y-47400000D03*
D10*
G36*
X49030850Y-36855977D02*
X49844023Y-37669150D01*
X48712652Y-38800521D01*
X47899479Y-37987348D01*
X49030850Y-36855977D01*
X49030850Y-36855977D01*
G37*
G36*
X47687348Y-38199479D02*
X48500521Y-39012652D01*
X47369150Y-40144023D01*
X46555977Y-39330850D01*
X47687348Y-38199479D01*
X47687348Y-38199479D01*
G37*
D29*
X39850000Y-42800000D03*
X41750000Y-42800000D03*
X41850000Y-26800000D03*
X39950000Y-26800000D03*
D30*
X32150000Y-23950000D03*
X32150000Y-22050000D03*
X46150000Y-23950000D03*
X46150000Y-22050000D03*
X44650000Y-12950000D03*
X44650000Y-11050000D03*
X33650000Y-12950000D03*
X33650000Y-11050000D03*
D21*
X15900000Y-21300000D03*
D22*
X15900000Y-18760000D03*
X18440000Y-21300000D03*
X18440000Y-18760000D03*
D21*
X22200000Y-21300000D03*
D22*
X22200000Y-18760000D03*
D21*
X35700000Y-6100000D03*
D22*
X33160000Y-6100000D03*
D21*
X35700000Y-2500000D03*
D22*
X33160000Y-2500000D03*
D21*
X55600000Y-58000000D03*
D22*
X55600000Y-55460000D03*
X55600000Y-52920000D03*
X55600000Y-50380000D03*
X55600000Y-47840000D03*
X55600000Y-45300000D03*
X55600000Y-42760000D03*
X55600000Y-40220000D03*
X55600000Y-37680000D03*
X55600000Y-35140000D03*
X55600000Y-32600000D03*
X55600000Y-30060000D03*
X55600000Y-27520000D03*
X55600000Y-24980000D03*
X55600000Y-22440000D03*
X55600000Y-19900000D03*
X55600000Y-17360000D03*
X55600000Y-14820000D03*
X55600000Y-12280000D03*
X55600000Y-9740000D03*
X55600000Y-7200000D03*
D31*
X58140000Y-58000000D03*
X60680000Y-58000000D03*
X63220000Y-58000000D03*
X65760000Y-58000000D03*
X68300000Y-58000000D03*
X70840000Y-58000000D03*
X73380000Y-58000000D03*
X75920000Y-58000000D03*
X78460000Y-58000000D03*
X81000000Y-58000000D03*
X58140000Y-55460000D03*
X60680000Y-55460000D03*
X63220000Y-55460000D03*
X65760000Y-55460000D03*
X68300000Y-55460000D03*
X70840000Y-55460000D03*
X73380000Y-55460000D03*
X75920000Y-55460000D03*
X78460000Y-55460000D03*
X81000000Y-55460000D03*
X83540000Y-55460000D03*
X58140000Y-52920000D03*
X60680000Y-52920000D03*
X63220000Y-52920000D03*
X65760000Y-52920000D03*
X68300000Y-52920000D03*
X70840000Y-52920000D03*
X73380000Y-52920000D03*
X75920000Y-52920000D03*
X78460000Y-52920000D03*
X81000000Y-52920000D03*
X83540000Y-52920000D03*
X58140000Y-50380000D03*
X60680000Y-50380000D03*
X63220000Y-50380000D03*
X65760000Y-50380000D03*
X68300000Y-50380000D03*
X70840000Y-50380000D03*
X73380000Y-50380000D03*
X75920000Y-50380000D03*
X78460000Y-50380000D03*
X81000000Y-50380000D03*
X83540000Y-50380000D03*
X58140000Y-47840000D03*
X60680000Y-47840000D03*
X63220000Y-47840000D03*
X65760000Y-47840000D03*
X68300000Y-47840000D03*
X70840000Y-47840000D03*
X73380000Y-47840000D03*
X75920000Y-47840000D03*
X78460000Y-47840000D03*
X81000000Y-47840000D03*
X83540000Y-47840000D03*
X58140000Y-45300000D03*
X60680000Y-45300000D03*
X63220000Y-45300000D03*
X65760000Y-45300000D03*
X68300000Y-45300000D03*
X70840000Y-45300000D03*
X73380000Y-45300000D03*
X75920000Y-45300000D03*
X78460000Y-45300000D03*
X81000000Y-45300000D03*
X83540000Y-45300000D03*
X58140000Y-42760000D03*
X60680000Y-42760000D03*
X63220000Y-42760000D03*
X65760000Y-42760000D03*
X68300000Y-42760000D03*
X70840000Y-42760000D03*
X73380000Y-42760000D03*
X75920000Y-42760000D03*
X78460000Y-42760000D03*
X81000000Y-42760000D03*
X83540000Y-42760000D03*
X58140000Y-40220000D03*
X60680000Y-40220000D03*
X63220000Y-40220000D03*
X65760000Y-40220000D03*
X68300000Y-40220000D03*
X70840000Y-40220000D03*
X73380000Y-40220000D03*
X75920000Y-40220000D03*
X78460000Y-40220000D03*
X81000000Y-40220000D03*
X83540000Y-40220000D03*
X58140000Y-37680000D03*
X60680000Y-37680000D03*
X63220000Y-37680000D03*
X65760000Y-37680000D03*
X68300000Y-37680000D03*
X70840000Y-37680000D03*
X73380000Y-37680000D03*
X75920000Y-37680000D03*
X78460000Y-37680000D03*
X81000000Y-37680000D03*
X83540000Y-37680000D03*
X58140000Y-35140000D03*
X60680000Y-35140000D03*
X63220000Y-35140000D03*
X65760000Y-35140000D03*
X68300000Y-35140000D03*
X70840000Y-35140000D03*
X73380000Y-35140000D03*
X75920000Y-35140000D03*
X78460000Y-35140000D03*
X81000000Y-35140000D03*
X83540000Y-35140000D03*
X58140000Y-32600000D03*
X60680000Y-32600000D03*
X63220000Y-32600000D03*
X65760000Y-32600000D03*
X68300000Y-32600000D03*
X70840000Y-32600000D03*
X73380000Y-32600000D03*
X75920000Y-32600000D03*
X78460000Y-32600000D03*
X81000000Y-32600000D03*
X83540000Y-32600000D03*
X58140000Y-30060000D03*
X60680000Y-30060000D03*
X63220000Y-30060000D03*
X65760000Y-30060000D03*
X68300000Y-30060000D03*
X70840000Y-30060000D03*
X73380000Y-30060000D03*
X75920000Y-30060000D03*
X78460000Y-30060000D03*
X81000000Y-30060000D03*
X83540000Y-30060000D03*
X58140000Y-27520000D03*
X60680000Y-27520000D03*
X63220000Y-27520000D03*
X65760000Y-27520000D03*
X68300000Y-27520000D03*
X70840000Y-27520000D03*
X73380000Y-27520000D03*
X75920000Y-27520000D03*
X78460000Y-27520000D03*
X81000000Y-27520000D03*
X83540000Y-27520000D03*
X58140000Y-24980000D03*
X60680000Y-24980000D03*
X63220000Y-24980000D03*
X65760000Y-24980000D03*
X68300000Y-24980000D03*
X70840000Y-24980000D03*
X73380000Y-24980000D03*
X75920000Y-24980000D03*
X78460000Y-24980000D03*
X81000000Y-24980000D03*
X83540000Y-24980000D03*
X58140000Y-22440000D03*
X60680000Y-22440000D03*
X63220000Y-22440000D03*
X65760000Y-22440000D03*
X68300000Y-22440000D03*
X70840000Y-22440000D03*
X73380000Y-22440000D03*
X75920000Y-22440000D03*
X78460000Y-22440000D03*
X81000000Y-22440000D03*
X83540000Y-22440000D03*
X58140000Y-19900000D03*
X60680000Y-19900000D03*
X63220000Y-19900000D03*
X65760000Y-19900000D03*
X68300000Y-19900000D03*
X70840000Y-19900000D03*
X73380000Y-19900000D03*
X75920000Y-19900000D03*
X78460000Y-19900000D03*
X81000000Y-19900000D03*
X83540000Y-19900000D03*
X58140000Y-17360000D03*
X60680000Y-17360000D03*
X63220000Y-17360000D03*
X65760000Y-17360000D03*
X68300000Y-17360000D03*
X70840000Y-17360000D03*
X73380000Y-17360000D03*
X75920000Y-17360000D03*
X78460000Y-17360000D03*
X81000000Y-17360000D03*
X83540000Y-17360000D03*
X58140000Y-14820000D03*
X60680000Y-14820000D03*
X63220000Y-14820000D03*
X65760000Y-14820000D03*
X68300000Y-14820000D03*
X70840000Y-14820000D03*
X73380000Y-14820000D03*
X75920000Y-14820000D03*
X78460000Y-14820000D03*
X81000000Y-14820000D03*
X83540000Y-14820000D03*
X58140000Y-12280000D03*
X60680000Y-12280000D03*
X63220000Y-12280000D03*
X65760000Y-12280000D03*
X68300000Y-12280000D03*
X70840000Y-12280000D03*
X73380000Y-12280000D03*
X75920000Y-12280000D03*
X78460000Y-12280000D03*
X81000000Y-12280000D03*
X83540000Y-12280000D03*
X58140000Y-9740000D03*
X60680000Y-9740000D03*
X63220000Y-9740000D03*
X65760000Y-9740000D03*
X68300000Y-9740000D03*
X70840000Y-9740000D03*
X73380000Y-9740000D03*
X75920000Y-9740000D03*
X78460000Y-9740000D03*
X81000000Y-9740000D03*
X83540000Y-9740000D03*
X58140000Y-7200000D03*
X60680000Y-7200000D03*
X63220000Y-7200000D03*
X65760000Y-7200000D03*
X68300000Y-7200000D03*
X70840000Y-7200000D03*
X73380000Y-7200000D03*
X75920000Y-7200000D03*
X78460000Y-7200000D03*
X81000000Y-7200000D03*
X83540000Y-7200000D03*
X58140000Y-4660000D03*
X60680000Y-4660000D03*
X63220000Y-4660000D03*
X65760000Y-4660000D03*
X68300000Y-4660000D03*
X70840000Y-4660000D03*
X73380000Y-4660000D03*
X75920000Y-4660000D03*
X78460000Y-4660000D03*
X81000000Y-4660000D03*
X83540000Y-4660000D03*
X58140000Y-2120000D03*
X60680000Y-2120000D03*
X63220000Y-2120000D03*
X65760000Y-2120000D03*
X68300000Y-2120000D03*
X70840000Y-2120000D03*
X73380000Y-2120000D03*
X75920000Y-2120000D03*
X78460000Y-2120000D03*
X81000000Y-2120000D03*
D32*
X11000000Y-53300000D03*
D33*
X11000000Y-49100000D03*
X16500000Y-53300000D03*
X16500000Y-49100000D03*
X3700000Y-51200000D03*
M02*
