G04 #@! TF.FileFunction,Legend,Top*
%FSLAX46Y46*%
G04 Gerber Fmt 4.6, Leading zero omitted, Abs format (unit mm)*
G04 Created by KiCad (PCBNEW 4.0.7) date 10/26/17 01:15:41*
%MOMM*%
%LPD*%
G01*
G04 APERTURE LIST*
%ADD10C,0.100000*%
%ADD11C,0.150000*%
%ADD12C,0.200000*%
%ADD13C,0.203200*%
%ADD14C,0.120000*%
G04 APERTURE END LIST*
D10*
D11*
X19114285Y-31214286D02*
X19085714Y-31242857D01*
X19000000Y-31271429D01*
X18942857Y-31271429D01*
X18857142Y-31242857D01*
X18800000Y-31185714D01*
X18771428Y-31128571D01*
X18742857Y-31014286D01*
X18742857Y-30928571D01*
X18771428Y-30814286D01*
X18800000Y-30757143D01*
X18857142Y-30700000D01*
X18942857Y-30671429D01*
X19000000Y-30671429D01*
X19085714Y-30700000D01*
X19114285Y-30728571D01*
X19685714Y-31271429D02*
X19342857Y-31271429D01*
X19514285Y-31271429D02*
X19514285Y-30671429D01*
X19457142Y-30757143D01*
X19400000Y-30814286D01*
X19342857Y-30842857D01*
X20057143Y-30671429D02*
X20114286Y-30671429D01*
X20171429Y-30700000D01*
X20200000Y-30728571D01*
X20228571Y-30785714D01*
X20257143Y-30900000D01*
X20257143Y-31042857D01*
X20228571Y-31157143D01*
X20200000Y-31214286D01*
X20171429Y-31242857D01*
X20114286Y-31271429D01*
X20057143Y-31271429D01*
X20000000Y-31242857D01*
X19971429Y-31214286D01*
X19942857Y-31157143D01*
X19914286Y-31042857D01*
X19914286Y-30900000D01*
X19942857Y-30785714D01*
X19971429Y-30728571D01*
X20000000Y-30700000D01*
X20057143Y-30671429D01*
X22800000Y-32014286D02*
X22771429Y-32042857D01*
X22685715Y-32071429D01*
X22628572Y-32071429D01*
X22542857Y-32042857D01*
X22485715Y-31985714D01*
X22457143Y-31928571D01*
X22428572Y-31814286D01*
X22428572Y-31728571D01*
X22457143Y-31614286D01*
X22485715Y-31557143D01*
X22542857Y-31500000D01*
X22628572Y-31471429D01*
X22685715Y-31471429D01*
X22771429Y-31500000D01*
X22800000Y-31528571D01*
X23057143Y-32071429D02*
X23057143Y-31471429D01*
X23285715Y-31471429D01*
X23342857Y-31500000D01*
X23371429Y-31528571D01*
X23400000Y-31585714D01*
X23400000Y-31671429D01*
X23371429Y-31728571D01*
X23342857Y-31757143D01*
X23285715Y-31785714D01*
X23057143Y-31785714D01*
X23914286Y-31671429D02*
X23914286Y-32071429D01*
X23771429Y-31442857D02*
X23628572Y-31871429D01*
X24000000Y-31871429D01*
X13442857Y-42571429D02*
X13442857Y-43057143D01*
X13471429Y-43114286D01*
X13500000Y-43142857D01*
X13557143Y-43171429D01*
X13671429Y-43171429D01*
X13728571Y-43142857D01*
X13757143Y-43114286D01*
X13785714Y-43057143D01*
X13785714Y-42571429D01*
X14042857Y-42628571D02*
X14071428Y-42600000D01*
X14128571Y-42571429D01*
X14271428Y-42571429D01*
X14328571Y-42600000D01*
X14357142Y-42628571D01*
X14385714Y-42685714D01*
X14385714Y-42742857D01*
X14357142Y-42828571D01*
X14014285Y-43171429D01*
X14385714Y-43171429D01*
X5814286Y-38800000D02*
X5842857Y-38828571D01*
X5871429Y-38914285D01*
X5871429Y-38971428D01*
X5842857Y-39057143D01*
X5785714Y-39114285D01*
X5728571Y-39142857D01*
X5614286Y-39171428D01*
X5528571Y-39171428D01*
X5414286Y-39142857D01*
X5357143Y-39114285D01*
X5300000Y-39057143D01*
X5271429Y-38971428D01*
X5271429Y-38914285D01*
X5300000Y-38828571D01*
X5328571Y-38800000D01*
X5871429Y-38542857D02*
X5271429Y-38542857D01*
X5271429Y-38314285D01*
X5300000Y-38257143D01*
X5328571Y-38228571D01*
X5385714Y-38200000D01*
X5471429Y-38200000D01*
X5528571Y-38228571D01*
X5557143Y-38257143D01*
X5585714Y-38314285D01*
X5585714Y-38542857D01*
X5871429Y-37628571D02*
X5871429Y-37971428D01*
X5871429Y-37800000D02*
X5271429Y-37800000D01*
X5357143Y-37857143D01*
X5414286Y-37914285D01*
X5442857Y-37971428D01*
D12*
X41212311Y-31700000D02*
G75*
G03X41212311Y-31700000I-412311J0D01*
G01*
X13400000Y-55600000D02*
X13700000Y-55600000D01*
X13400000Y-57600000D02*
X13400000Y-55600000D01*
X13800000Y-58000000D02*
X13400000Y-57600000D01*
X18000000Y-58000000D02*
X13800000Y-58000000D01*
X18000000Y-55600000D02*
X18000000Y-58000000D01*
X13700000Y-55600000D02*
X18000000Y-55600000D01*
D11*
X40900000Y-29873476D02*
X40581802Y-30191674D01*
X46026524Y-35000000D02*
X45655293Y-35371231D01*
X40900000Y-40126524D02*
X41271231Y-39755293D01*
X35773476Y-35000000D02*
X36144707Y-34628769D01*
X40900000Y-29873476D02*
X41271231Y-30244707D01*
X35773476Y-35000000D02*
X36144707Y-35371231D01*
X40900000Y-40126524D02*
X40528769Y-39755293D01*
X46026524Y-35000000D02*
X45655293Y-34628769D01*
X40581802Y-30191674D02*
X39609530Y-29219402D01*
D13*
X8257460Y-32397480D02*
X1300400Y-32397480D01*
X8260000Y-1602520D02*
X1300400Y-1602520D01*
X581580Y-25128000D02*
X-4498420Y-25128000D01*
X1300400Y-32397480D02*
X1300400Y-1602520D01*
X581580Y-8872000D02*
X-4498420Y-8872000D01*
X-5006420Y-24620000D02*
X-5006420Y-9380000D01*
X-5006420Y-24620000D02*
G75*
G03X-4498420Y-25128000I508000J0D01*
G01*
X-4498420Y-8872000D02*
G75*
G03X-5006420Y-9380000I0J-508000D01*
G01*
X1214040Y-25760460D02*
G75*
G03X581580Y-25128000I-632460J0D01*
G01*
X581580Y-8874540D02*
G75*
G03X1216580Y-8239540I0J635000D01*
G01*
D14*
X38650000Y-17320000D02*
X39650000Y-17320000D01*
X39650000Y-18680000D02*
X38650000Y-18680000D01*
X35890000Y-19475000D02*
X42290000Y-19475000D01*
X35890000Y-24525000D02*
X42290000Y-24525000D01*
X35890000Y-24525000D02*
G75*
G02X35890000Y-19475000I0J2525000D01*
G01*
X42290000Y-24525000D02*
G75*
G03X42290000Y-19475000I0J2525000D01*
G01*
X16400000Y-30150000D02*
X15400000Y-30150000D01*
X15400000Y-31850000D02*
X16400000Y-31850000D01*
X22900000Y-54950000D02*
X21900000Y-54950000D01*
X21900000Y-56650000D02*
X22900000Y-56650000D01*
X6500000Y-42300000D02*
X6500000Y-36500000D01*
X9800000Y-42300000D02*
X9800000Y-36500000D01*
X6500000Y-42300000D02*
X9800000Y-42300000D01*
X19150000Y-45250000D02*
X19150000Y-39450000D01*
X22450000Y-45250000D02*
X22450000Y-39450000D01*
X19150000Y-45250000D02*
X22450000Y-45250000D01*
X23550000Y-45250000D02*
X23550000Y-39450000D01*
X26850000Y-45250000D02*
X26850000Y-39450000D01*
X23550000Y-45250000D02*
X26850000Y-45250000D01*
X27050000Y-35950000D02*
X21250000Y-35950000D01*
X27050000Y-32650000D02*
X21250000Y-32650000D01*
X27050000Y-35950000D02*
X27050000Y-32650000D01*
X41650000Y-5400000D02*
X41650000Y-2200000D01*
X43150000Y-2200000D02*
X43150000Y-5400000D01*
X43150000Y-2200000D02*
X41650000Y-2200000D01*
X21400000Y-57450000D02*
X24600000Y-57450000D01*
X24600000Y-58950000D02*
X21400000Y-58950000D01*
X24600000Y-58950000D02*
X24600000Y-57450000D01*
X28170000Y-47250000D02*
X30830000Y-47250000D01*
X28170000Y-39570000D02*
X28170000Y-47250000D01*
X30830000Y-39570000D02*
X30830000Y-47250000D01*
X28170000Y-39570000D02*
X30830000Y-39570000D01*
X28170000Y-38300000D02*
X28170000Y-36970000D01*
X28170000Y-36970000D02*
X29500000Y-36970000D01*
X31770000Y-47270000D02*
X34430000Y-47270000D01*
X31770000Y-44670000D02*
X31770000Y-47270000D01*
X34430000Y-44670000D02*
X34430000Y-47270000D01*
X31770000Y-44670000D02*
X34430000Y-44670000D01*
X31770000Y-43400000D02*
X31770000Y-42070000D01*
X31770000Y-42070000D02*
X33100000Y-42070000D01*
X40430000Y-48790000D02*
X35230000Y-48790000D01*
X40430000Y-53930000D02*
X40430000Y-48790000D01*
X35230000Y-56530000D02*
X35230000Y-48790000D01*
X40430000Y-53930000D02*
X37830000Y-53930000D01*
X37830000Y-53930000D02*
X37830000Y-56530000D01*
X37830000Y-56530000D02*
X35230000Y-56530000D01*
X40430000Y-55200000D02*
X40430000Y-56530000D01*
X40430000Y-56530000D02*
X39100000Y-56530000D01*
X19670000Y-8130000D02*
X19670000Y-2930000D01*
X17070000Y-8130000D02*
X19670000Y-8130000D01*
X14470000Y-2930000D02*
X19670000Y-2930000D01*
X17070000Y-8130000D02*
X17070000Y-5530000D01*
X17070000Y-5530000D02*
X14470000Y-5530000D01*
X14470000Y-5530000D02*
X14470000Y-2930000D01*
X15800000Y-8130000D02*
X14470000Y-8130000D01*
X14470000Y-8130000D02*
X14470000Y-6800000D01*
X23430000Y-2930000D02*
X20770000Y-2930000D01*
X23430000Y-5530000D02*
X23430000Y-2930000D01*
X20770000Y-5530000D02*
X20770000Y-2930000D01*
X23430000Y-5530000D02*
X20770000Y-5530000D01*
X23430000Y-6800000D02*
X23430000Y-8130000D01*
X23430000Y-8130000D02*
X22100000Y-8130000D01*
X45500000Y-50800000D02*
X45500000Y-55300000D01*
X49500000Y-49550000D02*
X48000000Y-49550000D01*
X52000000Y-55300000D02*
X52000000Y-50800000D01*
X48000000Y-56550000D02*
X49500000Y-56550000D01*
X17310000Y-35590000D02*
X16050000Y-35590000D01*
X10490000Y-35590000D02*
X11750000Y-35590000D01*
X17310000Y-39350000D02*
X17310000Y-35590000D01*
X10490000Y-41600000D02*
X10490000Y-35590000D01*
X19990000Y-52210000D02*
X21250000Y-52210000D01*
X26810000Y-52210000D02*
X25550000Y-52210000D01*
X19990000Y-48450000D02*
X19990000Y-52210000D01*
X26810000Y-46200000D02*
X26810000Y-52210000D01*
D11*
X24475000Y-28825000D02*
X24475000Y-28775000D01*
X20325000Y-28825000D02*
X20325000Y-28680000D01*
X20325000Y-23675000D02*
X20325000Y-23820000D01*
X24475000Y-23675000D02*
X24475000Y-23820000D01*
X24475000Y-28825000D02*
X20325000Y-28825000D01*
X24475000Y-23675000D02*
X20325000Y-23675000D01*
X24475000Y-28775000D02*
X25875000Y-28775000D01*
X24475000Y-14575000D02*
X24475000Y-14525000D01*
X20325000Y-14575000D02*
X20325000Y-14430000D01*
X20325000Y-9425000D02*
X20325000Y-9570000D01*
X24475000Y-9425000D02*
X24475000Y-9570000D01*
X24475000Y-14575000D02*
X20325000Y-14575000D01*
X24475000Y-9425000D02*
X20325000Y-9425000D01*
X24475000Y-14525000D02*
X25875000Y-14525000D01*
D14*
X35420000Y-14800000D02*
X34950000Y-14800000D01*
X34950000Y-14800000D02*
X34950000Y-11200000D01*
X34950000Y-11200000D02*
X35420000Y-11200000D01*
X41050000Y-14800000D02*
X37250000Y-14800000D01*
X43350000Y-13500000D02*
X43350000Y-14800000D01*
X43350000Y-11200000D02*
X43350000Y-12500000D01*
X43350000Y-14800000D02*
X42880000Y-14800000D01*
X43350000Y-11200000D02*
X42880000Y-11200000D01*
X37250000Y-11200000D02*
X41050000Y-11200000D01*
X43350000Y-12500000D02*
G75*
G03X43350000Y-13500000I0J-500000D01*
G01*
X44480000Y-54800000D02*
X44480000Y-55800000D01*
X43120000Y-55800000D02*
X43120000Y-54800000D01*
X45380000Y-3900000D02*
X45380000Y-4900000D01*
X44020000Y-4900000D02*
X44020000Y-3900000D01*
X26600000Y-57520000D02*
X27600000Y-57520000D01*
X27600000Y-58880000D02*
X26600000Y-58880000D01*
X42680000Y-51100000D02*
X42680000Y-52100000D01*
X41320000Y-52100000D02*
X41320000Y-51100000D01*
X32920000Y-52100000D02*
X32920000Y-51100000D01*
X34280000Y-51100000D02*
X34280000Y-52100000D01*
X28150000Y-27820000D02*
X29150000Y-27820000D01*
X29150000Y-29180000D02*
X28150000Y-29180000D01*
X28150000Y-13570000D02*
X29150000Y-13570000D01*
X29150000Y-14930000D02*
X28150000Y-14930000D01*
X28150000Y-26320000D02*
X29150000Y-26320000D01*
X29150000Y-27680000D02*
X28150000Y-27680000D01*
X28150000Y-12070000D02*
X29150000Y-12070000D01*
X29150000Y-13430000D02*
X28150000Y-13430000D01*
X28150000Y-24820000D02*
X29150000Y-24820000D01*
X29150000Y-26180000D02*
X28150000Y-26180000D01*
X28150000Y-10570000D02*
X29150000Y-10570000D01*
X29150000Y-11930000D02*
X28150000Y-11930000D01*
X28150000Y-23320000D02*
X29150000Y-23320000D01*
X29150000Y-24680000D02*
X28150000Y-24680000D01*
X28150000Y-9070000D02*
X29150000Y-9070000D01*
X29150000Y-10430000D02*
X28150000Y-10430000D01*
X15400000Y-23570000D02*
X16400000Y-23570000D01*
X16400000Y-24930000D02*
X15400000Y-24930000D01*
X16400000Y-28930000D02*
X15400000Y-28930000D01*
X15400000Y-27570000D02*
X16400000Y-27570000D01*
X15400000Y-9320000D02*
X16400000Y-9320000D01*
X16400000Y-10680000D02*
X15400000Y-10680000D01*
X16400000Y-14680000D02*
X15400000Y-14680000D01*
X15400000Y-13320000D02*
X16400000Y-13320000D01*
X16400000Y-26930000D02*
X15400000Y-26930000D01*
X15400000Y-25570000D02*
X16400000Y-25570000D01*
X15400000Y-11320000D02*
X16400000Y-11320000D01*
X16400000Y-12680000D02*
X15400000Y-12680000D01*
X33571751Y-30876777D02*
X33076777Y-31371751D01*
X32228249Y-30523223D02*
X32723223Y-30028249D01*
X47950000Y-46800000D02*
X48650000Y-46800000D01*
X48650000Y-48000000D02*
X47950000Y-48000000D01*
X48871751Y-38676777D02*
X48376777Y-39171751D01*
X47528249Y-38323223D02*
X48023223Y-37828249D01*
X40450000Y-42200000D02*
X41150000Y-42200000D01*
X41150000Y-43400000D02*
X40450000Y-43400000D01*
X41250000Y-27400000D02*
X40550000Y-27400000D01*
X40550000Y-26200000D02*
X41250000Y-26200000D01*
X31550000Y-23350000D02*
X31550000Y-22650000D01*
X32750000Y-22650000D02*
X32750000Y-23350000D01*
X45550000Y-23350000D02*
X45550000Y-22650000D01*
X46750000Y-22650000D02*
X46750000Y-23350000D01*
X44050000Y-12350000D02*
X44050000Y-11650000D01*
X45250000Y-11650000D02*
X45250000Y-12350000D01*
X33050000Y-12350000D02*
X33050000Y-11650000D01*
X34250000Y-11650000D02*
X34250000Y-12350000D01*
X19770000Y-22630000D02*
X19770000Y-17430000D01*
X17170000Y-22630000D02*
X19770000Y-22630000D01*
X14570000Y-17430000D02*
X19770000Y-17430000D01*
X17170000Y-22630000D02*
X17170000Y-20030000D01*
X17170000Y-20030000D02*
X14570000Y-20030000D01*
X14570000Y-20030000D02*
X14570000Y-17430000D01*
X15900000Y-22630000D02*
X14570000Y-22630000D01*
X14570000Y-22630000D02*
X14570000Y-21300000D01*
X23530000Y-17430000D02*
X20870000Y-17430000D01*
X23530000Y-20030000D02*
X23530000Y-17430000D01*
X20870000Y-20030000D02*
X20870000Y-17430000D01*
X23530000Y-20030000D02*
X20870000Y-20030000D01*
X23530000Y-21300000D02*
X23530000Y-22630000D01*
X23530000Y-22630000D02*
X22200000Y-22630000D01*
X31830000Y-4770000D02*
X31830000Y-7430000D01*
X34430000Y-4770000D02*
X31830000Y-4770000D01*
X34430000Y-7430000D02*
X31830000Y-7430000D01*
X34430000Y-4770000D02*
X34430000Y-7430000D01*
X35700000Y-4770000D02*
X37030000Y-4770000D01*
X37030000Y-4770000D02*
X37030000Y-6100000D01*
X31830000Y-1170000D02*
X31830000Y-3830000D01*
X34430000Y-1170000D02*
X31830000Y-1170000D01*
X34430000Y-3830000D02*
X31830000Y-3830000D01*
X34430000Y-1170000D02*
X34430000Y-3830000D01*
X35700000Y-1170000D02*
X37030000Y-1170000D01*
X37030000Y-1170000D02*
X37030000Y-2500000D01*
X56930000Y-56730000D02*
X56930000Y-5870000D01*
X56930000Y-5870000D02*
X54270000Y-5870000D01*
X54270000Y-5870000D02*
X54270000Y-56730000D01*
X54270000Y-56730000D02*
X56930000Y-56730000D01*
X56930000Y-58000000D02*
X56930000Y-59330000D01*
X56930000Y-59330000D02*
X55600000Y-59330000D01*
X10050000Y-55300000D02*
X10050000Y-56150000D01*
X10050000Y-56150000D02*
X-3050000Y-56150000D01*
X-3050000Y-56150000D02*
X-3050000Y-51200000D01*
X10050000Y-47100000D02*
X10050000Y-46250000D01*
X10050000Y-46250000D02*
X-3050000Y-46250000D01*
X-3050000Y-46250000D02*
X-3050000Y-51200000D01*
X12800000Y-53600000D02*
X14700000Y-53600000D01*
X12800000Y-53000000D02*
X14700000Y-53000000D01*
X12800000Y-49400000D02*
X14700000Y-49400000D01*
X12800000Y-48800000D02*
X14700000Y-48800000D01*
X10000000Y-51500000D02*
X10000000Y-50900000D01*
X11000000Y-55300000D02*
X11300000Y-55900000D01*
X11300000Y-55900000D02*
X10700000Y-55900000D01*
X10700000Y-55900000D02*
X11000000Y-55300000D01*
M02*
