M48
INCH,TZ
T1C0.016
T2C0.030
T3C0.031
T4C0.039
T5C0.040
T6C0.043
T7C0.071
T8C0.130
%
G90
G05
T1
X5167Y-9921
X5374Y-4331
X6535Y-14528
X7205Y-16850
X8327Y-4528
X8425Y-10404
X8937Y-5827
X10069Y-3386
X10256Y-8967
X10394Y-11890
X10472Y-7717
X10866Y-3228
X11142Y-8819
X12362Y-13740
X12598Y-19882
X13228Y-3504
X13268Y-12874
X13740Y-13780
X14449Y-10276
X14764Y-10866
X15118Y-9921
X15197Y-16457
X15433Y-5197
X15551Y-12953
X15748Y-1535
X16142Y-15157
X16299Y-14213
X16378Y-14646
X16732Y-13110
X17126Y-14055
X17323Y-10197
X17480Y-18701
X17598Y-2992
X17717Y-15512
X18110Y-15827
X18543Y-13937
X18583Y-12756
X18780Y-3504
X18898Y-14331
X19094Y-12323
X19291Y-15630
X19449Y-12677
T2
X22890Y-835
X22890Y-1835
X22890Y-2835
X22890Y-3835
X22890Y-4835
X22890Y-5835
X22890Y-6835
X22890Y-7835
X22890Y-8835
X22890Y-9835
X22890Y-10835
X22890Y-11835
X22890Y-12835
X22890Y-13835
X22890Y-14835
X22890Y-15835
X22890Y-16835
X22890Y-17835
X22890Y-18835
X22890Y-19835
X22890Y-20835
X22890Y-21835
X22890Y-22835
X23890Y-835
X23890Y-1835
X23890Y-2835
X23890Y-3835
X23890Y-4835
X23890Y-5835
X23890Y-6835
X23890Y-7835
X23890Y-8835
X23890Y-9835
X23890Y-10835
X23890Y-11835
X23890Y-12835
X23890Y-13835
X23890Y-14835
X23890Y-15835
X23890Y-16835
X23890Y-17835
X23890Y-18835
X23890Y-19835
X23890Y-20835
X23890Y-21835
X23890Y-22835
X24890Y-835
X24890Y-1835
X24890Y-2835
X24890Y-3835
X24890Y-4835
X24890Y-5835
X24890Y-6835
X24890Y-7835
X24890Y-8835
X24890Y-9835
X24890Y-10835
X24890Y-11835
X24890Y-12835
X24890Y-13835
X24890Y-14835
X24890Y-15835
X24890Y-16835
X24890Y-17835
X24890Y-18835
X24890Y-19835
X24890Y-20835
X24890Y-21835
X24890Y-22835
X25890Y-835
X25890Y-1835
X25890Y-2835
X25890Y-3835
X25890Y-4835
X25890Y-5835
X25890Y-6835
X25890Y-7835
X25890Y-8835
X25890Y-9835
X25890Y-10835
X25890Y-11835
X25890Y-12835
X25890Y-13835
X25890Y-14835
X25890Y-15835
X25890Y-16835
X25890Y-17835
X25890Y-18835
X25890Y-19835
X25890Y-20835
X25890Y-21835
X25890Y-22835
X26890Y-835
X26890Y-1835
X26890Y-2835
X26890Y-3835
X26890Y-4835
X26890Y-5835
X26890Y-6835
X26890Y-7835
X26890Y-8835
X26890Y-9835
X26890Y-10835
X26890Y-11835
X26890Y-12835
X26890Y-13835
X26890Y-14835
X26890Y-15835
X26890Y-16835
X26890Y-17835
X26890Y-18835
X26890Y-19835
X26890Y-20835
X26890Y-21835
X26890Y-22835
X27890Y-835
X27890Y-1835
X27890Y-2835
X27890Y-3835
X27890Y-4835
X27890Y-5835
X27890Y-6835
X27890Y-7835
X27890Y-8835
X27890Y-9835
X27890Y-10835
X27890Y-11835
X27890Y-12835
X27890Y-13835
X27890Y-14835
X27890Y-15835
X27890Y-16835
X27890Y-17835
X27890Y-18835
X27890Y-19835
X27890Y-20835
X27890Y-21835
X27890Y-22835
X28890Y-835
X28890Y-1835
X28890Y-2835
X28890Y-3835
X28890Y-4835
X28890Y-5835
X28890Y-6835
X28890Y-7835
X28890Y-8835
X28890Y-9835
X28890Y-10835
X28890Y-11835
X28890Y-12835
X28890Y-13835
X28890Y-14835
X28890Y-15835
X28890Y-16835
X28890Y-17835
X28890Y-18835
X28890Y-19835
X28890Y-20835
X28890Y-21835
X28890Y-22835
X29890Y-835
X29890Y-1835
X29890Y-2835
X29890Y-3835
X29890Y-4835
X29890Y-5835
X29890Y-6835
X29890Y-7835
X29890Y-8835
X29890Y-9835
X29890Y-10835
X29890Y-11835
X29890Y-12835
X29890Y-13835
X29890Y-14835
X29890Y-15835
X29890Y-16835
X29890Y-17835
X29890Y-18835
X29890Y-19835
X29890Y-20835
X29890Y-21835
X29890Y-22835
X30890Y-835
X30890Y-1835
X30890Y-2835
X30890Y-3835
X30890Y-4835
X30890Y-5835
X30890Y-6835
X30890Y-7835
X30890Y-8835
X30890Y-9835
X30890Y-10835
X30890Y-11835
X30890Y-12835
X30890Y-13835
X30890Y-14835
X30890Y-15835
X30890Y-16835
X30890Y-17835
X30890Y-18835
X30890Y-19835
X30890Y-20835
X30890Y-21835
X30890Y-22835
X31890Y-835
X31890Y-1835
X31890Y-2835
X31890Y-3835
X31890Y-4835
X31890Y-5835
X31890Y-6835
X31890Y-7835
X31890Y-8835
X31890Y-9835
X31890Y-10835
X31890Y-11835
X31890Y-12835
X31890Y-13835
X31890Y-14835
X31890Y-15835
X31890Y-16835
X31890Y-17835
X31890Y-18835
X31890Y-19835
X31890Y-20835
X31890Y-21835
X31890Y-22835
X32890Y-1835
X32890Y-2835
X32890Y-3835
X32890Y-4835
X32890Y-5835
X32890Y-6835
X32890Y-7835
X32890Y-8835
X32890Y-9835
X32890Y-10835
X32890Y-11835
X32890Y-12835
X32890Y-13835
X32890Y-14835
X32890Y-15835
X32890Y-16835
X32890Y-17835
X32890Y-18835
X32890Y-19835
X32890Y-20835
X32890Y-21835
T3
X14429Y-8661
X16350Y-8661
T4
X6220Y-1677
X6220Y-2677
X6260Y-7386
X6260Y-8386
X7220Y-1677
X7220Y-2677
X7260Y-7386
X7260Y-8386
X8701Y-1677
X8701Y-2677
X8740Y-7386
X8740Y-8386
X11614Y-15079
X11614Y-16079
X11614Y-17079
X11614Y-18079
X13031Y-17087
X13031Y-18087
X13055Y-984
X13055Y-2402
X14055Y-984
X14055Y-2402
X14394Y-19732
X14394Y-20732
X14394Y-21732
X15394Y-19732
X15394Y-20732
X15394Y-21732
X21890Y-2835
X21890Y-3835
X21890Y-4835
X21890Y-5835
X21890Y-6835
X21890Y-7835
X21890Y-8835
X21890Y-9835
X21890Y-10835
X21890Y-11835
X21890Y-12835
X21890Y-13835
X21890Y-14835
X21890Y-15835
X21890Y-16835
X21890Y-17835
X21890Y-18835
X21890Y-19835
X21890Y-20835
X21890Y-21835
X21890Y-22835
T5
X3772Y-5060
X3772Y-6150
X3772Y-7236
X3772Y-8326
X4890Y-4512
X4890Y-5603
X4890Y-6693
X4890Y-7783
X4890Y-8874
T6
X18307Y-19606
X18307Y-22165
X20079Y-19606
X20079Y-22165
T7
X1969Y-18720
X1969Y-20965
X4134Y-18720
X4134Y-20965
T8
X4331Y-1772
X4331Y-11614
T0
M30
