<?xml version="1.0" encoding="utf-8"?>
<!-- Generator: Adobe Illustrator 19.0.0, SVG Export Plug-In . SVG Version: 6.00 Build 0)  -->
<svg version="1.1" id="Capa_1" xmlns="http://www.w3.org/2000/svg" xmlns:xlink="http://www.w3.org/1999/xlink" x="0px" y="0px"
	 viewBox="116 265.2 828.7 310.7" style="enable-background:new 116 265.2 828.7 310.7;" xml:space="preserve">
<style type="text/css">
	.st0{display:none;}
	.st1{display:inline;fill:#1E1E1E;}
	.st2{display:inline;}
	.st3{fill:none;stroke:#26A4C6;stroke-width:3;stroke-miterlimit:10;}
	.st4{fill:#1E1E1E;}
	.st5{fill:url(#SVGID_1_);stroke:#26A4C6;stroke-width:3;stroke-miterlimit:10;}
	.st6{opacity:0.26;fill:none;stroke:#616768;stroke-width:5;stroke-miterlimit:10;enable-background:new    ;}
	.st7{opacity:0.26;fill:none;stroke:#616768;stroke-width:0.5;stroke-miterlimit:10;enable-background:new    ;}
	.st8{fill:none;}
	.st9{fill:#AECED1;}
	.st10{font-family:'Verdana-Italic';}
	.st11{font-size:11px;}
	.st12{font-size:7px;}
	.st13{display:inline;fill:#CDF3F9;}
	.st14{display:inline;fill:#58D3E0;}
	.st15{display:inline;fill:#CE5300;}
	.st16{display:inline;fill:#843500;}
	.st17{display:inline;fill:#EF2511;}
	.st18{display:inline;fill:#6B0000;}
	.st19{fill:none;stroke:#CDF3F9;stroke-width:2;stroke-miterlimit:10;}
	.st20{fill:none;stroke:#58D3E0;stroke-width:3;stroke-miterlimit:10;}
	.st21{fill:none;stroke:#CE5300;stroke-width:3;stroke-miterlimit:10;}
	.st22{fill:none;stroke:#843500;stroke-width:2;stroke-miterlimit:10;}
	.st23{fill:none;stroke:#EF2511;stroke-width:3;stroke-miterlimit:10;}
	.st24{fill:none;stroke:#6B0000;stroke-width:2;stroke-miterlimit:10;}
	.st25{fill:none;stroke:#155B6B;stroke-width:8;stroke-miterlimit:10;}
	.st26{fill:none;stroke:#26A4C6;stroke-width:8;stroke-miterlimit:10;}
	.st27{fill:#26A4C6;}
	.st28{font-family:'Verdana';}
	.st29{font-size:8px;}
	.st30{font-size:6px;}
	.st31{display:inline;fill:none;stroke:#26A4C6;stroke-miterlimit:10;}
	.st32{display:inline;fill:none;stroke:#55E9F9;stroke-width:2;stroke-miterlimit:10;}
	.st33{fill:none;stroke:#55E9F9;stroke-width:2;stroke-miterlimit:10;}
	.st34{fill:none;stroke:#26A4C6;stroke-miterlimit:10;}
	.st35{display:inline;fill:none;stroke:#C10000;stroke-miterlimit:10;}
	.st36{display:inline;fill:none;stroke:#AD6423;stroke-miterlimit:10;}
</style>
<g id="Capa_10" class="st0">
	<rect x="116" y="265.2" class="st1" width="828.7" height="310.7"/>
</g>
<g id="Capa_21" class="st0">
	<g id="Capa_3" class="st2">
		<g id="Capa_2">
			<g id="Capa_6_copia">
				<path class="st3" d="M417.6,420.6c0-62.2,50.4-112.7,112.7-112.7S643,364,643,420.6c0,62.2-50.4,112.7-112.7,112.7
					S417.6,482.8,417.6,420.6z"/>
			</g>
			<g id="Capa_10_copia">
				<rect x="433.3" y="488.6" class="st4" width="193.7" height="87.6"/>
			</g>
		</g>
		<g id="Capa_7">
			
				<linearGradient id="SVGID_1_" gradientUnits="userSpaceOnUse" x1="530.25" y1="562.48" x2="530.25" y2="289.58" gradientTransform="matrix(1 0 0 -1 0 840.27)">
				<stop  offset="0" style="stop-color:#1F1F1F;stop-opacity:0.1"/>
				<stop  offset="0.263" style="stop-color:#1F2122;stop-opacity:0.1"/>
				<stop  offset="0.4212" style="stop-color:#1D292A;stop-opacity:0.1"/>
				<stop  offset="0.5517" style="stop-color:#1A3638;stop-opacity:0.1"/>
				<stop  offset="0.6671" style="stop-color:#16494D;stop-opacity:0.1"/>
				<stop  offset="0.7725" style="stop-color:#116167;stop-opacity:0.1"/>
				<stop  offset="0.8708" style="stop-color:#0B7F87;stop-opacity:0.1"/>
				<stop  offset="0.9616" style="stop-color:#04A1AD;stop-opacity:0.1"/>
				<stop  offset="1" style="stop-color:#00B2BF;stop-opacity:0.1"/>
			</linearGradient>
			<path class="st5" d="M530.3,487.8H620c11.3,0,21.9,5.4,28.4,14.7l23.3,37.6c4,6.1,10.7,10.6,18,10.6h128.5
				c26,0,34.6-8.7,52.1-28.5c22.7-25.6,60.2-106.4,60.2-106.4c10.1-28.2,2.9-39.1-16.4-50c-37.6-21.3-131.8-67-156.8-72.6
				c-55.3-12.3-170.4-15.4-227-15.4s-171.7,3.1-227,15.4c-25,5.6-119.2,51.3-156.9,72.5c-19.3,10.9-26.5,21.8-16.4,50
				c0,0,37.5,80.8,60.2,106.4c17.5,19.7,26.1,28.5,52.1,28.5h128.5c7.3,0,14-4.5,18-10.6l23.3-37.6c6.5-9.3,17.1-14.7,28.4-14.7
				h89.8"/>
			<g id="Capa_6">
				<path class="st4" d="M440.6,486.4c-14.2-18.7-21.4-40.5-21.4-65.7c0-61.4,49.8-111.1,111.1-111.1s111.1,55.3,111.1,111.1
					c0,25.3-7.2,47.1-21.4,65.8"/>
			</g>
			<g id="Capa_19">
				<path class="st6" d="M455.6,484.3c-14.8-17.2-23.5-39.3-23.5-63.7c0-54.2,44-98.2,98.2-98.2s98.2,44,98.2,98.2
					c0,24.4-8.7,46.6-23.5,63.7"/>
				<path class="st7" d="M458.7,481.9c-14.2-16.5-22.6-37.8-22.6-61.2c0-52.1,42.3-94.4,94.4-94.4s94.4,42.3,94.4,94.4
					c0,23.5-8.4,44.8-22.6,61.3"/>
			</g>
			<path class="st3" d="M530.3,307.9c-56.5,0-172.1,10-227,15.4c-10.5,1-28.7-15.9-39.2-15.4"/>
			<path class="st3" d="M530.3,307.9c56.5,0,172.1,10,227,15.4c10.5,1,28.7-15.9,39.2-15.4"/>
		</g>
		<g id="Capa_11">
			<rect x="507.9" y="437" class="st8" width="47.5" height="18.3"/>
			<text transform="matrix(1 0 0 1 517.0664 445.3778)" class="st9 st10 st11">km/h</text>
			<rect x="439.8" y="466.8" class="st8" width="9.5" height="9.1"/>
			<text transform="matrix(1 0 0 1 442.2881 472.0885)" class="st9 st10 st12">0</text>
			<rect x="425.3" y="407" class="st8" width="15.7" height="9.1"/>
			<text transform="matrix(1 0 0 1 428.6677 412.3547)" class="st9 st10 st12">40</text>
			<rect x="442.6" y="352.4" class="st8" width="28.5" height="16.1"/>
			<text transform="matrix(1 0 0 1 452.4229 357.6659)" class="st9 st10 st12">80</text>
			<rect x="485.4" y="324.8" class="st8" width="28.5" height="16.1"/>
			<text transform="matrix(1 0 0 1 492.9701 330.122)" class="st9 st10 st12">120</text>
			<rect x="544.9" y="324.8" class="st8" width="28.5" height="16.1"/>
			<text transform="matrix(1 0 0 1 552.5406 330.122)" class="st9 st10 st12">160</text>
			<rect x="587.9" y="352.4" class="st8" width="28.5" height="16.1"/>
			<text transform="matrix(1 0 0 1 595.5025 357.6659)" class="st9 st10 st12">200</text>
			<rect x="611.9" y="407.8" class="st8" width="28.5" height="16.1"/>
			<text transform="matrix(1 0 0 1 619.4835 413.1205)" class="st9 st10 st12">240</text>
			<rect x="599.3" y="467.6" class="st8" width="28.5" height="16.1"/>
			<text transform="matrix(1 0 0 1 606.9022 472.8814)" class="st9 st10 st12">280</text>
		</g>
		<g id="Capa_9" class="st0">
			<circle class="st13" cx="425.3" cy="431" r="1.1"/>
			<circle class="st13" cx="424.8" cy="424.1" r="1.1"/>
			<circle class="st13" cx="424.8" cy="417.2" r="1.1"/>
			<circle class="st14" cx="425.3" cy="410.3" r="1.7"/>
			<circle class="st13" cx="426.2" cy="403.4" r="1.1"/>
			<circle class="st13" cx="427.5" cy="396.6" r="1.1"/>
			<circle class="st13" cx="429.3" cy="390" r="1.1"/>
			<circle class="st13" cx="431.5" cy="383.4" r="1.1"/>
			<circle class="st13" cx="434.2" cy="377.1" r="1.1"/>
			<circle class="st13" cx="437.2" cy="370.9" r="1.1"/>
			<circle class="st13" cx="440.7" cy="364.9" r="1.1"/>
			<circle class="st13" cx="444.5" cy="359.1" r="1.1"/>
			<circle class="st14" cx="448.7" cy="353.6" r="1.7"/>
			<circle class="st13" cx="453.3" cy="348.5" r="1.1"/>
			<circle class="st13" cx="458.1" cy="343.6" r="1.1"/>
			<circle class="st13" cx="463.3" cy="339" r="1.1"/>
			<circle class="st13" cx="468.8" cy="334.8" r="1.1"/>
			<circle class="st13" cx="474.6" cy="331" r="1.1"/>
			<circle class="st13" cx="480.5" cy="327.5" r="1.1"/>
			<circle class="st13" cx="486.7" cy="324.5" r="1.1"/>
			<circle class="st13" cx="493.1" cy="321.8" r="1.1"/>
			<circle class="st15" cx="499.6" cy="319.6" r="1.7"/>
			<circle class="st16" cx="506.3" cy="317.8" r="1.1"/>
			<circle class="st16" cx="513.1" cy="316.4" r="1.1"/>
			<circle class="st16" cx="519.9" cy="315.5" r="1.1"/>
			<circle class="st16" cx="526.8" cy="315.1" r="1.1"/>
			<circle class="st16" cx="533.7" cy="315.1" r="1.1"/>
			<circle class="st16" cx="540.6" cy="315.5" r="1.1"/>
			<circle class="st16" cx="547.5" cy="316.4" r="1.1"/>
			<circle class="st16" cx="554.2" cy="317.8" r="1.1"/>
			<circle class="st15" cx="560.9" cy="319.6" r="1.7"/>
			<circle class="st16" cx="567.5" cy="321.8" r="1.1"/>
			<circle class="st16" cx="573.8" cy="324.4" r="1.1"/>
			<circle class="st16" cx="580" cy="327.5" r="1.1"/>
			<circle class="st16" cx="586" cy="330.9" r="1.1"/>
			<circle class="st16" cx="591.8" cy="334.8" r="1.1"/>
			<circle class="st16" cx="597.2" cy="339" r="1.1"/>
			<circle class="st16" cx="602.4" cy="343.5" r="1.1"/>
			<circle class="st16" cx="607.3" cy="348.4" r="1.1"/>
			<circle class="st17" cx="611.9" cy="353.6" r="1.7"/>
			<circle class="st18" cx="616.1" cy="359.1" r="1.1"/>
			<circle class="st18" cx="619.9" cy="364.8" r="1.1"/>
			<circle class="st18" cx="623.4" cy="370.8" r="1.1"/>
			<circle class="st18" cx="626.4" cy="377" r="1.1"/>
			<circle class="st18" cx="629.1" cy="383.3" r="1.1"/>
			<circle class="st18" cx="631.3" cy="389.9" r="1.1"/>
			<circle class="st18" cx="633.1" cy="396.6" r="1.1"/>
			<circle class="st18" cx="634.4" cy="403.3" r="1.1"/>
			<circle class="st17" cx="635.3" cy="410.2" r="1.7"/>
			<circle class="st18" cx="635.8" cy="417.1" r="1.1"/>
			<circle class="st18" cx="635.8" cy="424" r="1.1"/>
			<circle class="st18" cx="635.4" cy="430.9" r="1.1"/>
			<circle class="st18" cx="634.5" cy="437.7" r="1.1"/>
			<circle class="st18" cx="633.1" cy="444.5" r="1.1"/>
			<circle class="st18" cx="631.3" cy="451.2" r="1.1"/>
			<circle class="st18" cx="629.1" cy="457.7" r="1.1"/>
			<circle class="st18" cx="626.5" cy="464.1" r="1.1"/>
			<circle class="st17" cx="623.4" cy="470.3" r="1.7"/>
			<circle class="st14" cx="437.3" cy="470.4" r="1.7"/>
			<circle class="st13" cx="434.2" cy="464.2" r="1.1"/>
			<circle class="st13" cx="431.6" cy="457.8" r="1.1"/>
			<circle class="st13" cx="429.3" cy="451.2" r="1.1"/>
			<circle class="st13" cx="427.6" cy="444.6" r="1.1"/>
			<circle class="st13" cx="426.2" cy="437.8" r="1.1"/>
		</g>
		<g id="Capa_23">
			<polyline class="st19" points="422.3,417.1 424.9,417.2 427.6,417.3 			"/>
			<polyline class="st20" points="422.7,410 425.4,410.3 428,410.5 			"/>
			<polyline class="st19" points="423.7,403 426.3,403.4 428.9,403.9 			"/>
			<polyline class="st19" points="425.1,396 427.7,396.6 430.2,397.2 			"/>
			<polyline class="st19" points="426.9,389.2 429.5,390 432,390.7 			"/>
			<polyline class="st19" points="429.2,382.5 431.7,383.4 434.2,384.4 			"/>
			<polyline class="st19" points="431.9,376 434.3,377 436.7,378.1 			"/>
			<polyline class="st19" points="435.1,369.6 437.4,370.9 439.7,372.1 			"/>
			<polyline class="st19" points="438.6,363.5 440.9,364.9 443.1,366.3 			"/>
			<polyline class="st19" points="442.6,357.6 444.7,359.1 446.9,360.7 			"/>
			<polyline class="st20" points="446.9,352 448.9,353.6 451,355.3 			"/>
			<polyline class="st19" points="451.6,346.6 453.5,348.5 455.4,350.3 			"/>
			<polyline class="st19" points="456.6,341.6 458.4,343.6 460.2,345.5 			"/>
			<polyline class="st19" points="461.9,337 463.6,339 465.3,341.1 			"/>
			<polyline class="st19" points="467.5,332.7 469.1,334.8 470.6,337 			"/>
			<polyline class="st19" points="473.4,328.7 474.8,331 476.2,333.2 			"/>
			<polyline class="st19" points="479.6,325.2 480.8,327.5 482.1,329.9 			"/>
			<polyline class="st19" points="485.9,322.1 487,324.5 488.1,326.9 			"/>
			<polyline class="st19" points="492.5,319.4 493.4,321.9 494.3,324.3 			"/>
			<polyline class="st21" points="499.2,317.1 500,319.6 500.7,322.2 			"/>
			<polyline class="st22" points="506,315.3 506.6,317.9 507.2,320.4 			"/>
			<polyline class="st22" points="513,313.9 513.4,316.5 513.9,319.1 			"/>
			<polyline class="st22" points="520,313 520.3,315.6 520.5,318.3 			"/>
			<polyline class="st22" points="527.1,312.5 527.2,315.2 527.3,317.8 			"/>
			<polyline class="st22" points="534.2,312.5 534.1,315.2 534,317.8 			"/>
			<polyline class="st22" points="541.2,313 541,315.7 540.7,318.3 			"/>
			<polyline class="st22" points="548.3,313.9 547.8,316.6 547.4,319.2 			"/>
			<polyline class="st22" points="555.2,315.3 554.6,317.9 554,320.5 			"/>
			<polyline class="st21" points="562.1,317.2 561.3,319.7 560.5,322.2 			"/>
			<polyline class="st22" points="568.8,319.5 567.8,321.9 566.9,324.4 			"/>
			<polyline class="st22" points="575.3,322.2 574.2,324.6 573.1,327 			"/>
			<polyline class="st22" points="581.7,325.3 580.4,327.7 579.2,330 			"/>
			<polyline class="st22" points="587.8,328.9 586.4,331.1 585,333.4 			"/>
			<polyline class="st22" points="593.7,332.8 592.1,335 590.6,337.1 			"/>
			<polyline class="st22" points="599.3,337.1 597.6,339.2 595.9,341.2 			"/>
			<polyline class="st22" points="604.6,341.8 602.8,343.8 601,345.7 			"/>
			<polyline class="st22" points="609.6,346.8 607.7,348.6 605.8,350.5 			"/>
			<polyline class="st23" points="614.3,352.2 612.2,353.9 610.2,355.5 			"/>
			<polyline class="st24" points="618.6,357.8 616.4,359.3 614.3,360.9 			"/>
			<polyline class="st24" points="622.5,363.7 620.3,365.1 618,366.5 			"/>
			<polyline class="st24" points="626.1,369.8 623.7,371.1 621.4,372.3 			"/>
			<polyline class="st24" points="629.2,376.2 626.8,377.3 624.4,378.4 			"/>
			<polyline class="st24" points="631.9,382.7 629.4,383.7 626.9,384.6 			"/>
			<polyline class="st24" points="634.2,389.5 631.6,390.2 629.1,391 			"/>
			<polyline class="st24" points="636,396.3 633.4,396.9 630.8,397.5 			"/>
			<polyline class="st24" points="637.4,403.3 634.7,403.7 632.1,404.1 			"/>
			<polyline class="st23" points="638.3,410.3 635.6,410.5 633,410.8 			"/>
			<polyline class="st24" points="638.7,417.3 636.1,417.4 633.4,417.5 			"/>
			<polyline class="st24" points="638.7,424.4 636.1,424.3 633.4,424.3 			"/>
			<polyline class="st24" points="638.3,431.5 635.6,431.2 633,431 			"/>
			<polyline class="st24" points="637.3,438.5 634.7,438.1 632.1,437.7 			"/>
			<polyline class="st24" points="635.9,445.5 633.3,444.9 630.8,444.3 			"/>
			<polyline class="st24" points="634.1,452.3 631.5,451.6 629,450.8 			"/>
			<polyline class="st24" points="631.8,459 629.3,458.1 626.8,457.2 			"/>
			<polyline class="st24" points="629.1,465.6 626.7,464.5 624.3,463.4 			"/>
			<polyline class="st23" points="625.9,471.9 623.6,470.7 621.3,469.4 			"/>
			<polyline class="st19" points="593.5,508.9 591.9,506.7 590.4,504.6 			"/>
			<polyline class="st20" points="434.9,471.7 437.3,470.4 439.6,469.2 			"/>
			<polyline class="st19" points="431.8,465.3 434.2,464.2 436.6,463.1 			"/>
			<polyline class="st19" points="429.1,458.8 431.6,457.9 434.1,456.9 			"/>
			<polyline class="st19" points="426.8,452.1 429.4,451.3 431.9,450.5 			"/>
			<polyline class="st19" points="425,445.2 427.6,444.6 430.2,444 			"/>
			<polyline class="st19" points="423.6,438.3 426.3,437.8 428.9,437.4 			"/>
			<polyline class="st19" points="422.7,431.2 425.4,431 428,430.7 			"/>
			<polyline class="st19" points="422.3,424.2 424.9,424.1 427.6,424 			"/>
		</g>
		<g id="Capa_20">
		</g>
		<line class="st25" x1="595.8" y1="506.9" x2="467.5" y2="506.9"/>
		<line class="st26" x1="595.7" y1="506.9" x2="467.5" y2="506.9"/>
		<path class="st27" d="M429.6,505.4c-0.1-0.1-0.2-0.2-0.4-0.2h-3l0.4-4.7c0-0.2-0.1-0.4-0.3-0.4c-0.2-0.1-0.4,0-0.5,0.2l-4.7,7.3
			c-0.1,0.1-0.1,0.3,0,0.4c0.1,0.1,0.2,0.2,0.4,0.2h3l-0.4,5.1c0,0.2,0.1,0.4,0.3,0.4h0.1c0.1,0,0.3-0.1,0.4-0.2l4.7-7.7
			C429.6,505.7,429.7,505.5,429.6,505.4L429.6,505.4z"/>
		<rect x="452.4" y="503.5" class="st8" width="16.9" height="9.1"/>
		<text transform="matrix(1 0 0 1 456.5748 509.544)" class="st9 st28 st29">%</text>
		<g id="Capa_12">
			<path class="st3" d="M667.8,533.8l-17.8-6c-7.7-2.6-15.9-3.9-24-3.9h-95.8h-95.8c-8.2,0-16.3,1.3-24,3.9l-17.8,6"/>
		</g>
		<rect x="630.5" y="503.8" class="st8" width="16.7" height="9.1"/>
		<text transform="matrix(1 0 0 1 634.3977 508.3546)" class="st9 st28 st30">km</text>
	</g>
	<g id="Capa_13">
		<circle class="st31" cx="530.3" cy="420.6" r="55.8"/>
		<line class="st32" x1="470.7" y1="420.6" x2="421.2" y2="420.6"/>
		<g id="Capa_14" class="st2">
			<line class="st33" x1="421.2" y1="420.6" x2="470.8" y2="418.6"/>
			<line class="st33" x1="421.2" y1="420.6" x2="470.8" y2="422.6"/>
			<path class="st34" d="M470.7,420.6c0,0,0-5.4,0.7-7c0.7-1.7,4.3-5,4.3-5"/>
			<path class="st34" d="M470.7,420.6c0,0,0,5.4,0.7,7c0.7,1.7,4.3,5,4.3,5"/>
		</g>
	</g>
	<g id="Capa_22" class="st2">
		<path class="st3" d="M606.7,487.8l-3.4-3.1c-5.7-5.3-13.3-8.2-21.1-8.2h-52h-52c-7.8,0-15.3,2.9-21.1,8.2l-3.4,3.1"/>
	</g>
</g>
<g id="Capa_13_copia_2" class="st0">
</g>
<g id="Capa_13_copia" class="st0">
	<g id="Capa_14_copia_2" class="st2">
		<line class="st33" x1="442.6" y1="467.3" x2="480" y2="445.1"/>
		<line class="st33" x1="442.6" y1="467.3" x2="481.9" y2="448.6"/>
		<line class="st33" x1="480.9" y1="446.9" x2="442.6" y2="467.3"/>
		<g id="Capa_14_copia">
			<path class="st34" d="M480.9,446.9c0,0,2.5,4.8,3.9,5.9c1.4,1.2,6.1,2.4,6.1,2.4"/>
			<path class="st34" d="M480.9,446.9c0,0-2.5-4.8-2.7-6.5c-0.2-1.8,1.4-6.4,1.4-6.4"/>
		</g>
	</g>
	<circle class="st31" cx="530.4" cy="420.5" r="52.4"/>
</g>
<g id="Capa_13_copia_1_">
	<g id="Capa_14_copia_2_1_">
		<line class="st33" x1="28.2" y1="311.9" x2="65.7" y2="289.8"/>
		<line class="st33" x1="28.2" y1="311.9" x2="67.6" y2="293.3"/>
		<line class="st33" x1="66.6" y1="291.6" x2="28.2" y2="311.9"/>
		<g id="Capa_14_copia_1_">
			<path class="st34" d="M66.6,291.6c0,0,2.5,4.8,3.9,5.9c1.4,1.2,6.1,2.4,6.1,2.4"/>
			<path class="st34" d="M66.6,291.6c0,0-2.5-4.8-2.7-6.5c-0.2-1.8,1.4-6.4,1.4-6.4"/>
		</g>
	</g>
	<circle class="st34" cx="116" cy="265.2" r="52.4"/>
</g>
<g id="Capa_3_copia_2" class="st0">
	<path class="st35" d="M530.3,277.6c0,0-173.8,8.4-226.1,19.1c-32.4,6.6-111.9,46.5-138.2,62.9c-22.8,14.3-44.7,25.8-37,52.6
		c14.6,50.3,69.3,144,103.8,144l136.7-0.2c8.9,0.3,20.8-7.2,26.5-17.2l19.3-32.1c7.3-10.6,16.4-13.5,27.8-13.5H530"/>
</g>
<g id="Capa_5" class="st0">
	<line class="st36" x1="530.3" y1="265.2" x2="530.3" y2="575.9"/>
	<line class="st36" x1="530.3" y1="420.6" x2="944.7" y2="420.6"/>
	<line class="st36" x1="530.3" y1="420.6" x2="913.1" y2="579.1"/>
	<line class="st36" x1="530.3" y1="420.6" x2="823.3" y2="713.5"/>
	<line class="st36" x1="530.3" y1="420.6" x2="237.4" y2="713.5"/>
	<line class="st36" x1="530.3" y1="420.6" x2="116" y2="420.6"/>
	<line class="st36" x1="530.3" y1="420.6" x2="147.5" y2="579.1"/>
</g>
</svg>
