<?xml version="1.0" encoding="utf-8"?>
<!-- Generator: Adobe Illustrator 19.0.0, SVG Export Plug-In . SVG Version: 6.00 Build 0)  -->
<svg version="1.1" id="Capa_1" xmlns="http://www.w3.org/2000/svg" xmlns:xlink="http://www.w3.org/1999/xlink" x="0px" y="0px"
	 viewBox="-41 164.9 512 512" style="enable-background:new -41 164.9 512 512;" xml:space="preserve">
<g>
	<path d="M459.3,652.3L459.3,652.3l-80.4-229.4c-1-4.2-5.2-7.3-9.4-7.3h-66.3c22.1-42,40.2-84.7,40.2-111.6
		c0-70.8-57.4-128.1-128.4-128.1S86.6,233.2,86.6,305.2c0,26.7,17.9,68.8,39.8,110.5H60.5c-4.2,0-8.4,3.1-9.4,7.3l-80.4,229.3
		c-1,3.1-1,6.3,1,9.4c2.1,2.1,5.2,4.2,8.4,4.2h469.8c3.1,0,6.3-2.1,8.4-4.2C460.4,658.6,460.4,655.5,459.3,652.3z M125.2,304.1
		c0-49,39.7-89.7,89.8-89.7s89.8,39.7,89.8,89.7c0,50.1-40.7,89.7-89.8,89.7S125.2,354.1,125.2,304.1z M-5.3,645l73.1-208.5h69.9
		c31.4,56.2,77.3,123,77.3,123s44.9-65.7,77.3-123h70L435.4,645H-5.3z"/>
</g>
</svg>
