<?xml version="1.0" encoding="utf-8"?>
<!-- Generator: Adobe Illustrator 19.0.0, SVG Export Plug-In . SVG Version: 6.00 Build 0)  -->
<svg version="1.1" id="Capa_1" xmlns="http://www.w3.org/2000/svg" xmlns:xlink="http://www.w3.org/1999/xlink" x="0px" y="0px"
	 viewBox="-158 -101.3 512 512" style="enable-background:new -158 -101.3 512 512;" xml:space="preserve">
<g>
	<path d="M342.3,386.1L342.3,386.1l-80.4-229.4c-1-4.2-5.2-7.3-9.4-7.3h-66.3c22.1-42,40.2-84.7,40.2-111.6
		C226.4-33,169-90.3,98-90.3S-30.4-33-30.4,39c0,26.7,17.9,68.8,39.8,110.5h-65.9c-4.2,0-8.4,3.1-9.4,7.3l-80.4,229.3
		c-1,3.1-1,6.3,1,9.4c2.1,2.1,5.2,4.2,8.4,4.2h469.8c3.1,0,6.3-2.1,8.4-4.2C343.4,392.4,343.4,389.3,342.3,386.1z M8.2,37.9
		c0-49,39.7-89.7,89.8-89.7s89.8,39.7,89.8,89.7c0,50.1-40.7,89.7-89.8,89.7C48.9,127.6,8.2,87.9,8.2,37.9z M-122.3,378.8
		l73.1-208.5h69.9c31.4,56.2,77.3,123,77.3,123s44.9-65.7,77.3-123h70l73.1,208.5H-122.3z"/>
</g>
</svg>
