<?xml version="1.0" encoding="utf-8"?>
<!-- Generator: Adobe Illustrator 19.0.0, SVG Export Plug-In . SVG Version: 6.00 Build 0)  -->
<svg version="1.1" id="Capa_1" xmlns="http://www.w3.org/2000/svg" xmlns:xlink="http://www.w3.org/1999/xlink" x="0px" y="0px"
	 viewBox="-158 -101.3 512 512" style="enable-background:new -158 -101.3 512 512;" xml:space="preserve">
<path d="M256,98.9c-2.8-5-8.2-8.2-14-8.2H131.4l14.6-174.7c0.6-7.3-3.8-14.1-10.8-16.5c-6.9-2.4-14.6,0.3-18.6,6.4l-176,272
	c-3.2,4.9-3.4,11.2-0.6,16.3s8.2,8.4,14.1,8.4H64.7L50,393.5c-0.6,7.4,4,14.2,11,16.5c1.6,0.5,3.3,0.8,4.9,0.8
	c5.5,0,10.7-2.8,13.7-7.7l176-288C258.7,110.1,258.8,104,256,98.9L256,98.9z"/>
</svg>
