<?xml version="1.0" encoding="utf-8"?>
<!-- Generator: Adobe Illustrator 19.0.0, SVG Export Plug-In . SVG Version: 6.00 Build 0)  -->
<svg version="1.1" xmlns="http://www.w3.org/2000/svg" xmlns:xlink="http://www.w3.org/1999/xlink" x="0px" y="0px"
	 viewBox="0 0 828.7 310.7" style="enable-background:new 0 0 828.7 310.7;" xml:space="preserve">
<style type="text/css">
	.st0{fill:#1E1E1E;}
	.st1{fill:url(#SVGID_1_);stroke:#26A4C6;stroke-width:3;stroke-miterlimit:10;}
	.st2{fill:none;stroke:#26A4C6;stroke-width:3;stroke-miterlimit:10;}
	.st3{fill:none;stroke:#155B6B;stroke-width:8;stroke-miterlimit:10;}
	.st4{display:none;fill:none;stroke:#26A4C6;stroke-width:8;stroke-miterlimit:10;}
	.st5{fill:#26A4C6;}
	.st6{fill:none;}
	.st7{fill:#AECED1;}
	.st8{font-family:'Verdana';}
	.st9{font-size:8px;}
	.st10{font-size:6px;}
	.st11{font-family:'Verdana-Italic';}
	.st12{font-size:14px;}
	.st13{font-size:10px;}
	.st14{fill:#CDF3F9;}
	.st15{fill:#58D3E0;}
	.st16{fill:#CE5300;}
	.st17{fill:#843500;}
	.st18{fill:#EF2511;}
	.st19{fill:#6B0000;}
	.st20{display:none;}
	.st21{display:inline;fill:none;stroke:#AD6423;stroke-miterlimit:10;}
</style>
<g id="Capa_10">
	<rect class="st0" width="828.7" height="310.7"/>
</g>
<g id="Capa_3">
	<g id="Capa_2">
		<linearGradient id="SVGID_1_" gradientUnits="userSpaceOnUse" x1="415.625" y1="12.5673" x2="415.625" y2="285.4177">
			<stop  offset="0.3" style="stop-color:#141414;stop-opacity:0.7"/>
			<stop  offset="0.7055" style="stop-color:#131516;stop-opacity:0.3524"/>
			<stop  offset="0.8578" style="stop-color:#0D1A1D;stop-opacity:0.2219"/>
			<stop  offset="0.9673" style="stop-color:#042329;stop-opacity:0.128"/>
			<stop  offset="1" style="stop-color:#00272E;stop-opacity:0.1"/>
		</linearGradient>
		<path class="st1" d="M415.6,12.6c56.5,0,171.7,3.1,227,15.4c25,5.6,119.2,51.3,156.9,72.5c19.3,10.9,26.5,21.8,16.4,50
			c0,0-37.5,80.8-60.2,106.4c-17.5,19.7-26.1,28.5-52.1,28.5H575.1c-7.3,0-14-4.5-18-10.6l-23.3-37.6c-6.5-9.3-17.1-14.7-28.4-14.7
			h-89.7c0,0-89.7,0-89.7,0c-11.3,0-21.9,5.4-28.4,14.7l-23.3,37.6c-4,6.1-10.7,10.6-18,10.6H127.7c-26,0-34.6-8.7-52.1-28.5
			c-22.7-25.6-60.2-106.4-60.2-106.4c-10.1-28.2-2.9-39.1,16.4-50C69.4,79.3,163.7,33.6,188.7,28C243.9,15.6,359.1,12.6,415.6,12.6z
			"/>
		<g id="Capa_6">
			<path class="st2" d="M302.3,155.4c0-62.2,50.4-112.7,112.7-112.7s112.7,56.1,112.7,112.7c0,62.2-50.4,112.7-112.7,112.7
				S302.3,217.6,302.3,155.4z"/>
		</g>
		<g id="Capa_10_copia">
			<rect x="317.3" y="223.4" class="st0" width="193.7" height="87.4"/>
		</g>
	</g>
	<path class="st2" d="M415,12.6c56.5,0,171.7,3.1,227,15.4c25,5.6,119.2,51.3,156.9,72.5c19.3,10.9,26.5,21.8,16.4,50
		c0,0-37.5,80.8-60.2,106.4c-17.5,19.7-26.1,28.5-52.1,28.5H574.4c-7.3,0-14-4.5-18-10.6l-23.3-37.6c-6.5-9.3-17.1-14.7-28.4-14.7
		H415c0,0-89.7,0-89.7,0c-11.3,0-21.9,5.4-28.4,14.7l-23.3,37.6c-4,6.1-10.7,10.6-18,10.6H127c-26,0-34.6-8.7-52.1-28.5
		c-22.7-25.6-60.2-106.4-60.2-106.4c-10.1-28.2-2.9-39.1,16.4-50C68.8,79.3,163,33.6,188,28C243.3,15.6,358.4,12.6,415,12.6z"/>
	<line class="st3" x1="479.8" y1="241.7" x2="351.5" y2="241.7"/>
	<line class="st4" x1="479.7" y1="241.7" x2="351.5" y2="241.7"/>
	<line class="st4" x1="128.3" y1="0" x2="0" y2="0"/>
	<path class="st5" d="M313.6,240.2c-0.1-0.1-0.2-0.2-0.4-0.2h-3l0.4-4.7c0-0.2-0.1-0.4-0.3-0.4c-0.2-0.1-0.4,0-0.5,0.2l-4.7,7.3
		c-0.1,0.1-0.1,0.3,0,0.4s0.2,0.2,0.4,0.2h3l-0.4,5.1c0,0.2,0.1,0.4,0.3,0.4c0,0,0.1,0,0.1,0c0.1,0,0.3-0.1,0.4-0.2l4.7-7.7
		C313.6,240.5,313.7,240.3,313.6,240.2L313.6,240.2z"/>
	<rect x="336.4" y="238.3" class="st6" width="16.9" height="9.1"/>
	<text transform="matrix(1 0 0 1 340.5748 244.354)" class="st7 st8 st9">%</text>
	<g id="Capa_12">
		<path class="st2" d="M415.6,258.7h-95.8c-8.2,0-16.3,1.3-24,3.9l-17.8,6"/>
		<path class="st2" d="M415.6,258.7h95.8c8.2,0,16.3,1.3,24,3.9l17.8,6"/>
	</g>
	<rect x="514.5" y="238.6" class="st6" width="16.7" height="9.1"/>
	<text transform="matrix(1 0 0 1 518.3977 243.1646)" class="st7 st8 st10">km</text>
	<path class="st2" d="M177,31.6c11.4-2.5,35.6,21.5,51.1,19.7c59.5-7,142-8.6,186.9-8.6"/>
	<path class="st2" d="M653,31.6c-11.4-2.5-35.6,21.5-51.1,19.7c-59.5-7-142-8.6-186.9-8.6"/>
</g>
<g id="Capa_11">
	<rect x="391.9" y="162.6" class="st6" width="47.5" height="18.3"/>
	<text transform="matrix(1 0 0 1 397.0962 173.2545)" class="st7 st11 st12">km/h</text>
	<rect x="323.8" y="197.7" class="st6" width="9.5" height="9.1"/>
	<text transform="matrix(1 0 0 1 325.3345 205.343)" class="st7 st11 st13">0</text>
	<rect x="313.4" y="141.5" class="st6" width="15.7" height="9.1"/>
	<text transform="matrix(1 0 0 1 314.8707 149.147)" class="st7 st11 st13">40</text>
	<rect x="329" y="87" class="st6" width="28.5" height="16.1"/>
	<text transform="matrix(1 0 0 1 336.9251 94.6158)" class="st7 st11 st13">80</text>
	<rect x="376" y="57.7" class="st6" width="28.5" height="16.1"/>
	<text transform="matrix(1 0 0 1 380.7792 65.2698)" class="st7 st11 st13">120</text>
	<rect x="430.6" y="60.4" class="st6" width="28.5" height="16.1"/>
	<text transform="matrix(1 0 0 1 435.3805 67.969)" class="st7 st11 st13">160</text>
	<rect x="469.6" y="91.5" class="st6" width="28.5" height="16.1"/>
	<text transform="matrix(1 0 0 1 474.374 99.1464)" class="st7 st11 st13">200</text>
	<rect x="489.7" y="142.6" class="st6" width="28.5" height="16.1"/>
	<text transform="matrix(1 0 0 1 494.3864 150.2233)" class="st7 st11 st13">240</text>
	<rect x="478.2" y="198.2" class="st6" width="28.5" height="16.1"/>
	<text transform="matrix(1 0 0 1 482.9198 205.8414)" class="st7 st11 st13">280</text>
</g>
<g id="Capa_9">
	<circle class="st14" cx="309.4" cy="165.8" r="1.1"/>
	<circle class="st14" cx="309" cy="158.9" r="1.1"/>
	<circle class="st14" cx="309" cy="152" r="1.1"/>
	<circle class="st15" cx="309.4" cy="145.1" r="1.7"/>
	<circle class="st14" cx="310.3" cy="138.2" r="1.1"/>
	<circle class="st14" cx="311.7" cy="131.4" r="1.1"/>
	<circle class="st14" cx="313.5" cy="124.8" r="1.1"/>
	<circle class="st14" cx="315.7" cy="118.2" r="1.1"/>
	<circle class="st14" cx="318.3" cy="111.9" r="1.1"/>
	<circle class="st14" cx="321.4" cy="105.7" r="1.1"/>
	<circle class="st14" cx="324.8" cy="99.7" r="1.1"/>
	<circle class="st14" cx="328.7" cy="93.9" r="1.1"/>
	<circle class="st15" cx="332.9" cy="88.4" r="1.7"/>
	<circle class="st14" cx="337.4" cy="83.3" r="1.1"/>
	<circle class="st14" cx="342.3" cy="78.4" r="1.1"/>
	<circle class="st14" cx="347.5" cy="73.8" r="1.1"/>
	<circle class="st14" cx="353" cy="69.6" r="1.1"/>
	<circle class="st14" cx="358.7" cy="65.8" r="1.1"/>
	<circle class="st14" cx="364.7" cy="62.3" r="1.1"/>
	<circle class="st14" cx="370.9" cy="59.3" r="1.1"/>
	<circle class="st14" cx="377.2" cy="56.6" r="1.1"/>
	<circle class="st16" cx="383.8" cy="54.4" r="1.7"/>
	<circle class="st17" cx="390.5" cy="52.6" r="1.1"/>
	<circle class="st17" cx="397.2" cy="51.2" r="1.1"/>
	<circle class="st17" cx="404.1" cy="50.3" r="1.1"/>
	<circle class="st17" cx="411" cy="49.9" r="1.1"/>
	<circle class="st17" cx="417.9" cy="49.9" r="1.1"/>
	<circle class="st17" cx="424.8" cy="50.3" r="1.1"/>
	<circle class="st17" cx="431.6" cy="51.2" r="1.1"/>
	<circle class="st17" cx="438.4" cy="52.6" r="1.1"/>
	<circle class="st16" cx="445.1" cy="54.4" r="1.7"/>
	<circle class="st17" cx="451.6" cy="56.6" r="1.1"/>
	<circle class="st17" cx="458" cy="59.2" r="1.1"/>
	<circle class="st17" cx="464.2" cy="62.3" r="1.1"/>
	<circle class="st17" cx="470.2" cy="65.7" r="1.1"/>
	<circle class="st17" cx="475.9" cy="69.6" r="1.1"/>
	<circle class="st17" cx="481.4" cy="73.8" r="1.1"/>
	<circle class="st17" cx="486.6" cy="78.3" r="1.1"/>
	<circle class="st17" cx="491.5" cy="83.2" r="1.1"/>
	<circle class="st18" cx="496" cy="88.4" r="1.7"/>
	<circle class="st19" cx="500.2" cy="93.9" r="1.1"/>
	<circle class="st19" cx="504.1" cy="99.6" r="1.1"/>
	<circle class="st19" cx="507.5" cy="105.6" r="1.1"/>
	<circle class="st19" cx="510.6" cy="111.8" r="1.1"/>
	<circle class="st19" cx="513.2" cy="118.1" r="1.1"/>
	<circle class="st19" cx="515.4" cy="124.7" r="1.1"/>
	<circle class="st19" cx="517.2" cy="131.4" r="1.1"/>
	<circle class="st19" cx="518.6" cy="138.1" r="1.1"/>
	<circle class="st18" cx="519.5" cy="145" r="1.7"/>
	<circle class="st19" cx="519.9" cy="151.9" r="1.1"/>
	<circle class="st19" cx="519.9" cy="158.8" r="1.1"/>
	<circle class="st19" cx="519.5" cy="165.7" r="1.1"/>
	<circle class="st19" cx="518.6" cy="172.5" r="1.1"/>
	<circle class="st19" cx="517.3" cy="179.3" r="1.1"/>
	<circle class="st19" cx="515.5" cy="186" r="1.1"/>
	<circle class="st19" cx="513.3" cy="192.5" r="1.1"/>
	<circle class="st19" cx="510.6" cy="198.9" r="1.1"/>
	<circle class="st18" cx="507.6" cy="205.1" r="1.7"/>
	<circle class="st15" cx="321.4" cy="205.2" r="1.7"/>
	<circle class="st14" cx="318.4" cy="199" r="1.1"/>
	<circle class="st14" cx="315.7" cy="192.6" r="1.1"/>
	<circle class="st14" cx="313.5" cy="186" r="1.1"/>
	<circle class="st14" cx="311.7" cy="179.4" r="1.1"/>
	<circle class="st14" cx="310.3" cy="172.6" r="1.1"/>
</g>
<g id="Capa_5" class="st20">
	<line class="st21" x1="414.3" y1="0" x2="414.3" y2="310.7"/>
	<line class="st21" x1="414.3" y1="155.4" x2="828.7" y2="155.4"/>
	<line class="st21" x1="414.3" y1="155.4" x2="797.1" y2="313.9"/>
	<line class="st21" x1="414.3" y1="155.4" x2="707.3" y2="448.3"/>
	<line class="st21" x1="414.3" y1="155.4" x2="121.4" y2="448.3"/>
	<line class="st21" x1="414.3" y1="155.4" x2="0" y2="155.4"/>
	<line class="st21" x1="414.3" y1="155.4" x2="31.5" y2="313.9"/>
</g>
</svg>
