<?xml version="1.0" encoding="utf-8"?>
<!-- Generator: Adobe Illustrator 19.0.0, SVG Export Plug-In . SVG Version: 6.00 Build 0)  -->
<svg version="1.1" xmlns="http://www.w3.org/2000/svg" xmlns:xlink="http://www.w3.org/1999/xlink" x="0px" y="0px"
	 viewBox="0 0 828.7 310.7" style="enable-background:new 0 0 828.7 310.7;" xml:space="preserve">
<style type="text/css">
	.st0{display:none;}
	.st1{display:inline;fill:none;stroke:#AD6423;stroke-miterlimit:10;}
	.st2{fill:#1E1E1E;}
	.st3{fill:none;}
	.st4{fill:#AECED1;}
	.st5{font-family:'Verdana-Italic';}
	.st6{font-size:14px;}
	.st7{font-size:10px;}
	.st8{fill:#CDF3F9;}
	.st9{fill:#58D3E0;}
	.st10{fill:#CE5300;}
	.st11{fill:#843500;}
	.st12{fill:#EF2511;}
	.st13{fill:#6B0000;}
	.st14{fill:none;stroke:#26A4C6;stroke-width:3;stroke-miterlimit:10;}
	.st15{fill:none;stroke:#155B6B;stroke-width:8;stroke-miterlimit:10;}
	.st16{display:none;fill:none;stroke:#26A4C6;stroke-width:8;stroke-miterlimit:10;}
	.st17{fill:#26A4C6;}
	.st18{font-family:'Verdana';}
	.st19{font-size:8px;}
	.st20{font-size:6px;}
	.st21{display:inline;fill:none;stroke:#C10000;stroke-miterlimit:10;}
</style>
<g id="Capa_5" class="st0">
	<line class="st1" x1="414.3" y1="0" x2="414.3" y2="310.7"/>
	<line class="st1" x1="414.3" y1="155.4" x2="828.7" y2="155.4"/>
	<line class="st1" x1="414.3" y1="155.4" x2="797.1" y2="313.9"/>
	<line class="st1" x1="414.3" y1="155.4" x2="707.3" y2="448.3"/>
	<line class="st1" x1="414.3" y1="155.4" x2="121.4" y2="448.3"/>
	<line class="st1" x1="414.3" y1="155.4" x2="0" y2="155.4"/>
	<line class="st1" x1="414.3" y1="155.4" x2="31.5" y2="313.9"/>
</g>
<g id="Capa_10">
	<rect class="st2" width="828.7" height="310.7"/>
</g>
<g id="Capa_11">
	<rect x="391.9" y="162.6" class="st3" width="47.5" height="18.3"/>
	<text transform="matrix(1 0 0 1 397.0962 173.2545)" class="st4 st5 st6">km/h</text>
	<rect x="323.8" y="197.7" class="st3" width="9.5" height="9.1"/>
	<text transform="matrix(1 0 0 1 325.3345 205.343)" class="st4 st5 st7">0</text>
	<rect x="313.4" y="141.5" class="st3" width="15.7" height="9.1"/>
	<text transform="matrix(1 0 0 1 314.8707 149.147)" class="st4 st5 st7">40</text>
	<rect x="329" y="87" class="st3" width="28.5" height="16.1"/>
	<text transform="matrix(1 0 0 1 336.9251 94.6158)" class="st4 st5 st7">80</text>
	<rect x="376" y="57.7" class="st3" width="28.5" height="16.1"/>
	<text transform="matrix(1 0 0 1 380.7792 65.2698)" class="st4 st5 st7">120</text>
	<rect x="430.6" y="60.4" class="st3" width="28.5" height="16.1"/>
	<text transform="matrix(1 0 0 1 435.3805 67.969)" class="st4 st5 st7">160</text>
	<rect x="469.6" y="91.5" class="st3" width="28.5" height="16.1"/>
	<text transform="matrix(1 0 0 1 474.374 99.1464)" class="st4 st5 st7">200</text>
	<rect x="489.7" y="142.6" class="st3" width="28.5" height="16.1"/>
	<text transform="matrix(1 0 0 1 494.3864 150.2233)" class="st4 st5 st7">240</text>
	<rect x="478.2" y="198.2" class="st3" width="28.5" height="16.1"/>
	<text transform="matrix(1 0 0 1 482.9198 205.8414)" class="st4 st5 st7">280</text>
</g>
<g id="Capa_9">
	<circle class="st8" cx="309.3" cy="165.8" r="1.1"/>
	<circle class="st8" cx="308.8" cy="158.9" r="1.1"/>
	<circle class="st8" cx="308.8" cy="152" r="1.1"/>
	<circle class="st9" cx="309.3" cy="145.1" r="1.7"/>
	<circle class="st8" cx="310.2" cy="138.2" r="1.1"/>
	<circle class="st8" cx="311.5" cy="131.4" r="1.1"/>
	<circle class="st8" cx="313.3" cy="124.8" r="1.1"/>
	<circle class="st8" cx="315.5" cy="118.2" r="1.1"/>
	<circle class="st8" cx="318.2" cy="111.9" r="1.1"/>
	<circle class="st8" cx="321.2" cy="105.7" r="1.1"/>
	<circle class="st8" cx="324.7" cy="99.7" r="1.1"/>
	<circle class="st8" cx="328.5" cy="93.9" r="1.1"/>
	<circle class="st9" cx="332.7" cy="88.4" r="1.7"/>
	<circle class="st8" cx="337.3" cy="83.3" r="1.1"/>
	<circle class="st8" cx="342.1" cy="78.4" r="1.1"/>
	<circle class="st8" cx="347.3" cy="73.8" r="1.1"/>
	<circle class="st8" cx="352.8" cy="69.6" r="1.1"/>
	<circle class="st8" cx="358.6" cy="65.8" r="1.1"/>
	<circle class="st8" cx="364.5" cy="62.3" r="1.1"/>
	<circle class="st8" cx="370.7" cy="59.3" r="1.1"/>
	<circle class="st8" cx="377.1" cy="56.6" r="1.1"/>
	<circle class="st10" cx="383.6" cy="54.4" r="1.7"/>
	<circle class="st11" cx="390.3" cy="52.6" r="1.1"/>
	<circle class="st11" cx="397.1" cy="51.2" r="1.1"/>
	<circle class="st11" cx="403.9" cy="50.3" r="1.1"/>
	<circle class="st11" cx="410.8" cy="49.9" r="1.1"/>
	<circle class="st11" cx="417.7" cy="49.9" r="1.1"/>
	<circle class="st11" cx="424.6" cy="50.3" r="1.1"/>
	<circle class="st11" cx="431.5" cy="51.2" r="1.1"/>
	<circle class="st11" cx="438.2" cy="52.6" r="1.1"/>
	<circle class="st10" cx="444.9" cy="54.4" r="1.7"/>
	<circle class="st11" cx="451.5" cy="56.6" r="1.1"/>
	<circle class="st11" cx="457.8" cy="59.2" r="1.1"/>
	<circle class="st11" cx="464" cy="62.3" r="1.1"/>
	<circle class="st11" cx="470" cy="65.7" r="1.1"/>
	<circle class="st11" cx="475.8" cy="69.6" r="1.1"/>
	<circle class="st11" cx="481.2" cy="73.8" r="1.1"/>
	<circle class="st11" cx="486.4" cy="78.3" r="1.1"/>
	<circle class="st11" cx="491.3" cy="83.2" r="1.1"/>
	<circle class="st12" cx="495.9" cy="88.4" r="1.7"/>
	<circle class="st13" cx="500.1" cy="93.9" r="1.1"/>
	<circle class="st13" cx="503.9" cy="99.6" r="1.1"/>
	<circle class="st13" cx="507.4" cy="105.6" r="1.1"/>
	<circle class="st13" cx="510.4" cy="111.8" r="1.1"/>
	<circle class="st13" cx="513.1" cy="118.1" r="1.1"/>
	<circle class="st13" cx="515.3" cy="124.7" r="1.1"/>
	<circle class="st13" cx="517.1" cy="131.4" r="1.1"/>
	<circle class="st13" cx="518.4" cy="138.1" r="1.1"/>
	<circle class="st12" cx="519.3" cy="145" r="1.7"/>
	<circle class="st13" cx="519.8" cy="151.9" r="1.1"/>
	<circle class="st13" cx="519.8" cy="158.8" r="1.1"/>
	<circle class="st13" cx="519.4" cy="165.7" r="1.1"/>
	<circle class="st13" cx="518.5" cy="172.5" r="1.1"/>
	<circle class="st13" cx="517.1" cy="179.3" r="1.1"/>
	<circle class="st13" cx="515.3" cy="186" r="1.1"/>
	<circle class="st13" cx="513.1" cy="192.5" r="1.1"/>
	<circle class="st13" cx="510.5" cy="198.9" r="1.1"/>
	<circle class="st12" cx="507.4" cy="205.1" r="1.7"/>
	<circle class="st9" cx="321.3" cy="205.2" r="1.7"/>
	<circle class="st8" cx="318.2" cy="199" r="1.1"/>
	<circle class="st8" cx="315.6" cy="192.6" r="1.1"/>
	<circle class="st8" cx="313.3" cy="186" r="1.1"/>
	<circle class="st8" cx="311.6" cy="179.4" r="1.1"/>
	<circle class="st8" cx="310.2" cy="172.6" r="1.1"/>
</g>
<g id="Capa_2">
	<g id="Capa_6">
		<path class="st14" d="M301.6,155.4c0-62.2,50.4-112.7,112.7-112.7S527,98.8,527,155.4c0,62.2-50.4,112.7-112.7,112.7
			S301.6,217.6,301.6,155.4z"/>
	</g>
	<g id="Capa_10_copia">
		<rect x="317.3" y="223.4" class="st2" width="193.7" height="87.6"/>
	</g>
</g>
<g id="Capa_3">
	<g id="Capa_7">
		<path class="st14" d="M415.6,222.6h-89.7c-11.3,0-21.9,5.4-28.4,14.7l-23.3,37.6c-4,6.1-10.7,10.6-18,10.6H127.7
			c-26,0-34.6-8.7-52.1-28.5c-22.7-25.6-60.2-106.4-60.2-106.4c-10.1-28.2-2.9-39.1,16.4-50C69.4,79.3,163.7,33.6,188.7,28
			c55.3-12.3,170.4-15.4,227-15.4"/>
		<path class="st14" d="M415.6,222.6h89.7c11.3,0,21.9,5.4,28.4,14.7l23.3,37.6c4,6.1,10.7,10.6,18,10.6h128.5
			c26,0,34.6-8.7,52.1-28.5c22.7-25.6,60.2-106.4,60.2-106.4c10.1-28.2,2.9-39.1-16.4-50C761.8,79.3,667.6,33.6,642.6,28
			c-55.3-12.3-170.4-15.4-227-15.4"/>
	</g>
	<line class="st15" x1="479.8" y1="241.7" x2="351.5" y2="241.7"/>
	<line class="st16" x1="479.7" y1="241.7" x2="351.5" y2="241.7"/>
	<line class="st16" x1="128.3" y1="0" x2="0" y2="0"/>
	<path class="st17" d="M313.6,240.2c-0.1-0.1-0.2-0.2-0.4-0.2h-3l0.4-4.7c0-0.2-0.1-0.4-0.3-0.4c-0.2-0.1-0.4,0-0.5,0.2l-4.7,7.3
		c-0.1,0.1-0.1,0.3,0,0.4s0.2,0.2,0.4,0.2h3l-0.4,5.1c0,0.2,0.1,0.4,0.3,0.4c0,0,0.1,0,0.1,0c0.1,0,0.3-0.1,0.4-0.2l4.7-7.7
		C313.6,240.5,313.7,240.3,313.6,240.2L313.6,240.2z"/>
	<rect x="336.4" y="238.3" class="st3" width="16.9" height="9.1"/>
	<text transform="matrix(1 0 0 1 340.5748 244.354)" class="st4 st18 st19">%</text>
	<g id="Capa_12">
		<path class="st14" d="M415.6,258.7h-95.8c-8.2,0-16.3,1.3-24,3.9l-17.8,6"/>
		<path class="st14" d="M415.6,258.7h95.8c8.2,0,16.3,1.3,24,3.9l17.8,6"/>
	</g>
	<rect x="514.5" y="238.6" class="st3" width="16.7" height="9.1"/>
	<text transform="matrix(1 0 0 1 518.3977 243.1646)" class="st4 st18 st20">km</text>
</g>
<g id="Capa_3_copia_2" class="st0">
	<path class="st21" d="M414.3,12.4c0,0-173.8,8.4-226.1,19.1C155.8,38.1,76.3,78,50,94.4C27.2,108.7,5.3,120.2,13,147
		c14.6,50.3,69.3,144,103.8,144l136.7-0.2c8.9,0.3,20.8-7.2,26.5-17.2l19.3-32.1c7.3-10.6,16.4-13.5,27.8-13.5h86.9"/>
</g>
</svg>
