<?xml version="1.0" encoding="utf-8"?>
<!-- Generator: Adobe Illustrator 19.0.0, SVG Export Plug-In . SVG Version: 6.00 Build 0)  -->
<svg version="1.1" xmlns="http://www.w3.org/2000/svg" xmlns:xlink="http://www.w3.org/1999/xlink" x="0px" y="0px"
	 viewBox="0 0 828.7 310.7" style="enable-background:new 0 0 828.7 310.7;" xml:space="preserve">
<style type="text/css">
	.st0{display:none;}
	.st1{display:inline;fill:none;stroke:#AD6423;stroke-miterlimit:10;}
	.st2{fill:#1E1E1E;}
	.st3{fill:none;}
	.st4{fill:#AECED1;}
	.st5{font-family:'Verdana-Italic';}
	.st6{font-size:14px;}
	.st7{font-size:10px;}
	.st8{fill:#CDF3F9;}
	.st9{fill:#58D3E0;}
	.st10{fill:#CE5300;}
	.st11{fill:#843500;}
	.st12{fill:#EF2511;}
	.st13{fill:#6B0000;}
	.st14{fill:none;stroke:#26A4C6;stroke-width:3;stroke-miterlimit:10;}
	.st15{fill:none;stroke:#26A4C6;stroke-width:0.3;stroke-miterlimit:10;}
	.st16{fill:none;stroke:#26A4C6;stroke-miterlimit:10;}
	.st17{fill:none;stroke:#26A4C6;stroke-width:0.5;stroke-miterlimit:10;}
	.st18{display:inline;fill:none;stroke:#C64826;stroke-width:6;stroke-miterlimit:10;}
	.st19{fill:none;stroke:#155B6B;stroke-width:8;stroke-miterlimit:10;}
	.st20{display:none;fill:none;stroke:#26A4C6;stroke-width:8;stroke-miterlimit:10;}
	.st21{fill:none;stroke:#26A4C6;stroke-width:8;stroke-miterlimit:10;}
	.st22{fill:#26A4C6;}
	.st23{font-family:'Verdana';}
	.st24{font-size:8px;}
	.st25{font-size:6px;}
	.st26{display:inline;fill:none;stroke:#C10000;stroke-miterlimit:10;}
	.st27{display:inline;fill:none;stroke:#C46E27;stroke-miterlimit:10;}
</style>
<g id="Capa_5" class="st0">
	<line class="st1" x1="414.3" y1="0" x2="414.3" y2="310.7"/>
	<line class="st1" x1="414.3" y1="155.4" x2="828.7" y2="155.4"/>
	<line class="st1" x1="414.3" y1="155.4" x2="797.1" y2="313.9"/>
	<line class="st1" x1="414.3" y1="155.4" x2="707.3" y2="448.3"/>
	<line class="st1" x1="414.3" y1="155.4" x2="121.4" y2="448.3"/>
	<line class="st1" x1="414.3" y1="155.4" x2="0" y2="155.4"/>
	<line class="st1" x1="414.3" y1="155.4" x2="31.5" y2="313.9"/>
</g>
<g id="Capa_10">
	<rect class="st2" width="828.7" height="310.7"/>
</g>
<g id="Capa_11">
	<rect x="392" y="162.6" class="st3" width="47.5" height="18.3"/>
	<text transform="matrix(1 0 0 1 397.2188 173.2545)" class="st4 st5 st6">km/h</text>
	<rect x="323.8" y="197.7" class="st3" width="9.5" height="9.1"/>
	<text transform="matrix(1 0 0 1 325.3345 205.343)" class="st4 st5 st7">0</text>
	<rect x="313.4" y="141.5" class="st3" width="15.7" height="9.1"/>
	<text transform="matrix(1 0 0 1 314.8707 149.147)" class="st4 st5 st7">40</text>
	<rect x="329" y="87" class="st3" width="28.5" height="16.1"/>
	<text transform="matrix(1 0 0 1 336.9251 94.6158)" class="st4 st5 st7">80</text>
	<rect x="376" y="57.7" class="st3" width="28.5" height="16.1"/>
	<text transform="matrix(1 0 0 1 380.7792 65.2698)" class="st4 st5 st7">120</text>
	<rect x="430.6" y="60.4" class="st3" width="28.5" height="16.1"/>
	<text transform="matrix(1 0 0 1 435.3805 67.969)" class="st4 st5 st7">160</text>
	<rect x="469.6" y="91.5" class="st3" width="28.5" height="16.1"/>
	<text transform="matrix(1 0 0 1 474.374 99.1464)" class="st4 st5 st7">200</text>
	<rect x="489.7" y="142.6" class="st3" width="28.5" height="16.1"/>
	<text transform="matrix(1 0 0 1 494.3864 150.2233)" class="st4 st5 st7">240</text>
	<rect x="478.2" y="198.2" class="st3" width="28.5" height="16.1"/>
	<text transform="matrix(1 0 0 1 482.9198 205.8414)" class="st4 st5 st7">280</text>
</g>
<g id="Capa_9">
	<circle class="st8" cx="310.7" cy="165.8" r="1.1"/>
	<circle class="st8" cx="310.3" cy="158.9" r="1.1"/>
	<circle class="st8" cx="310.3" cy="152" r="1.1"/>
	<circle class="st9" cx="310.7" cy="145.1" r="1.7"/>
	<circle class="st8" cx="311.6" cy="138.2" r="1.1"/>
	<circle class="st8" cx="313" cy="131.4" r="1.1"/>
	<circle class="st8" cx="314.7" cy="124.8" r="1.1"/>
	<circle class="st8" cx="317" cy="118.2" r="1.1"/>
	<circle class="st8" cx="319.6" cy="111.9" r="1.1"/>
	<circle class="st8" cx="322.7" cy="105.7" r="1.1"/>
	<circle class="st8" cx="326.1" cy="99.7" r="1.1"/>
	<circle class="st8" cx="329.9" cy="93.9" r="1.1"/>
	<circle class="st9" cx="334.1" cy="88.4" r="1.7"/>
	<circle class="st8" cx="338.7" cy="83.3" r="1.1"/>
	<circle class="st8" cx="343.6" cy="78.4" r="1.1"/>
	<circle class="st8" cx="348.8" cy="73.8" r="1.1"/>
	<circle class="st8" cx="354.2" cy="69.6" r="1.1"/>
	<circle class="st8" cx="360" cy="65.8" r="1.1"/>
	<circle class="st8" cx="366" cy="62.3" r="1.1"/>
	<circle class="st8" cx="372.2" cy="59.3" r="1.1"/>
	<circle class="st8" cx="378.5" cy="56.6" r="1.1"/>
	<circle class="st10" cx="385.1" cy="54.4" r="1.7"/>
	<circle class="st11" cx="391.7" cy="52.6" r="1.1"/>
	<circle class="st11" cx="398.5" cy="51.2" r="1.1"/>
	<circle class="st11" cx="405.4" cy="50.3" r="1.1"/>
	<circle class="st11" cx="412.2" cy="49.9" r="1.1"/>
	<circle class="st11" cx="419.2" cy="49.9" r="1.1"/>
	<circle class="st11" cx="426" cy="50.3" r="1.1"/>
	<circle class="st11" cx="432.9" cy="51.2" r="1.1"/>
	<circle class="st11" cx="439.7" cy="52.6" r="1.1"/>
	<circle class="st10" cx="446.3" cy="54.4" r="1.7"/>
	<circle class="st11" cx="452.9" cy="56.6" r="1.1"/>
	<circle class="st11" cx="459.3" cy="59.2" r="1.1"/>
	<circle class="st11" cx="465.5" cy="62.3" r="1.1"/>
	<circle class="st11" cx="471.4" cy="65.7" r="1.1"/>
	<circle class="st11" cx="477.2" cy="69.6" r="1.1"/>
	<circle class="st11" cx="482.7" cy="73.8" r="1.1"/>
	<circle class="st11" cx="487.9" cy="78.3" r="1.1"/>
	<circle class="st11" cx="492.7" cy="83.2" r="1.1"/>
	<circle class="st12" cx="497.3" cy="88.4" r="1.7"/>
	<circle class="st13" cx="501.5" cy="93.9" r="1.1"/>
	<circle class="st13" cx="505.3" cy="99.6" r="1.1"/>
	<circle class="st13" cx="508.8" cy="105.6" r="1.1"/>
	<circle class="st13" cx="511.9" cy="111.8" r="1.1"/>
	<circle class="st13" cx="514.5" cy="118.1" r="1.1"/>
	<circle class="st13" cx="516.7" cy="124.7" r="1.1"/>
	<circle class="st13" cx="518.5" cy="131.4" r="1.1"/>
	<circle class="st13" cx="519.9" cy="138.1" r="1.1"/>
	<circle class="st12" cx="520.8" cy="145" r="1.7"/>
	<circle class="st13" cx="521.2" cy="151.9" r="1.1"/>
	<circle class="st13" cx="521.2" cy="158.8" r="1.1"/>
	<circle class="st13" cx="520.8" cy="165.7" r="1.1"/>
	<circle class="st13" cx="519.9" cy="172.5" r="1.1"/>
	<circle class="st13" cx="518.5" cy="179.3" r="1.1"/>
	<circle class="st13" cx="516.8" cy="186" r="1.1"/>
	<circle class="st13" cx="514.5" cy="192.5" r="1.1"/>
	<circle class="st13" cx="511.9" cy="198.9" r="1.1"/>
	<circle class="st12" cx="508.8" cy="205.1" r="1.7"/>
	<circle class="st9" cx="322.7" cy="205.2" r="1.7"/>
	<circle class="st8" cx="319.6" cy="199" r="1.1"/>
	<circle class="st8" cx="317" cy="192.6" r="1.1"/>
	<circle class="st8" cx="314.8" cy="186" r="1.1"/>
	<circle class="st8" cx="313" cy="179.4" r="1.1"/>
	<circle class="st8" cx="311.6" cy="172.6" r="1.1"/>
</g>
<g id="Capa_2">
</g>
<g id="Capa_3">
	<g id="Capa_7">
		<path class="st14" d="M415.7,222.6h89.7c11.3,0,21.9,5.4,28.4,14.7l23.3,37.6c4,6.1,10.7,10.6,18,10.6h128.5
			c26,0,34.6-8.7,52.1-28.5c22.7-25.6,60.2-106.4,60.2-106.4c10.1-28.2,2.9-39.1-16.4-50C761.9,79.3,667.7,33.6,642.7,28
			c-55.3-12.3-170.4-15.4-227-15.4s-171.7,3.1-227,15.4c-25,5.6-119.2,51.3-156.9,72.5c-19.3,10.9-26.5,21.8-16.4,50
			c0,0,37.5,80.8,60.2,106.4c17.5,19.7,26.1,28.5,52.1,28.5h128.5c7.3,0,14-4.5,18-10.6l23.3-37.6c6.5-9.3,17.1-14.7,28.4-14.7
			C326,222.6,415.7,222.6,415.7,222.6z"/>
		<g id="Capa_12">
			<circle class="st14" cx="415.7" cy="155.4" r="112.6"/>
		</g>
		<g id="Capa_15">
			<path class="st15" d="M415.7,34.9c0,0-38.6,0.5-60.9,3.4c-28.7,3.8-47.2,9-47.2,9"/>
			<path class="st16" d="M263,156.5"/>
			<circle class="st15" cx="415.7" cy="155.4" r="120.5"/>
			<line class="st17" x1="415.7" y1="155.3" x2="263" y2="155.4"/>
			<line class="st17" x1="415.7" y1="155.3" x2="268.2" y2="115.8"/>
			<line class="st17" x1="415.7" y1="155.3" x2="283.4" y2="79"/>
			<line class="st17" x1="415.7" y1="155.3" x2="307.7" y2="47.3"/>
			<line class="st17" x1="415.7" y1="155.3" x2="268.2" y2="194.9"/>
			<line class="st17" x1="415.7" y1="155.3" x2="283.5" y2="231.7"/>
			<circle class="st16" cx="415.7" cy="155.3" r="152.7"/>
			<g id="Capa_13" class="st0">
				<circle class="st18" cx="415.7" cy="155.4" r="117.2"/>
			</g>
		</g>
	</g>
	<line class="st19" x1="479.9" y1="241" x2="351.6" y2="241"/>
	<line class="st20" x1="479.7" y1="241.7" x2="351.5" y2="241.7"/>
	<path class="st21" d="M0,0"/>
	<path class="st21" d="M128.3,0"/>
	<path class="st22" d="M313.6,240.2c-0.1-0.1-0.2-0.2-0.4-0.2h-3l0.4-4.7c0-0.2-0.1-0.4-0.3-0.4c-0.2-0.1-0.4,0-0.5,0.2l-4.7,7.3
		c-0.1,0.1-0.1,0.3,0,0.4s0.2,0.2,0.4,0.2h3l-0.4,5.1c0,0.2,0.1,0.4,0.3,0.4c0,0,0.1,0,0.1,0c0.1,0,0.3-0.1,0.4-0.2l4.7-7.7
		C313.6,240.5,313.7,240.3,313.6,240.2L313.6,240.2z"/>
	<rect x="335.7" y="238.3" class="st3" width="16.9" height="9.1"/>
	<text transform="matrix(1 0 0 1 339.8661 244.354)" class="st4 st23 st24">%</text>
	<path class="st14" d="M553.3,268.6l-17.8-6c-7.7-2.6-15.9-3.9-24-3.9h-95.8h-95.8c-8.2,0-16.3,1.3-24,3.9l-17.8,6"/>
	<rect x="512.3" y="238.6" class="st3" width="16.7" height="9.1"/>
	<text transform="matrix(1 0 0 1 516.2717 243.1646)" class="st4 st23 st25">km</text>
</g>
<g id="Capa_3_copia_2" class="st0">
	<path class="st26" d="M414.3,12.4c0,0-173.8,8.4-226.1,19.1C155.8,38.1,76.3,78,50,94.4C27.2,108.7,5.3,120.2,13,147
		c14.6,50.3,69.3,144,103.8,144l136.7-0.2c8.9,0.3,20.8-7.2,26.5-17.2l19.3-32.1c7.3-10.6,16.4-13.5,27.8-13.5h86.9"/>
</g>
<g id="Capa_14" class="st0">
	<polyline class="st27" points="415.7,310.7 415.7,155.4 415.7,0 	"/>
</g>
</svg>
