<?xml version="1.0" encoding="utf-8"?>
<!-- Generator: Adobe Illustrator 19.0.0, SVG Export Plug-In . SVG Version: 6.00 Build 0)  -->
<svg version="1.1" xmlns="http://www.w3.org/2000/svg" xmlns:xlink="http://www.w3.org/1999/xlink" x="0px" y="0px"
	 viewBox="0 0 828.7 310.7" style="enable-background:new 0 0 828.7 310.7;" xml:space="preserve">
<style type="text/css">
	.st0{fill:#1E1E1E;}
	.st1{fill:none;stroke:#26A4C6;stroke-width:3;stroke-miterlimit:10;}
	.st2{fill:url(#SVGID_1_);stroke:#26A4C6;stroke-width:3;stroke-miterlimit:10;}
	.st3{opacity:0.26;fill:none;stroke:#616768;stroke-width:5;stroke-miterlimit:10;}
	.st4{opacity:0.26;fill:none;stroke:#616768;stroke-width:0.5;stroke-miterlimit:10;}
	.st5{fill:none;}
	.st6{fill:#AECED1;}
	.st7{font-family:'Verdana-Italic';}
	.st8{font-size:11px;}
	.st9{font-size:7px;}
	.st10{display:none;}
	.st11{display:inline;fill:#CDF3F9;}
	.st12{display:inline;fill:#58D3E0;}
	.st13{display:inline;fill:#CE5300;}
	.st14{display:inline;fill:#843500;}
	.st15{display:inline;fill:#EF2511;}
	.st16{display:inline;fill:#6B0000;}
	.st17{fill:none;stroke:#CDF3F9;stroke-width:2;stroke-miterlimit:10;}
	.st18{fill:none;stroke:#58D3E0;stroke-width:3;stroke-miterlimit:10;}
	.st19{fill:none;stroke:#CE5300;stroke-width:3;stroke-miterlimit:10;}
	.st20{fill:none;stroke:#843500;stroke-width:2;stroke-miterlimit:10;}
	.st21{fill:none;stroke:#EF2511;stroke-width:3;stroke-miterlimit:10;}
	.st22{fill:none;stroke:#6B0000;stroke-width:2;stroke-miterlimit:10;}
	.st23{fill:none;stroke:#155B6B;stroke-width:8;stroke-miterlimit:10;}
	.st24{fill:none;stroke:#26A4C6;stroke-width:8;stroke-miterlimit:10;}
	.st25{fill:#26A4C6;}
	.st26{font-family:'Verdana';}
	.st27{font-size:8px;}
	.st28{font-size:6px;}
	.st29{display:inline;fill:none;stroke:#26A4C6;stroke-miterlimit:10;}
	.st30{display:inline;fill:none;stroke:#55E9F9;stroke-width:2;stroke-miterlimit:10;}
	.st31{display:inline;}
	.st32{fill:none;stroke:#55E9F9;stroke-width:2;stroke-miterlimit:10;}
	.st33{fill:none;stroke:#26A4C6;stroke-miterlimit:10;}
	.st34{display:inline;fill:none;stroke:#C10000;stroke-miterlimit:10;}
	.st35{display:inline;fill:none;stroke:#AD6423;stroke-miterlimit:10;}
</style>
<g id="Capa_10">
	<rect class="st0" width="828.7" height="310.7"/>
</g>
<g id="Capa_21">
	<g id="Capa_3">
		<g id="Capa_2">
			<g id="Capa_6_copia">
				<path class="st1" d="M301.6,155.4c0-62.2,50.4-112.7,112.7-112.7S527,98.8,527,155.4c0,62.2-50.4,112.7-112.7,112.7
					S301.6,217.6,301.6,155.4z"/>
			</g>
			<g id="Capa_10_copia">
				<rect x="317.3" y="223.4" class="st0" width="193.7" height="87.6"/>
			</g>
		</g>
		<g id="Capa_7">
			<linearGradient id="SVGID_1_" gradientUnits="userSpaceOnUse" x1="414.325" y1="12.5673" x2="414.325" y2="285.4177">
				<stop  offset="0" style="stop-color:#1F1F1F;stop-opacity:0.1"/>
				<stop  offset="0.263" style="stop-color:#1F2122;stop-opacity:0.1"/>
				<stop  offset="0.4212" style="stop-color:#1D292A;stop-opacity:0.1"/>
				<stop  offset="0.5517" style="stop-color:#1A3638;stop-opacity:0.1"/>
				<stop  offset="0.6671" style="stop-color:#16494D;stop-opacity:0.1"/>
				<stop  offset="0.7725" style="stop-color:#116167;stop-opacity:0.1"/>
				<stop  offset="0.8708" style="stop-color:#0B7F87;stop-opacity:0.1"/>
				<stop  offset="0.9616" style="stop-color:#04A1AD;stop-opacity:0.1"/>
				<stop  offset="1" style="stop-color:#00B2BF;stop-opacity:0.1"/>
			</linearGradient>
			<path class="st2" d="M414.3,222.6H504c11.3,0,21.9,5.4,28.4,14.7l23.3,37.6c4,6.1,10.7,10.6,18,10.6h128.5
				c26,0,34.6-8.7,52.1-28.5c22.7-25.6,60.2-106.4,60.2-106.4c10.1-28.2,2.9-39.1-16.4-50C760.5,79.3,666.3,33.6,641.3,28
				c-55.3-12.3-170.4-15.4-227-15.4s-171.7,3.1-227,15.4c-25,5.6-119.2,51.3-156.9,72.5c-19.3,10.9-26.5,21.8-16.4,50
				c0,0,37.5,80.8,60.2,106.4c17.5,19.7,26.1,28.5,52.1,28.5h128.5c7.3,0,14-4.5,18-10.6l23.3-37.6c6.5-9.3,17.1-14.7,28.4-14.7
				H414.3"/>
			<g id="Capa_6">
				<path class="st0" d="M324.6,221.2c-14.2-18.7-21.4-40.5-21.4-65.7c0-61.4,49.8-111.1,111.1-111.1s111.1,55.3,111.1,111.1
					c0,25.3-7.2,47.1-21.4,65.8"/>
			</g>
			<g id="Capa_19">
				<path class="st3" d="M339.6,219.1c-14.8-17.2-23.5-39.3-23.5-63.7c0-54.2,44-98.2,98.2-98.2s98.2,44,98.2,98.2
					c0,24.4-8.7,46.6-23.5,63.7"/>
				<path class="st4" d="M342.7,216.7c-14.2-16.5-22.6-37.8-22.6-61.2c0-52.1,42.3-94.4,94.4-94.4s94.4,42.3,94.4,94.4
					c0,23.5-8.4,44.8-22.6,61.3"/>
			</g>
			<path class="st1" d="M414.3,42.7c-56.5,0-172.1,10-227,15.4c-10.5,1-28.7-15.9-39.2-15.4"/>
			<path class="st1" d="M414.3,42.7c56.5,0,172.1,10,227,15.4c10.5,1,28.7-15.9,39.2-15.4"/>
		</g>
		<g id="Capa_11">
			<rect x="391.9" y="171.8" class="st5" width="47.5" height="18.3"/>
			<text transform="matrix(1 0 0 1 401.0664 180.1878)" class="st6 st7 st8">km/h</text>
			<rect x="323.8" y="201.6" class="st5" width="9.5" height="9.1"/>
			<text transform="matrix(1 0 0 1 326.2881 206.8985)" class="st6 st7 st9">0</text>
			<rect x="309.3" y="141.8" class="st5" width="15.7" height="9.1"/>
			<text transform="matrix(1 0 0 1 312.6677 147.1647)" class="st6 st7 st9">40</text>
			<rect x="326.6" y="87.2" class="st5" width="28.5" height="16.1"/>
			<text transform="matrix(1 0 0 1 336.4229 92.4759)" class="st6 st7 st9">80</text>
			<rect x="369.4" y="59.6" class="st5" width="28.5" height="16.1"/>
			<text transform="matrix(1 0 0 1 376.9701 64.932)" class="st6 st7 st9">120</text>
			<rect x="428.9" y="59.6" class="st5" width="28.5" height="16.1"/>
			<text transform="matrix(1 0 0 1 436.5406 64.932)" class="st6 st7 st9">160</text>
			<rect x="471.9" y="87.2" class="st5" width="28.5" height="16.1"/>
			<text transform="matrix(1 0 0 1 479.5025 92.4759)" class="st6 st7 st9">200</text>
			<rect x="495.9" y="142.6" class="st5" width="28.5" height="16.1"/>
			<text transform="matrix(1 0 0 1 503.4835 147.9305)" class="st6 st7 st9">240</text>
			<rect x="483.3" y="202.4" class="st5" width="28.5" height="16.1"/>
			<text transform="matrix(1 0 0 1 490.9022 207.6914)" class="st6 st7 st9">280</text>
		</g>
		<g id="Capa_9" class="st10">
			<circle class="st11" cx="309.3" cy="165.8" r="1.1"/>
			<circle class="st11" cx="308.8" cy="158.9" r="1.1"/>
			<circle class="st11" cx="308.8" cy="152" r="1.1"/>
			<circle class="st12" cx="309.3" cy="145.1" r="1.7"/>
			<circle class="st11" cx="310.2" cy="138.2" r="1.1"/>
			<circle class="st11" cx="311.5" cy="131.4" r="1.1"/>
			<circle class="st11" cx="313.3" cy="124.8" r="1.1"/>
			<circle class="st11" cx="315.5" cy="118.2" r="1.1"/>
			<circle class="st11" cx="318.2" cy="111.9" r="1.1"/>
			<circle class="st11" cx="321.2" cy="105.7" r="1.1"/>
			<circle class="st11" cx="324.7" cy="99.7" r="1.1"/>
			<circle class="st11" cx="328.5" cy="93.9" r="1.1"/>
			<circle class="st12" cx="332.7" cy="88.4" r="1.7"/>
			<circle class="st11" cx="337.3" cy="83.3" r="1.1"/>
			<circle class="st11" cx="342.1" cy="78.4" r="1.1"/>
			<circle class="st11" cx="347.3" cy="73.8" r="1.1"/>
			<circle class="st11" cx="352.8" cy="69.6" r="1.1"/>
			<circle class="st11" cx="358.6" cy="65.8" r="1.1"/>
			<circle class="st11" cx="364.5" cy="62.3" r="1.1"/>
			<circle class="st11" cx="370.7" cy="59.3" r="1.1"/>
			<circle class="st11" cx="377.1" cy="56.6" r="1.1"/>
			<circle class="st13" cx="383.6" cy="54.4" r="1.7"/>
			<circle class="st14" cx="390.3" cy="52.6" r="1.1"/>
			<circle class="st14" cx="397.1" cy="51.2" r="1.1"/>
			<circle class="st14" cx="403.9" cy="50.3" r="1.1"/>
			<circle class="st14" cx="410.8" cy="49.9" r="1.1"/>
			<circle class="st14" cx="417.7" cy="49.9" r="1.1"/>
			<circle class="st14" cx="424.6" cy="50.3" r="1.1"/>
			<circle class="st14" cx="431.5" cy="51.2" r="1.1"/>
			<circle class="st14" cx="438.2" cy="52.6" r="1.1"/>
			<circle class="st13" cx="444.9" cy="54.4" r="1.7"/>
			<circle class="st14" cx="451.5" cy="56.6" r="1.1"/>
			<circle class="st14" cx="457.8" cy="59.2" r="1.1"/>
			<circle class="st14" cx="464" cy="62.3" r="1.1"/>
			<circle class="st14" cx="470" cy="65.7" r="1.1"/>
			<circle class="st14" cx="475.8" cy="69.6" r="1.1"/>
			<circle class="st14" cx="481.2" cy="73.8" r="1.1"/>
			<circle class="st14" cx="486.4" cy="78.3" r="1.1"/>
			<circle class="st14" cx="491.3" cy="83.2" r="1.1"/>
			<circle class="st15" cx="495.9" cy="88.4" r="1.7"/>
			<circle class="st16" cx="500.1" cy="93.9" r="1.1"/>
			<circle class="st16" cx="503.9" cy="99.6" r="1.1"/>
			<circle class="st16" cx="507.4" cy="105.6" r="1.1"/>
			<circle class="st16" cx="510.4" cy="111.8" r="1.1"/>
			<circle class="st16" cx="513.1" cy="118.1" r="1.1"/>
			<circle class="st16" cx="515.3" cy="124.7" r="1.1"/>
			<circle class="st16" cx="517.1" cy="131.4" r="1.1"/>
			<circle class="st16" cx="518.4" cy="138.1" r="1.1"/>
			<circle class="st15" cx="519.3" cy="145" r="1.7"/>
			<circle class="st16" cx="519.8" cy="151.9" r="1.1"/>
			<circle class="st16" cx="519.8" cy="158.8" r="1.1"/>
			<circle class="st16" cx="519.4" cy="165.7" r="1.1"/>
			<circle class="st16" cx="518.5" cy="172.5" r="1.1"/>
			<circle class="st16" cx="517.1" cy="179.3" r="1.1"/>
			<circle class="st16" cx="515.3" cy="186" r="1.1"/>
			<circle class="st16" cx="513.1" cy="192.5" r="1.1"/>
			<circle class="st16" cx="510.5" cy="198.9" r="1.1"/>
			<circle class="st15" cx="507.4" cy="205.1" r="1.7"/>
			<circle class="st12" cx="321.3" cy="205.2" r="1.7"/>
			<circle class="st11" cx="318.2" cy="199" r="1.1"/>
			<circle class="st11" cx="315.6" cy="192.6" r="1.1"/>
			<circle class="st11" cx="313.3" cy="186" r="1.1"/>
			<circle class="st11" cx="311.6" cy="179.4" r="1.1"/>
			<circle class="st11" cx="310.2" cy="172.6" r="1.1"/>
		</g>
		<g id="Capa_23">
			<polyline class="st17" points="306.3,151.9 308.9,152 311.6,152.1 			"/>
			<polyline class="st18" points="306.7,144.8 309.4,145.1 312,145.3 			"/>
			<polyline class="st17" points="307.7,137.8 310.3,138.2 312.9,138.7 			"/>
			<polyline class="st17" points="309.1,130.8 311.7,131.4 314.2,132 			"/>
			<polyline class="st17" points="310.9,124 313.5,124.8 316,125.5 			"/>
			<polyline class="st17" points="313.2,117.3 315.7,118.2 318.2,119.2 			"/>
			<polyline class="st17" points="315.9,110.8 318.3,111.8 320.7,112.9 			"/>
			<polyline class="st17" points="319.1,104.4 321.4,105.7 323.7,106.9 			"/>
			<polyline class="st17" points="322.6,98.3 324.9,99.7 327.1,101.1 			"/>
			<polyline class="st17" points="326.6,92.4 328.7,93.9 330.9,95.5 			"/>
			<polyline class="st18" points="330.9,86.8 332.9,88.4 335,90.1 			"/>
			<polyline class="st17" points="335.6,81.4 337.5,83.3 339.4,85.1 			"/>
			<polyline class="st17" points="340.6,76.4 342.4,78.4 344.2,80.3 			"/>
			<polyline class="st17" points="345.9,71.8 347.6,73.8 349.3,75.9 			"/>
			<polyline class="st17" points="351.5,67.5 353.1,69.6 354.6,71.8 			"/>
			<polyline class="st17" points="357.4,63.5 358.8,65.8 360.2,68 			"/>
			<polyline class="st17" points="363.6,60 364.8,62.3 366.1,64.7 			"/>
			<polyline class="st17" points="369.9,56.9 371,59.3 372.1,61.7 			"/>
			<polyline class="st17" points="376.5,54.2 377.4,56.7 378.3,59.1 			"/>
			<polyline class="st19" points="383.2,51.9 384,54.4 384.7,57 			"/>
			<polyline class="st20" points="390,50.1 390.6,52.7 391.2,55.2 			"/>
			<polyline class="st20" points="397,48.7 397.4,51.3 397.9,53.9 			"/>
			<polyline class="st20" points="404,47.8 404.3,50.4 404.5,53.1 			"/>
			<polyline class="st20" points="411.1,47.3 411.2,50 411.3,52.6 			"/>
			<polyline class="st20" points="418.2,47.3 418.1,50 418,52.6 			"/>
			<polyline class="st20" points="425.2,47.8 425,50.5 424.7,53.1 			"/>
			<polyline class="st20" points="432.3,48.7 431.8,51.4 431.4,54 			"/>
			<polyline class="st20" points="439.2,50.1 438.6,52.7 438,55.3 			"/>
			<polyline class="st19" points="446.1,52 445.3,54.5 444.5,57 			"/>
			<polyline class="st20" points="452.8,54.3 451.8,56.7 450.9,59.2 			"/>
			<polyline class="st20" points="459.3,57 458.2,59.4 457.1,61.8 			"/>
			<polyline class="st20" points="465.7,60.1 464.4,62.5 463.2,64.8 			"/>
			<polyline class="st20" points="471.8,63.7 470.4,65.9 469,68.2 			"/>
			<polyline class="st20" points="477.7,67.6 476.1,69.8 474.6,71.9 			"/>
			<polyline class="st20" points="483.3,71.9 481.6,74 479.9,76 			"/>
			<polyline class="st20" points="488.6,76.6 486.8,78.6 485,80.5 			"/>
			<polyline class="st20" points="493.6,81.6 491.7,83.4 489.8,85.3 			"/>
			<polyline class="st21" points="498.3,87 496.2,88.7 494.2,90.3 			"/>
			<polyline class="st22" points="502.6,92.6 500.4,94.1 498.3,95.7 			"/>
			<polyline class="st22" points="506.5,98.5 504.3,99.9 502,101.3 			"/>
			<polyline class="st22" points="510.1,104.6 507.7,105.9 505.4,107.1 			"/>
			<polyline class="st22" points="513.2,111 510.8,112.1 508.4,113.2 			"/>
			<polyline class="st22" points="515.9,117.5 513.4,118.5 510.9,119.4 			"/>
			<polyline class="st22" points="518.2,124.3 515.6,125 513.1,125.8 			"/>
			<polyline class="st22" points="520,131.1 517.4,131.7 514.8,132.3 			"/>
			<polyline class="st22" points="521.4,138.1 518.7,138.5 516.1,138.9 			"/>
			<polyline class="st21" points="522.3,145.1 519.6,145.3 517,145.6 			"/>
			<polyline class="st22" points="522.7,152.1 520.1,152.2 517.4,152.3 			"/>
			<polyline class="st22" points="522.7,159.2 520.1,159.1 517.4,159.1 			"/>
			<polyline class="st22" points="522.3,166.3 519.6,166 517,165.8 			"/>
			<polyline class="st22" points="521.3,173.3 518.7,172.9 516.1,172.5 			"/>
			<polyline class="st22" points="519.9,180.3 517.3,179.7 514.8,179.1 			"/>
			<polyline class="st22" points="518.1,187.1 515.5,186.4 513,185.6 			"/>
			<polyline class="st22" points="515.8,193.8 513.3,192.9 510.8,192 			"/>
			<polyline class="st22" points="513.1,200.4 510.7,199.3 508.3,198.2 			"/>
			<polyline class="st21" points="509.9,206.7 507.6,205.5 505.3,204.2 			"/>
			<polyline class="st17" points="477.5,243.7 475.9,241.5 474.4,239.4 			"/>
			<polyline class="st18" points="318.9,206.5 321.3,205.2 323.6,204 			"/>
			<polyline class="st17" points="315.8,200.1 318.2,199 320.6,197.9 			"/>
			<polyline class="st17" points="313.1,193.6 315.6,192.7 318.1,191.7 			"/>
			<polyline class="st17" points="310.8,186.9 313.4,186.1 315.9,185.3 			"/>
			<polyline class="st17" points="309,180 311.6,179.4 314.2,178.8 			"/>
			<polyline class="st17" points="307.6,173.1 310.3,172.6 312.9,172.2 			"/>
			<polyline class="st17" points="306.7,166 309.4,165.8 312,165.5 			"/>
			<polyline class="st17" points="306.3,159 308.9,158.9 311.6,158.8 			"/>
		</g>
		<g id="Capa_20">
		</g>
		<line class="st23" x1="479.8" y1="241.7" x2="351.5" y2="241.7"/>
		<line class="st24" x1="479.7" y1="241.7" x2="351.5" y2="241.7"/>
		<path class="st25" d="M313.6,240.2c-0.1-0.1-0.2-0.2-0.4-0.2h-3l0.4-4.7c0-0.2-0.1-0.4-0.3-0.4c-0.2-0.1-0.4,0-0.5,0.2l-4.7,7.3
			c-0.1,0.1-0.1,0.3,0,0.4s0.2,0.2,0.4,0.2h3l-0.4,5.1c0,0.2,0.1,0.4,0.3,0.4c0,0,0.1,0,0.1,0c0.1,0,0.3-0.1,0.4-0.2l4.7-7.7
			C313.6,240.5,313.7,240.3,313.6,240.2L313.6,240.2z"/>
		<rect x="336.4" y="238.3" class="st5" width="16.9" height="9.1"/>
		<text transform="matrix(1 0 0 1 340.5748 244.354)" class="st6 st26 st27">%</text>
		<g id="Capa_12">
			<path class="st1" d="M551.8,268.6l-17.8-6c-7.7-2.6-15.9-3.9-24-3.9h-95.8h-95.8c-8.2,0-16.3,1.3-24,3.9l-17.8,6"/>
		</g>
		<rect x="514.5" y="238.6" class="st5" width="16.7" height="9.1"/>
		<text transform="matrix(1 0 0 1 518.3977 243.1646)" class="st6 st26 st28">km</text>
	</g>
	<g id="Capa_13" class="st10">
		<circle class="st29" cx="414.3" cy="155.4" r="55.8"/>
		<line class="st30" x1="354.7" y1="155.4" x2="305.2" y2="155.4"/>
		<g id="Capa_14" class="st31">
			<line class="st32" x1="305.2" y1="155.4" x2="354.8" y2="153.4"/>
			<line class="st32" x1="305.2" y1="155.4" x2="354.8" y2="157.4"/>
			<path class="st33" d="M354.7,155.4c0,0,0-5.4,0.7-7c0.7-1.7,4.3-5,4.3-5"/>
			<path class="st33" d="M354.7,155.4c0,0,0,5.4,0.7,7c0.7,1.7,4.3,5,4.3,5"/>
		</g>
	</g>
	<g id="Capa_22">
		<path class="st1" d="M490.7,222.6l-3.4-3.1c-5.7-5.3-13.3-8.2-21.1-8.2h-52h-52c-7.8,0-15.3,2.9-21.1,8.2l-3.4,3.1"/>
	</g>
</g>
<g id="Capa_13_copia_2">
</g>
<g id="Capa_13_copia" class="st10">
	<g id="Capa_14_copia_2" class="st31">
		<line class="st32" x1="99.4" y1="0" x2="55.9" y2="2"/>
		<line class="st32" x1="99.4" y1="0" x2="55.9" y2="-2"/>
	</g>
	<circle class="st29" cx="0.1" cy="0" r="52.4"/>
	<line class="st30" x1="56" y1="0" x2="99.4" y2="0"/>
	<g id="Capa_14_copia" class="st31">
		<path class="st33" d="M56,0c0,0,0-5.4-0.7-7c-0.7-1.7-4.3-5-4.3-5"/>
		<path class="st33" d="M56,0c0,0,0,5.4-0.7,7c-0.7,1.7-4.3,5-4.3,5"/>
	</g>
</g>
<g id="Capa_3_copia_2" class="st10">
	<path class="st34" d="M414.3,12.4c0,0-173.8,8.4-226.1,19.1C155.8,38.1,76.3,78,50,94.4C27.2,108.7,5.3,120.2,13,147
		c14.6,50.3,69.3,144,103.8,144l136.7-0.2c8.9,0.3,20.8-7.2,26.5-17.2l19.3-32.1c7.3-10.6,16.4-13.5,27.8-13.5h86.9"/>
</g>
<g id="Capa_5" class="st10">
	<line class="st35" x1="414.3" y1="0" x2="414.3" y2="310.7"/>
	<line class="st35" x1="414.3" y1="155.4" x2="828.7" y2="155.4"/>
	<line class="st35" x1="414.3" y1="155.4" x2="797.1" y2="313.9"/>
	<line class="st35" x1="414.3" y1="155.4" x2="707.3" y2="448.3"/>
	<line class="st35" x1="414.3" y1="155.4" x2="121.4" y2="448.3"/>
	<line class="st35" x1="414.3" y1="155.4" x2="0" y2="155.4"/>
	<line class="st35" x1="414.3" y1="155.4" x2="31.5" y2="313.9"/>
</g>
</svg>
