<?xml version="1.0" encoding="utf-8"?>
<!-- Generator: Adobe Illustrator 19.0.0, SVG Export Plug-In . SVG Version: 6.00 Build 0)  -->
<svg version="1.1" xmlns="http://www.w3.org/2000/svg" xmlns:xlink="http://www.w3.org/1999/xlink" x="0px" y="0px"
	 viewBox="0 0 828.7 310.7" style="enable-background:new 0 0 828.7 310.7;" xml:space="preserve">
<style type="text/css">
	.st0{display:none;}
	.st1{display:inline;fill:#1E1E1E;}
	.st2{display:inline;}
	.st3{fill:#1E1E1E;stroke:#26A4C6;stroke-width:3;stroke-miterlimit:10;}
	.st4{fill:#1E1E1E;}
	.st5{fill:url(#SVGID_1_);stroke:#26A4C6;stroke-width:3;stroke-miterlimit:10;}
	.st6{opacity:0.26;fill:none;stroke:#616768;stroke-width:5;stroke-miterlimit:10;}
	.st7{opacity:0.26;fill:none;stroke:#616768;stroke-width:0.5;stroke-miterlimit:10;}
	.st8{fill:none;stroke:#26A4C6;stroke-width:3;stroke-miterlimit:10;}
	.st9{fill:none;}
	.st10{fill:#AECED1;}
	.st11{font-family:'Verdana-Italic';}
	.st12{font-size:11px;}
	.st13{font-size:7px;}
	.st14{fill:#CDF3F9;}
	.st15{fill:#58D3E0;}
	.st16{fill:#CE5300;}
	.st17{fill:#843500;}
	.st18{fill:#EF2511;}
	.st19{fill:#6B0000;}
	.st20{fill:none;stroke:#155B6B;stroke-width:8;stroke-miterlimit:10;}
	.st21{fill:none;stroke:#26A4C6;stroke-width:8;stroke-miterlimit:10;}
	.st22{fill:#26A4C6;}
	.st23{font-family:'Verdana';}
	.st24{font-size:8px;}
	.st25{font-size:6px;}
	.st26{display:inline;fill:none;stroke:#26A4C6;stroke-miterlimit:10;}
	.st27{display:inline;fill:none;stroke:#55E9F9;stroke-width:2;stroke-miterlimit:10;}
	.st28{fill:none;stroke:#55E9F9;stroke-width:2;stroke-miterlimit:10;}
	.st29{fill:none;stroke:#26A4C6;stroke-miterlimit:10;}
	.st30{display:inline;fill:none;stroke:#C10000;stroke-miterlimit:10;}
	.st31{display:inline;fill:none;stroke:#AD6423;stroke-miterlimit:10;}
</style>
<g id="Capa_10" class="st0">
	<rect class="st1" width="828.7" height="310.7"/>
</g>
<g id="Capa_21" class="st0">
	<g id="Capa_3" class="st2">
		<g id="Capa_2">
			<g id="Capa_6_copia">
				<path class="st3" d="M301.6,155.4c0-62.2,50.4-112.7,112.7-112.7S527,98.8,527,155.4c0,62.2-50.4,112.7-112.7,112.7
					S301.6,217.6,301.6,155.4z"/>
			</g>
			<g id="Capa_10_copia">
				<rect x="317.3" y="223.4" class="st4" width="193.7" height="87.6"/>
			</g>
		</g>
		<g id="Capa_7">
			<linearGradient id="SVGID_1_" gradientUnits="userSpaceOnUse" x1="414.325" y1="12.5673" x2="414.325" y2="285.4177">
				<stop  offset="0" style="stop-color:#1F1F1F;stop-opacity:0.1"/>
				<stop  offset="0.263" style="stop-color:#1F2122;stop-opacity:0.1"/>
				<stop  offset="0.4212" style="stop-color:#1D292A;stop-opacity:0.1"/>
				<stop  offset="0.5517" style="stop-color:#1A3638;stop-opacity:0.1"/>
				<stop  offset="0.6671" style="stop-color:#16494D;stop-opacity:0.1"/>
				<stop  offset="0.7725" style="stop-color:#116167;stop-opacity:0.1"/>
				<stop  offset="0.8708" style="stop-color:#0B7F87;stop-opacity:0.1"/>
				<stop  offset="0.9616" style="stop-color:#04A1AD;stop-opacity:0.1"/>
				<stop  offset="1" style="stop-color:#00B2BF;stop-opacity:0.1"/>
			</linearGradient>
			<path class="st5" d="M414.3,222.6H504c11.3,0,21.9,5.4,28.4,14.7l23.3,37.6c4,6.1,10.7,10.6,18,10.6h128.5
				c26,0,34.6-8.7,52.1-28.5c22.7-25.6,60.2-106.4,60.2-106.4c10.1-28.2,2.9-39.1-16.4-50C760.5,79.3,666.3,33.6,641.3,28
				c-55.3-12.3-170.4-15.4-227-15.4s-171.7,3.1-227,15.4c-25,5.6-119.2,51.3-156.9,72.5c-19.3,10.9-26.5,21.8-16.4,50
				c0,0,37.5,80.8,60.2,106.4c17.5,19.7,26.1,28.5,52.1,28.5h128.5c7.3,0,14-4.5,18-10.6l23.3-37.6c6.5-9.3,17.1-14.7,28.4-14.7
				H414.3"/>
			<g id="Capa_6">
				<path class="st4" d="M324.6,221.1c-14.2-18.7-21.4-40.5-21.4-65.7C303.2,94,353,44.2,414.3,44.2s111.1,55.3,111.1,111.1
					c0,25.3-7.2,47.1-21.4,65.8"/>
			</g>
			<g id="Capa_19">
				<path class="st6" d="M339.6,219.1c-14.8-17.2-23.5-39.3-23.5-63.7c0-54.2,44-98.2,98.2-98.2s98.2,44,98.2,98.2
					c0,24.4-8.7,46.6-23.5,63.7"/>
				<path class="st7" d="M342.7,216.7c-14.2-16.5-22.6-37.8-22.6-61.2c0-52.1,42.3-94.4,94.4-94.4s94.4,42.3,94.4,94.4
					c0,23.5-8.4,44.8-22.6,61.3"/>
			</g>
			<path class="st8" d="M414.3,252.7"/>
			<path class="st8" d="M414.3,252.7"/>
			<path class="st8" d="M414.3,42.7c-56.5,0-172.1,10-227,15.4c-10.5,1-28.7-15.9-39.2-15.4"/>
			<path class="st8" d="M414.3,42.7c56.5,0,172.1,10,227,15.4c10.5,1,28.7-15.9,39.2-15.4"/>
		</g>
		<g id="Capa_11">
			<rect x="391.9" y="171.8" class="st9" width="47.5" height="18.3"/>
			<text transform="matrix(1 0 0 1 401.0664 180.1878)" class="st10 st11 st12">km/h</text>
			<rect x="323.8" y="201.6" class="st9" width="9.5" height="9.1"/>
			<text transform="matrix(1 0 0 1 326.2881 206.8985)" class="st10 st11 st13">0</text>
			<rect x="309.3" y="141.8" class="st9" width="15.7" height="9.1"/>
			<text transform="matrix(1 0 0 1 312.6677 147.1647)" class="st10 st11 st13">40</text>
			<rect x="326.6" y="87.2" class="st9" width="28.5" height="16.1"/>
			<text transform="matrix(1 0 0 1 336.4229 92.4759)" class="st10 st11 st13">80</text>
			<rect x="369.4" y="59.6" class="st9" width="28.5" height="16.1"/>
			<text transform="matrix(1 0 0 1 376.9701 64.932)" class="st10 st11 st13">120</text>
			<rect x="428.9" y="59.6" class="st9" width="28.5" height="16.1"/>
			<text transform="matrix(1 0 0 1 436.5406 64.932)" class="st10 st11 st13">160</text>
			<rect x="471.9" y="87.2" class="st9" width="28.5" height="16.1"/>
			<text transform="matrix(1 0 0 1 479.5025 92.4759)" class="st10 st11 st13">200</text>
			<rect x="495.9" y="142.6" class="st9" width="28.5" height="16.1"/>
			<text transform="matrix(1 0 0 1 503.4835 147.9305)" class="st10 st11 st13">240</text>
			<rect x="483.3" y="202.4" class="st9" width="28.5" height="16.1"/>
			<text transform="matrix(1 0 0 1 490.9022 207.6914)" class="st10 st11 st13">280</text>
		</g>
		<g id="Capa_9">
			<circle class="st14" cx="309.3" cy="165.8" r="1.1"/>
			<circle class="st14" cx="308.8" cy="158.9" r="1.1"/>
			<circle class="st14" cx="308.8" cy="152" r="1.1"/>
			<circle class="st15" cx="309.3" cy="145.1" r="1.7"/>
			<circle class="st14" cx="310.2" cy="138.2" r="1.1"/>
			<circle class="st14" cx="311.5" cy="131.4" r="1.1"/>
			<circle class="st14" cx="313.3" cy="124.8" r="1.1"/>
			<circle class="st14" cx="315.5" cy="118.2" r="1.1"/>
			<circle class="st14" cx="318.2" cy="111.9" r="1.1"/>
			<circle class="st14" cx="321.2" cy="105.7" r="1.1"/>
			<circle class="st14" cx="324.7" cy="99.7" r="1.1"/>
			<circle class="st14" cx="328.5" cy="93.9" r="1.1"/>
			<circle class="st15" cx="332.7" cy="88.4" r="1.7"/>
			<circle class="st14" cx="337.3" cy="83.3" r="1.1"/>
			<circle class="st14" cx="342.1" cy="78.4" r="1.1"/>
			<circle class="st14" cx="347.3" cy="73.8" r="1.1"/>
			<circle class="st14" cx="352.8" cy="69.6" r="1.1"/>
			<circle class="st14" cx="358.6" cy="65.8" r="1.1"/>
			<circle class="st14" cx="364.5" cy="62.3" r="1.1"/>
			<circle class="st14" cx="370.7" cy="59.3" r="1.1"/>
			<circle class="st14" cx="377.1" cy="56.6" r="1.1"/>
			<circle class="st16" cx="383.6" cy="54.4" r="1.7"/>
			<circle class="st17" cx="390.3" cy="52.6" r="1.1"/>
			<circle class="st17" cx="397.1" cy="51.2" r="1.1"/>
			<circle class="st17" cx="403.9" cy="50.3" r="1.1"/>
			<circle class="st17" cx="410.8" cy="49.9" r="1.1"/>
			<circle class="st17" cx="417.7" cy="49.9" r="1.1"/>
			<circle class="st17" cx="424.6" cy="50.3" r="1.1"/>
			<circle class="st17" cx="431.5" cy="51.2" r="1.1"/>
			<circle class="st17" cx="438.2" cy="52.6" r="1.1"/>
			<circle class="st16" cx="444.9" cy="54.4" r="1.7"/>
			<circle class="st17" cx="451.5" cy="56.6" r="1.1"/>
			<circle class="st17" cx="457.8" cy="59.2" r="1.1"/>
			<circle class="st17" cx="464" cy="62.3" r="1.1"/>
			<circle class="st17" cx="470" cy="65.7" r="1.1"/>
			<circle class="st17" cx="475.8" cy="69.6" r="1.1"/>
			<circle class="st17" cx="481.2" cy="73.8" r="1.1"/>
			<circle class="st17" cx="486.4" cy="78.3" r="1.1"/>
			<circle class="st17" cx="491.3" cy="83.2" r="1.1"/>
			<circle class="st18" cx="495.9" cy="88.4" r="1.7"/>
			<circle class="st19" cx="500.1" cy="93.9" r="1.1"/>
			<circle class="st19" cx="503.9" cy="99.6" r="1.1"/>
			<circle class="st19" cx="507.4" cy="105.6" r="1.1"/>
			<circle class="st19" cx="510.4" cy="111.8" r="1.1"/>
			<circle class="st19" cx="513.1" cy="118.1" r="1.1"/>
			<circle class="st19" cx="515.3" cy="124.7" r="1.1"/>
			<circle class="st19" cx="517.1" cy="131.4" r="1.1"/>
			<circle class="st19" cx="518.4" cy="138.1" r="1.1"/>
			<circle class="st18" cx="519.3" cy="145" r="1.7"/>
			<circle class="st19" cx="519.8" cy="151.9" r="1.1"/>
			<circle class="st19" cx="519.8" cy="158.8" r="1.1"/>
			<circle class="st19" cx="519.4" cy="165.7" r="1.1"/>
			<circle class="st19" cx="518.5" cy="172.5" r="1.1"/>
			<circle class="st19" cx="517.1" cy="179.3" r="1.1"/>
			<circle class="st19" cx="515.3" cy="186" r="1.1"/>
			<circle class="st19" cx="513.1" cy="192.5" r="1.1"/>
			<circle class="st19" cx="510.5" cy="198.9" r="1.1"/>
			<circle class="st18" cx="507.4" cy="205.1" r="1.7"/>
			<circle class="st15" cx="321.3" cy="205.2" r="1.7"/>
			<circle class="st14" cx="318.2" cy="199" r="1.1"/>
			<circle class="st14" cx="315.6" cy="192.6" r="1.1"/>
			<circle class="st14" cx="313.3" cy="186" r="1.1"/>
			<circle class="st14" cx="311.6" cy="179.4" r="1.1"/>
			<circle class="st14" cx="310.2" cy="172.6" r="1.1"/>
		</g>
		<g id="Capa_20">
		</g>
		<line class="st20" x1="479.8" y1="241.7" x2="351.5" y2="241.7"/>
		<line class="st21" x1="479.7" y1="241.7" x2="351.5" y2="241.7"/>
		<path class="st22" d="M313.6,240.2c-0.1-0.1-0.2-0.2-0.4-0.2h-3l0.4-4.7c0-0.2-0.1-0.4-0.3-0.4c-0.2-0.1-0.4,0-0.5,0.2l-4.7,7.3
			c-0.1,0.1-0.1,0.3,0,0.4s0.2,0.2,0.4,0.2h3l-0.4,5.1c0,0.2,0.1,0.4,0.3,0.4c0,0,0.1,0,0.1,0c0.1,0,0.3-0.1,0.4-0.2l4.7-7.7
			C313.6,240.5,313.7,240.3,313.6,240.2L313.6,240.2z"/>
		<rect x="336.4" y="238.3" class="st9" width="16.9" height="9.1"/>
		<text transform="matrix(1 0 0 1 340.5748 244.354)" class="st10 st23 st24">%</text>
		<g id="Capa_12">
			<path class="st8" d="M414.2,258.7h-95.8c-8.2,0-16.3,1.3-24,3.9l-17.8,6"/>
			<path class="st8" d="M414.2,258.7H510c8.2,0,16.3,1.3,24,3.9l17.8,6"/>
		</g>
		<rect x="514.5" y="238.6" class="st9" width="16.7" height="9.1"/>
		<text transform="matrix(1 0 0 1 518.3977 243.1646)" class="st10 st23 st25">km</text>
	</g>
	<g id="Capa_13">
		<circle class="st26" cx="414.3" cy="155.4" r="55.8"/>
		<line class="st27" x1="354.7" y1="155.4" x2="305.2" y2="155.4"/>
		<g id="Capa_14" class="st2">
			<line class="st28" x1="305.2" y1="155.4" x2="354.8" y2="153.4"/>
			<line class="st28" x1="305.2" y1="155.4" x2="354.8" y2="157.4"/>
			<path class="st29" d="M354.7,155.4c0,0,0-5.4,0.7-7c0.7-1.7,4.3-5,4.3-5"/>
			<path class="st29" d="M354.7,155.4c0,0,0,5.4,0.7,7c0.7,1.7,4.3,5,4.3,5"/>
		</g>
	</g>
	<g id="Capa_22" class="st2">
		<path class="st8" d="M414.2,211.2h-52c-7.8,0-15.3,2.9-21.1,8.2l-3.4,3.1"/>
		<path class="st8" d="M414.2,211.2h52c7.8,0,15.3,2.9,21.1,8.2l3.4,3.1"/>
	</g>
</g>
<g id="Capa_13_copia_2">
	<g id="Capa_14_copia_2">
		<line class="st28" x1="99.4" y1="0" x2="55.9" y2="2"/>
		<line class="st28" x1="99.4" y1="0" x2="55.9" y2="-2"/>
	</g>
</g>
<g id="Capa_13_copia">
	<circle class="st29" cx="0.1" cy="0" r="52.4"/>
	<line class="st28" x1="56" y1="0" x2="99.4" y2="0"/>
	<g id="Capa_14_copia">
		<path class="st29" d="M56,0c0,0,0-5.4-0.7-7c-0.7-1.7-4.3-5-4.3-5"/>
		<path class="st29" d="M56,0c0,0,0,5.4-0.7,7c-0.7,1.7-4.3,5-4.3,5"/>
	</g>
</g>
<g id="Capa_3_copia_2" class="st0">
	<path class="st30" d="M414.3,12.4c0,0-173.8,8.4-226.1,19.1C155.8,38.1,76.3,78,50,94.4C27.2,108.7,5.3,120.2,13,147
		c14.6,50.3,69.3,144,103.8,144l136.7-0.2c8.9,0.3,20.8-7.2,26.5-17.2l19.3-32.1c7.3-10.6,16.4-13.5,27.8-13.5h86.9"/>
</g>
<g id="Capa_5" class="st0">
	<line class="st31" x1="414.3" y1="0" x2="414.3" y2="310.7"/>
	<line class="st31" x1="414.3" y1="155.4" x2="828.7" y2="155.4"/>
	<line class="st31" x1="414.3" y1="155.4" x2="797.1" y2="313.9"/>
	<line class="st31" x1="414.3" y1="155.4" x2="707.3" y2="448.3"/>
	<line class="st31" x1="414.3" y1="155.4" x2="121.4" y2="448.3"/>
	<line class="st31" x1="414.3" y1="155.4" x2="0" y2="155.4"/>
	<line class="st31" x1="414.3" y1="155.4" x2="31.5" y2="313.9"/>
</g>
</svg>
