<?xml version="1.0" encoding="utf-8"?>
<!-- Generator: Adobe Illustrator 21.0.0, SVG Export Plug-In . SVG Version: 6.00 Build 0)  -->
<svg version="1.1" xmlns="http://www.w3.org/2000/svg" xmlns:xlink="http://www.w3.org/1999/xlink" x="0px" y="0px"
	 viewBox="116 265.2 828.7 310.7" style="enable-background:new 116 265.2 828.7 310.7;" xml:space="preserve">
<style type="text/css">
	.st0{fill:#1E1E1E;}
	.st1{display:none;}
	.st2{display:inline;}
	.st3{fill:none;stroke:#BDC3C7;stroke-width:3;stroke-miterlimit:10;}
	.st4{display:inline;fill:#1E1E1E;}
	.st5{fill:#BDC3C7;}
	.st6{fill:url(#SVGID_1_);stroke:#BDC3C7;stroke-width:3;stroke-miterlimit:10;}
	.st7{opacity:0.26;fill:none;stroke:#616768;stroke-width:4;stroke-miterlimit:10;enable-background:new    ;}
	.st8{opacity:0.26;fill:none;stroke:#616768;stroke-miterlimit:10;enable-background:new    ;}
	.st9{fill:none;}
	.st10{fill:#AECED1;}
	.st11{font-family:'Verdana-Italic';}
	.st12{font-size:7px;}
	.st13{fill:none;stroke:#CDF3F9;stroke-width:2;stroke-miterlimit:10;}
	.st14{fill:none;stroke:#58D3E0;stroke-width:3;stroke-miterlimit:10;}
	.st15{fill:none;stroke:#CE5300;stroke-width:3;stroke-miterlimit:10;}
	.st16{fill:none;stroke:#843500;stroke-width:2;stroke-miterlimit:10;}
	.st17{fill:none;stroke:#EF2511;stroke-width:3;stroke-miterlimit:10;}
	.st18{fill:none;stroke:#6B0000;stroke-width:2;stroke-miterlimit:10;}
	.st19{display:inline;fill:none;stroke:#AD6423;stroke-miterlimit:10;}
	.st20{display:inline;opacity:0.4;fill:#E4EDEF;}
	.st21{display:inline;fill:none;stroke:#55E9F9;stroke-width:2;stroke-miterlimit:10;}
	.st22{display:inline;fill:none;stroke:#26A4C6;stroke-miterlimit:10;}
	.st23{fill:none;stroke:#B2B2B2;stroke-width:0.6;stroke-miterlimit:10;}
	.st24{fill:none;stroke:#B2B2B2;stroke-width:0.3;stroke-miterlimit:10;}
</style>
<g id="Capa_1">
	<rect x="116" y="265.2" class="st0" width="828.7" height="310.7"/>
	<g id="Capa_2" class="st1">
		<g id="Capa_6_copia" class="st2">
			<path class="st3" d="M417.6,420.6c0-62.2,50.4-112.7,112.7-112.7S643,364,643,420.6c0,62.2-50.4,112.7-112.7,112.7
				S417.6,482.8,417.6,420.6z"/>
		</g>
		<rect x="433.3" y="488.6" class="st4" width="193.7" height="87.6"/>
	</g>
	<path class="st5" d="M442.4,488.6c-14.6-18.8-23.3-42.4-23.3-68c0-61.3,49.9-111.2,111.2-111.2c29.1,0,57,12.3,78.6,34.7
		c20.7,21.4,32.6,49.3,32.6,76.5c0,25.6-8.7,49.2-23.3,68h3.8c14.1-19,22.5-42.5,22.5-68c0-28-12.2-56.6-33.4-78.6
		c-22.2-22.9-50.9-35.6-80.8-35.6c-63,0-114.2,51.2-114.2,114.2c0,25.5,8.4,49,22.5,68H442.4z"/>
	
		<linearGradient id="SVGID_1_" gradientUnits="userSpaceOnUse" x1="530.25" y1="562.48" x2="530.25" y2="289.58" gradientTransform="matrix(1 0 0 -1 0 840.27)">
		<stop  offset="0" style="stop-color:#1F1F1F;stop-opacity:0.1"/>
		<stop  offset="0.263" style="stop-color:#1F2122;stop-opacity:0.1"/>
		<stop  offset="0.4212" style="stop-color:#1D292A;stop-opacity:0.1"/>
		<stop  offset="0.5517" style="stop-color:#1A3638;stop-opacity:0.1"/>
		<stop  offset="0.6671" style="stop-color:#16494D;stop-opacity:0.1"/>
		<stop  offset="0.7725" style="stop-color:#116167;stop-opacity:0.1"/>
		<stop  offset="0.8708" style="stop-color:#0B7F87;stop-opacity:0.1"/>
		<stop  offset="0.9616" style="stop-color:#04A1AD;stop-opacity:0.1"/>
		<stop  offset="1" style="stop-color:#00B2BF;stop-opacity:0.1"/>
	</linearGradient>
	<path class="st6" d="M530.3,487.8H620c11.3,0,21.9,5.4,28.4,14.7l23.3,37.6c4,6.1,10.7,10.6,18,10.6h128.5c26,0,34.6-8.7,52.1-28.5
		c22.7-25.6,60.2-106.4,60.2-106.4c10.1-28.2,2.9-39.1-16.4-50c-37.6-21.3-131.8-67-156.8-72.6c-55.3-12.3-170.4-15.4-227-15.4
		s-171.7,3.1-227,15.4c-25,5.6-119.2,51.3-156.9,72.5c-19.3,10.9-26.5,21.8-16.4,50c0,0,37.5,80.8,60.2,106.4
		c17.5,19.7,26.1,28.5,52.1,28.5h128.5c7.3,0,14-4.5,18-10.6l23.3-37.6c6.5-9.3,17.1-14.7,28.4-14.7h89.8"/>
	<g id="Capa_6">
		<path class="st0" d="M440.6,486.4c-14.2-18.7-21.4-40.5-21.4-65.7c0-61.4,49.8-111.1,111.1-111.1s111.1,55.3,111.1,111.1
			c0,25.3-7.2,47.1-21.4,65.8"/>
	</g>
	<path class="st7" d="M455.6,484.3c-14.8-17.2-23.5-39.3-23.5-63.7c0-54.2,44-98.2,98.2-98.2s98.2,44,98.2,98.2
		c0,24.4-8.7,46.6-23.5,63.7"/>
	<path class="st8" d="M458.7,481.9c-14.2-16.5-22.6-37.8-22.6-61.2c0-52.1,42.3-94.4,94.4-94.4s94.4,42.3,94.4,94.4
		c0,23.5-8.4,44.8-22.6,61.3"/>
	<path class="st3" d="M529.3,307.9c-56.5,0-172.1,10-227,15.4c-10.5,1-28.7-15.9-39.2-15.4"/>
	<path class="st3" d="M529.3,307.9c56.5,0,172.1,10,227,15.4c10.5,1,28.7-15.9,39.2-15.4"/>
	<g id="Capa_11">
		<rect x="507.9" y="437" class="st9" width="47.5" height="18.3"/>
		<rect x="439.8" y="466.8" class="st9" width="9.5" height="9.1"/>
		<text transform="matrix(1 0 0 1 442.2881 472.0885)" class="st10 st11 st12">0</text>
		<rect x="425.3" y="407" class="st9" width="15.7" height="9.1"/>
		<text transform="matrix(1 0 0 1 428.6677 412.3547)" class="st10 st11 st12">40</text>
		<rect x="442.6" y="352.4" class="st9" width="28.5" height="16.1"/>
		<text transform="matrix(1 0 0 1 452.4229 357.6659)" class="st10 st11 st12">80</text>
		<rect x="485.4" y="324.8" class="st9" width="28.5" height="16.1"/>
		<text transform="matrix(1 0 0 1 492.9701 330.122)" class="st10 st11 st12">120</text>
		<rect x="544.9" y="324.8" class="st9" width="28.5" height="16.1"/>
		<text transform="matrix(1 0 0 1 552.5406 330.122)" class="st10 st11 st12">160</text>
		<rect x="587.9" y="352.4" class="st9" width="28.5" height="16.1"/>
		<text transform="matrix(1 0 0 1 595.5025 357.6659)" class="st10 st11 st12">200</text>
		<rect x="611.9" y="407.8" class="st9" width="28.5" height="16.1"/>
		<text transform="matrix(1 0 0 1 619.4835 413.1205)" class="st10 st11 st12">240</text>
		<rect x="599.3" y="467.6" class="st9" width="28.5" height="16.1"/>
		<text transform="matrix(1 0 0 1 606.9022 472.8814)" class="st10 st11 st12">280</text>
	</g>
	<g id="Capa_23">
		<polyline class="st13" points="422.3,417.1 424.9,417.2 427.6,417.3 		"/>
		<polyline class="st14" points="422.7,410 425.4,410.3 428,410.5 		"/>
		<polyline class="st13" points="423.7,403 426.3,403.4 428.9,403.9 		"/>
		<polyline class="st13" points="425.1,396 427.7,396.6 430.2,397.2 		"/>
		<polyline class="st13" points="426.9,389.2 429.5,390 432,390.7 		"/>
		<polyline class="st13" points="429.2,382.5 431.7,383.4 434.2,384.4 		"/>
		<polyline class="st13" points="431.9,376 434.3,377 436.7,378.1 		"/>
		<polyline class="st13" points="435.1,369.6 437.4,370.9 439.7,372.1 		"/>
		<polyline class="st13" points="438.6,363.5 440.9,364.9 443.1,366.3 		"/>
		<polyline class="st13" points="442.6,357.6 444.7,359.1 446.9,360.7 		"/>
		<polyline class="st14" points="446.9,352 448.9,353.6 451,355.3 		"/>
		<polyline class="st13" points="451.6,346.6 453.5,348.5 455.4,350.3 		"/>
		<polyline class="st13" points="456.6,341.6 458.4,343.6 460.2,345.5 		"/>
		<polyline class="st13" points="461.9,337 463.6,339 465.3,341.1 		"/>
		<polyline class="st13" points="467.5,332.7 469.1,334.8 470.6,337 		"/>
		<polyline class="st13" points="473.4,328.7 474.8,331 476.2,333.2 		"/>
		<polyline class="st13" points="479.6,325.2 480.8,327.5 482.1,329.9 		"/>
		<polyline class="st13" points="485.9,322.1 487,324.5 488.1,326.9 		"/>
		<polyline class="st13" points="492.5,319.4 493.4,321.9 494.3,324.3 		"/>
		<polyline class="st15" points="499.2,317.1 500,319.6 500.7,322.2 		"/>
		<polyline class="st16" points="506,315.3 506.6,317.9 507.2,320.4 		"/>
		<polyline class="st16" points="513,313.9 513.4,316.5 513.9,319.1 		"/>
		<polyline class="st16" points="520,313 520.3,315.6 520.5,318.3 		"/>
		<polyline class="st16" points="527.1,312.5 527.2,315.2 527.3,317.8 		"/>
		<polyline class="st16" points="534.2,312.5 534.1,315.2 534,317.8 		"/>
		<polyline class="st16" points="541.2,313 541,315.7 540.7,318.3 		"/>
		<polyline class="st16" points="548.3,313.9 547.8,316.6 547.4,319.2 		"/>
		<polyline class="st16" points="555.2,315.3 554.6,317.9 554,320.5 		"/>
		<polyline class="st15" points="562.1,317.2 561.3,319.7 560.5,322.2 		"/>
		<polyline class="st16" points="568.8,319.5 567.8,321.9 566.9,324.4 		"/>
		<polyline class="st16" points="575.3,322.2 574.2,324.6 573.1,327 		"/>
		<polyline class="st16" points="581.7,325.3 580.4,327.7 579.2,330 		"/>
		<polyline class="st16" points="587.8,328.9 586.4,331.1 585,333.4 		"/>
		<polyline class="st16" points="593.7,332.8 592.1,335 590.6,337.1 		"/>
		<polyline class="st16" points="599.3,337.1 597.6,339.2 595.9,341.2 		"/>
		<polyline class="st16" points="604.6,341.8 602.8,343.8 601,345.7 		"/>
		<polyline class="st16" points="609.6,346.8 607.7,348.6 605.8,350.5 		"/>
		<polyline class="st17" points="614.3,352.2 612.2,353.9 610.2,355.5 		"/>
		<polyline class="st18" points="618.6,357.8 616.4,359.3 614.3,360.9 		"/>
		<polyline class="st18" points="622.5,363.7 620.3,365.1 618,366.5 		"/>
		<polyline class="st18" points="626.1,369.8 623.7,371.1 621.4,372.3 		"/>
		<polyline class="st18" points="629.2,376.2 626.8,377.3 624.4,378.4 		"/>
		<polyline class="st18" points="631.9,382.7 629.4,383.7 626.9,384.6 		"/>
		<polyline class="st18" points="634.2,389.5 631.6,390.2 629.1,391 		"/>
		<polyline class="st18" points="636,396.3 633.4,396.9 630.8,397.5 		"/>
		<polyline class="st18" points="637.4,403.3 634.7,403.7 632.1,404.1 		"/>
		<polyline class="st17" points="638.3,410.3 635.6,410.5 633,410.8 		"/>
		<polyline class="st18" points="638.7,417.3 636.1,417.4 633.4,417.5 		"/>
		<polyline class="st18" points="638.7,424.4 636.1,424.3 633.4,424.3 		"/>
		<polyline class="st18" points="638.3,431.5 635.6,431.2 633,431 		"/>
		<polyline class="st18" points="637.3,438.5 634.7,438.1 632.1,437.7 		"/>
		<polyline class="st18" points="635.9,445.5 633.3,444.9 630.8,444.3 		"/>
		<polyline class="st18" points="634.1,452.3 631.5,451.6 629,450.8 		"/>
		<polyline class="st18" points="631.8,459 629.3,458.1 626.8,457.2 		"/>
		<polyline class="st18" points="629.1,465.6 626.7,464.5 624.3,463.4 		"/>
		<polyline class="st17" points="625.9,471.9 623.6,470.7 621.3,469.4 		"/>
		<polyline class="st14" points="434.9,471.7 437.3,470.4 439.6,469.2 		"/>
		<polyline class="st13" points="431.8,465.3 434.2,464.2 436.6,463.1 		"/>
		<polyline class="st13" points="429.1,458.8 431.6,457.9 434.1,456.9 		"/>
		<polyline class="st13" points="426.8,452.1 429.4,451.3 431.9,450.5 		"/>
		<polyline class="st13" points="425,445.2 427.6,444.6 430.2,444 		"/>
		<polyline class="st13" points="423.6,438.3 426.3,437.8 428.9,437.4 		"/>
		<polyline class="st13" points="422.7,431.2 425.4,431 428,430.7 		"/>
		<polyline class="st13" points="422.3,424.2 424.9,424.1 427.6,424 		"/>
	</g>
	<g id="Capa_12">
		<path class="st3" d="M667.8,533.8l-17.8-6c-7.7-2.6-15.9-3.9-24-3.9h-95.8h-95.8c-8.2,0-16.3,1.3-24,3.9l-17.8,6"/>
	</g>
	<g id="Capa_22">
		<path class="st3" d="M606.7,487.8l-3.4-3.1c-5.7-5.3-13.3-8.2-21.1-8.2h-52h-52c-7.8,0-15.3,2.9-21.1,8.2l-3.4,3.1"/>
	</g>
	<g id="Capa_5" class="st1">
		<line class="st19" x1="530.3" y1="265.2" x2="530.3" y2="575.9"/>
		<line class="st19" x1="530.3" y1="420.6" x2="944.7" y2="420.6"/>
		<line class="st19" x1="530.3" y1="420.6" x2="913.1" y2="579.1"/>
		<line class="st19" x1="530.3" y1="420.6" x2="823.3" y2="713.5"/>
		<line class="st19" x1="530.3" y1="420.6" x2="237.4" y2="713.5"/>
		<line class="st19" x1="530.3" y1="420.6" x2="116" y2="420.6"/>
		<line class="st19" x1="530.3" y1="420.6" x2="147.5" y2="579.1"/>
	</g>
	<g id="Capa_3" class="st1">
		<path class="st20" d="M490.3,430.2c1.7,7.1,5.3,13.7,10.4,19l0,0c-1.7-0.1-2.5-0.1-4.2-0.2c-3.7-4.5-6.6-9.6-8.3-15.2
			C489,432.4,489.4,431.6,490.3,430.2L490.3,430.2"/>
		<line class="st21" x1="487.3" y1="443.8" x2="435.1" y2="471.6"/>
		<line class="st21" x1="435.1" y1="471.6" x2="486.4" y2="442.3"/>
		<line class="st21" x1="435.1" y1="471.6" x2="488.2" y2="445.5"/>
		<path class="st22" d="M487.3,444.1c0,0-2.6-4.8-2.7-6.5c-0.2-1.8,1.4-6.4,1.4-6.4"/>
		<path class="st22" d="M487.3,444.1c0,0,2.6,4.8,3.9,5.8c1.4,1.2,6.2,2.4,6.2,2.4"/>
		<circle class="st22" cx="530.9" cy="420.7" r="46.3"/>
	</g>
</g>
<g id="LOGO">
	<path class="st23" d="M517.6,334.9c-0.2,0-0.4,0.2-0.3,0.5l10.5,20.9c0.2,0.4,0.6,0.6,1,0.6h1.5h1.5c0.4,0,0.8-0.2,1-0.6l10.5-20.9
		c0.1-0.2,0-0.5-0.3-0.5l-5.7,0"/>
	<path class="st23" d="M542.4,337.1l0.9-1.8c0.1-0.2,0-0.4-0.3-0.4l-5.7,0c-0.4,0-0.8,0.2-1,0.5l-5.1,9.9c-0.1,0.2-0.9,0.1-1,0.1
		s-0.9,0-1-0.1l-5.1-9.9c-0.2-0.3-0.6-0.5-1-0.5l-5.7,0c-0.2,0-0.4,0.2-0.3,0.4l0.9,1.8"/>
	<path class="st24" d="M536.5,339.2c0.2-0.4,0.6-0.6,1-0.6l4.2,0l0.8-1.5l-5,0c-0.4,0-0.8,0.2-1,0.5l-4.9,9.5
		c-0.2,0.3-0.3,0.5-0.6,0.6c-0.1,0-0.5,0.1-0.5,0.1s-0.4,0-0.5-0.1c-0.4-0.1-0.5-0.3-0.6-0.6l-4.9-9.5c-0.2-0.3-0.6-0.5-1-0.5l-5,0
		l0.8,1.5l4.2,0c0.4,0,0.8,0.2,1,0.6"/>
	<path class="st24" d="M537.5,338.6c-0.4,0-0.8,0.2-1,0.5l-4.8,9.3c-0.1,0.1-0.6,0.4-1.1,0.5c-0.2,0-0.3,0-0.3,0s-0.2,0-0.3,0
		c-0.5,0-1-0.3-1.1-0.5l-4.8-9.3c-0.2-0.3-0.6-0.5-1-0.5l-4.1,0l0.5,0.9c0.1,0.1,0.2,0.2,0.3,0.2l3.3,0c0.4,0,0.8,0.2,1,0.6l4.5,8.7
		c0.1,0.2,0.7,0.5,1.1,0.5h0.6h0.6c0.4,0,1-0.3,1.1-0.5l4.5-8.7c0.2-0.4,0.6-0.6,1-0.6l3.3,0c0.1,0,0.2-0.1,0.3-0.2l0.5-0.9
		L537.5,338.6z"/>
</g>
</svg>
